<svg id="Layer_35" enable-background="new 0 0 64 64" height="512" viewBox="0 0 64 64" width="512" xmlns="http://www.w3.org/2000/svg"><path d="m62 2v56h-26v-36c0-2.21-1.79-4-4-4h-14v-4h12v-12z" fill="#e6e9ed"/><path d="m30 2v12h-12z" fill="#b4dd7f"/><path d="m36 22v36c0 2.21-1.79 4-4 4h-26c-2.21 0-4-1.79-4-4v-36c0-2.21 1.79-4 4-4h12 14c2.21 0 4 1.79 4 4z" fill="#aab2bd"/><path d="m6 33v-10c0-.55.45-1 1-1h24c.55 0 1 .45 1 1v10c0 .55-.45 1-1 1h-24c-.55 0-1-.45-1-1z" fill="#69d6f4"/><path d="m42 42h16v12h-16z" fill="#b4dd7f"/><g fill="#fcd770"><circle cx="48" cy="16" r="10"/><path d="m32 55v2c0 .55-.45 1-1 1h-4c-.55 0-1-.45-1-1v-2c0-.55.45-1 1-1h4c.55 0 1 .45 1 1z"/><path d="m32 47v2c0 .55-.45 1-1 1h-4c-.55 0-1-.45-1-1v-2c0-.55.45-1 1-1h4c.55 0 1 .45 1 1z"/><path d="m32 39v2c0 .55-.45 1-1 1h-4c-.55 0-1-.45-1-1v-2c0-.55.45-1 1-1h4c.55 0 1 .45 1 1z"/><path d="m22 39v2c0 .55-.45 1-1 1h-4c-.55 0-1-.45-1-1v-2c0-.55.45-1 1-1h4c.55 0 1 .45 1 1z"/><path d="m22 47v2c0 .55-.45 1-1 1h-4c-.55 0-1-.45-1-1v-2c0-.55.45-1 1-1h4c.55 0 1 .45 1 1z"/><path d="m22 55v2c0 .55-.45 1-1 1h-4c-.55 0-1-.45-1-1v-2c0-.55.45-1 1-1h4c.55 0 1 .45 1 1z"/><path d="m12 55v2c0 .55-.45 1-1 1h-4c-.55 0-1-.45-1-1v-2c0-.55.45-1 1-1h4c.55 0 1 .45 1 1z"/><path d="m12 47v2c0 .55-.45 1-1 1h-4c-.55 0-1-.45-1-1v-2c0-.55.45-1 1-1h4c.55 0 1 .45 1 1z"/><path d="m12 39v2c0 .55-.45 1-1 1h-4c-.55 0-1-.45-1-1v-2c0-.55.45-1 1-1h4c.55 0 1 .45 1 1z"/></g><path d="m31 21h-24c-1.103 0-2 .897-2 2v10c0 1.103.897 2 2 2h24c1.103 0 2-.897 2-2v-10c0-1.103-.897-2-2-2zm-24 12v-10h24l.001 10z"/><path d="m11 37h-4c-1.103 0-2 .897-2 2v2c0 1.103.897 2 2 2h4c1.103 0 2-.897 2-2v-2c0-1.103-.897-2-2-2zm-4 4v-2h4l.001 2z"/><path d="m21 37h-4c-1.103 0-2 .897-2 2v2c0 1.103.897 2 2 2h4c1.103 0 2-.897 2-2v-2c0-1.103-.897-2-2-2zm-4 4v-2h4l.001 2z"/><path d="m31 37h-4c-1.103 0-2 .897-2 2v2c0 1.103.897 2 2 2h4c1.103 0 2-.897 2-2v-2c0-1.103-.897-2-2-2zm-4 4v-2h4l.001 2z"/><path d="m11 45h-4c-1.103 0-2 .897-2 2v2c0 1.103.897 2 2 2h4c1.103 0 2-.897 2-2v-2c0-1.103-.897-2-2-2zm-4 4v-2h4l.001 2z"/><path d="m21 45h-4c-1.103 0-2 .897-2 2v2c0 1.103.897 2 2 2h4c1.103 0 2-.897 2-2v-2c0-1.103-.897-2-2-2zm-4 4v-2h4l.001 2z"/><path d="m31 45h-4c-1.103 0-2 .897-2 2v2c0 1.103.897 2 2 2h4c1.103 0 2-.897 2-2v-2c0-1.103-.897-2-2-2zm-4 4v-2h4l.001 2z"/><path d="m11 53h-4c-1.103 0-2 .897-2 2v2c0 1.103.897 2 2 2h4c1.103 0 2-.897 2-2v-2c0-1.103-.897-2-2-2zm-4 4v-2h4l.001 2z"/><path d="m21 53h-4c-1.103 0-2 .897-2 2v2c0 1.103.897 2 2 2h4c1.103 0 2-.897 2-2v-2c0-1.103-.897-2-2-2zm-4 4v-2h4l.001 2z"/><path d="m31 53h-4c-1.103 0-2 .897-2 2v2c0 1.103.897 2 2 2h4c1.103 0 2-.897 2-2v-2c0-1.103-.897-2-2-2zm-4 4v-2h4l.001 2z"/><path d="m63 1h-33.414l-12.586 12.586v3.414h-11c-2.757 0-5 2.243-5 5v36c0 2.757 2.243 5 5 5h26c2.414 0 4.434-1.721 4.899-4h26.101zm-34 3.414v8.586h-8.586zm6 53.586c0 1.654-1.346 3-3 3h-26c-1.654 0-3-1.346-3-3v-36c0-1.654 1.346-3 3-3h26c1.654 0 3 1.346 3 3zm26-1h-24v-35c0-2.757-2.243-5-5-5h-13v-2h12v-12h30z"/><path d="m48 19c-.551 0-1-.449-1-1h-2c0 1.302.839 2.402 2 2.816v2.184h2v-2h2v-3c0-1.654-1.346-3-3-3-.551 0-1-.449-1-1v-1h1c.551 0 1 .449 1 1h2c0-1.302-.839-2.402-2-2.816v-2.184h-2v2h-2v3c0 1.654 1.346 3 3 3 .551 0 1 .449 1 1v1z"/><path d="m48 27c6.065 0 11-4.935 11-11s-4.935-11-11-11-11 4.935-11 11 4.935 11 11 11zm0-20c4.962 0 9 4.038 9 9s-4.038 9-9 9-9-4.038-9-9 4.038-9 9-9z"/><path d="m57 37h2v2h-2z"/><path d="m53 37h2v2h-2z"/><path d="m49 37h2v2h-2z"/><path d="m45 37h2v2h-2z"/><path d="m41 37h2v2h-2z"/><path d="m41 33h18v2h-18z"/><path d="m41 29h18v2h-18z"/><path d="m9 25h2v2h-2z"/><path d="m13 25h2v2h-2z"/><path d="m17 25h2v2h-2z"/><path d="m41 55h18v-14h-18zm2-12h14v10h-14z"/></svg>