<svg height="512pt" viewBox="0 0 512 512" width="512pt" xmlns="http://www.w3.org/2000/svg"><path d="m0 256c0 27.28125 4.261719 53.570312 12.183594 78.230469 14.441406 45.066406 41.03125 84.699219 75.933594 115.035156 23.089843 20.082031 49.808593 36.078125 79.054687 46.902344 27.660156 10.242187 57.597656 15.832031 88.828125 15.832031 116.839844 0 215.394531-78.273438 246.09375-185.25 6.449219-22.464844 9.90625-46.207031 9.90625-70.75 0-141.386719-114.613281-256-256-256-48.429688 0-93.71875 13.449219-132.324219 36.8125-41.265625 24.960938-74.910156 61.25-96.644531 104.550781-17.292969 34.492188-27.03125 73.425781-27.03125 114.636719zm0 0" fill="#2a4787"/><path d="m398.292969 449.265625h-310.175781c-34.902344-30.335937-61.492188-69.96875-75.933594-115.035156l14.847656-192.867188 8.054688-104.550781h331.433593l11.785157 152.953125zm0 0" fill="#40c4ad"/><path d="m398.292969 449.265625h-260.117188l19.992188-259.5h220.136719zm0 0" fill="#15b2a2"/><path d="m200.804688 222.140625c51.277343 0 92.996093-41.71875 92.996093-92.996094v-38.636719h-31.347656v38.636719c0 33.996094-27.652344 61.652344-61.648437 61.652344-33.992188 0-61.648438-27.65625-61.648438-61.652344v-38.636719h-31.347656v38.636719c0 51.277344 41.71875 92.996094 92.996094 92.996094zm0 0" fill="#314c8f"/><path d="m167.171875 496.167969c27.660156 10.242187 57.597656 15.832031 88.828125 15.832031 116.839844 0 215.394531-78.273438 246.09375-185.25l-12.320312-159.972656h-297.230469zm0 0" fill="#ffe662"/><g fill="#f26065"><path d="m256.140625 249.113281h31.347656v-66c0-29.59375 24.078125-53.671875 53.671875-53.671875s53.671875 24.078125 53.671875 53.671875v66h31.347657v-66c0-46.878906-38.140626-85.015625-85.019532-85.015625s-85.019531 38.136719-85.019531 85.015625zm0 0"/><path d="m259.824219 359.667969c0-12.074219-31.632813-9.976563-31.632813-33.328125 0-14.96875 13.070313-20.660156 25.546875-20.660156 5.289063 0 19.855469 1 19.855469 8.78125 0 2.695312-1.792969 8.183593-6.1875 8.183593-3.589844 0-5.484375-3.789062-13.667969-3.789062-7.085937 0-9.980469 2.894531-9.980469 5.984375 0 9.980468 31.632813 8.085937 31.632813 33.230468 0 14.371094-10.476563 22.15625-24.945313 22.15625-13.074218 0-24.050781-6.386718-24.050781-12.972656 0-3.394531 2.992188-8.382812 6.785157-8.382812 4.691406 0 7.683593 7.382812 16.964843 7.382812 4.589844 0 9.679688-1.796875 9.679688-6.585937zm0 0"/><path d="m284.078125 372.839844c0-.296875.101563-.695313.199219-1.097656l18.5625-60.871094c1.097656-3.496094 5.585937-5.191406 10.179687-5.191406 4.589844 0 9.078125 1.699218 10.175781 5.191406l18.660157 60.871094c.101562.398437.203125.800781.203125 1.097656 0 3.695312-5.691406 6.386718-9.980469 6.386718-2.496094 0-4.492187-.796874-5.089844-2.894531l-3.394531-12.472656h-21.054688l-3.394531 12.472656c-.597656 2.097657-2.59375 2.894531-5.089843 2.894531-4.289063 0-9.976563-2.695312-9.976563-6.386718zm36.222656-20.953125-7.285156-26.746094-7.285156 26.746094zm0 0"/><path d="m360.621094 379.226562c-3.390625 0-6.785156-1.59375-6.785156-4.789062v-63.46875c0-3.292969 3.890624-4.6875 7.785156-4.6875 3.890625 0 7.78125 1.394531 7.78125 4.6875v54.6875h22.753906c2.992188 0 4.492188 3.390625 4.492188 6.785156 0 3.394532-1.5 6.785156-4.492188 6.785156zm0 0"/><path d="m424.492188 336.714844h14.96875c2.992187 0 4.6875 2.894531 4.6875 6.089844 0 2.695312-1.398438 5.886718-4.6875 5.886718h-14.96875v16.964844h26.742187c2.996094 0 4.691406 3.195312 4.691406 6.886719 0 3.191406-1.398437 6.6875-4.691406 6.6875h-35.523437c-3.394532 0-6.785157-1.597657-6.785157-4.792969v-63.367188c0-3.191406 3.390625-4.789062 6.785157-4.789062h35.523437c3.292969 0 4.691406 3.492188 4.691406 6.683594 0 3.695312-1.695312 6.886718-4.691406 6.886718h-26.742187zm0 0"/></g></svg>