<svg id="Flat" height="512" viewBox="0 0 512 512" width="512" xmlns="http://www.w3.org/2000/svg"><path d="m312 168a8 8 0 0 1 -8-8v-41.384c0-43.349-32.3-78.616-72-78.616s-72 35.267-72 78.616v41.384a8 8 0 0 1 -16 0v-41.384c0-52.171 39.477-94.616 88-94.616s88 42.445 88 94.616v41.384a8 8 0 0 1 -8 8z" fill="#dcdee0"/><path d="m408 488h-352l32-368h288z" fill="#c7312e"/><path d="m456 488h-352l32-368h288z" fill="#eb423f"/><path d="m365 304c0 8.63-11.122 15.4-13.651 23.185-2.62 8.07 2.309 20.065-2.58 26.783-4.938 6.785-17.9 5.778-24.686 10.716-6.718 4.889-9.74 17.556-17.811 20.177-7.787 2.528-17.642-5.861-26.272-5.861s-18.486 8.389-26.273 5.86c-8.071-2.62-11.092-15.287-17.81-20.176-6.785-4.938-19.749-3.932-24.687-10.717-4.889-6.718.041-18.712-2.579-26.783-2.529-7.784-13.651-14.554-13.651-23.184s11.122-15.4 13.651-23.185c2.62-8.07-2.309-20.065 2.58-26.783 4.938-6.785 17.9-5.778 24.686-10.716 6.718-4.889 9.74-17.556 17.811-20.177 7.787-2.528 17.642 5.861 26.272 5.861s18.486-8.389 26.273-5.86c8.071 2.62 11.092 15.287 17.81 20.176 6.785 4.938 19.749 3.932 24.687 10.717 4.889 6.718-.041 18.712 2.579 26.783 2.529 7.784 13.651 14.554 13.651 23.184z" fill="#dcdee0"/><path d="m360 168a8 8 0 0 1 -8-8v-41.384c0-43.349-32.3-78.616-72-78.616s-72 35.267-72 78.616v41.384a8 8 0 0 1 -16 0v-41.384c0-52.171 39.477-94.616 88-94.616s88 42.445 88 94.616v41.384a8 8 0 0 1 -8 8z" fill="#dcdee0"/><g fill="#c7312e"><path d="m263.993 336a8 8 0 0 1 -6.649-12.439l32-48a8 8 0 0 1 13.312 8.876l-32 48a7.991 7.991 0 0 1 -6.663 3.563z"/><circle cx="264" cy="280" r="8"/><circle cx="296" cy="328" r="8"/></g></svg>