<svg id="Capa_1" enable-background="new 0 0 512 512" height="512" viewBox="0 0 512 512" width="512" xmlns="http://www.w3.org/2000/svg"><g><path d="m396.134 455.314c-26.6 43.143-77.602 64.869-127.074 53.848-55.606-12.388-116.07-46.096-168.095-98.121-52.032-52.032-85.74-112.497-98.127-168.105-11.02-49.472 10.704-100.474 53.848-127.074 9.671-5.963 22.172-4.5 30.206 3.534l59.669 59.669c11.193 11.193 9.005 29.902-4.47 38.209l-24.382 15.033c-10.233 6.309-14.399 19.103-9.806 30.212 9.969 24.109 27.982 57.476 60.222 88.494 28.838 27.744 58.895 43.832 81.454 53.137 11.074 4.568 23.829.354 30.116-9.843l15.038-24.391c8.308-13.475 27.016-15.663 38.209-4.47l59.66 59.66c8.034 8.034 9.496 20.535 3.534 30.206z" fill="#b5adb6"/><path d="m291.468 375.218 94.344 94.344c3.744-4.448 7.206-9.195 10.322-14.249l.002-.003c5.963-9.671 4.501-22.172-3.534-30.206l-59.66-59.66c-11.193-11.193-29.902-9.005-38.209 4.47l-3.266 5.297z" fill="#918291"/><path d="m136.791 220.54 5.3-3.267c13.474-8.308 15.663-27.016 4.47-38.209l-59.669-59.669c-8.034-8.034-20.535-9.496-30.206-3.534-5.055 3.116-9.803 6.579-14.251 10.324l94.354 94.354z" fill="#918291"/><path d="m512 163.933c0-91.341-74.704-165.234-166.348-163.916-88.771 1.277-160.954 74.078-161.516 162.856-.314 49.718 21.511 94.339 56.19 124.605 3.66 3.194 3.133 9.023-1.048 11.497l-30.89 18.276c-4.994 2.955-2.897 10.611 2.905 10.609l139.877-.034c89.105-1.655 160.83-74.393 160.83-163.893z" fill="#7acaa6"/><path d="m345.652.017c-4.383.063-8.724.307-13.019.712 83.28 7.797 148.461 77.884 148.461 163.204 0 89.5-71.725 162.238-160.828 163.894l-109.062.027c.031 0 .059.008.091.008l139.877-.034c89.103-1.657 160.828-74.395 160.828-163.895 0-91.341-74.704-165.234-166.348-163.916z" fill="#57be92"/><g><circle cx="348.201" cy="265.69" fill="#fff" r="15.453"/><g><g><path d="m348.066 219.776c-8.534 0-15.453-6.919-15.453-15.453v-48.804c0-8.534 6.919-15.453 15.453-15.453 8.639 0 16.679-3.457 22.639-9.734 5.956-6.273 8.988-14.5 8.538-23.169-.843-16.232-14.252-29.204-30.526-29.532-.213-.005-.427-.007-.639-.007-15.542 0-28.78 11.437-30.93 26.846-.201 1.438-.303 2.91-.303 4.374 0 8.534-6.919 15.453-15.453 15.453s-15.453-6.919-15.453-15.453c0-2.887.201-5.796.599-8.645 4.342-31.116 31.359-54.122 62.801-53.468 32.397.653 59.089 26.494 60.767 58.829.893 17.216-5.14 33.57-16.989 46.05-8.067 8.497-18.396 14.492-29.599 17.387v35.324c.001 8.536-6.918 15.455-15.452 15.455z" fill="#fff"/></g></g></g></g></svg>