<?xml version="1.0" encoding="utf-8"?>
<!-- Generator: Adobe Illustrator 21.0.2, SVG Export Plug-In . SVG Version: 6.00 Build 0)  -->
<svg version="1.1" xmlns="http://www.w3.org/2000/svg" xmlns:xlink="http://www.w3.org/1999/xlink" x="0px" y="0px"
	 viewBox="0 0 24 24" style="enable-background:new 0 0 24 24;" xml:space="preserve">
<style type="text/css">
	.st0{fill:#76C2AF;}
	.st1{fill:#FFFFFF;stroke:#000000;stroke-width:0.25;stroke-miterlimit:10;}
</style>
<g id="Layer_1" xmlns:sketch="http://www.bohemiancoding.com/sketch/ns">
	<title></title>
	<desc></desc>
	<g id="Artboard-1" transform="translate(-683.000000, -119.000000)">
		<g id="slice" transform="translate(215.000000, 119.000000)">
		</g>
		<path id="circle-help-question-mark-glyph" class="st0" d="M684,130.5c0-6.4,5.1-11.5,11.5-11.5s11.5,5.1,11.5,11.5
			s-5.1,11.5-11.5,11.5S684,136.9,684,130.5z M694.7,134.4h1.5v1.5h-1.5V134.4z M693.1,126c0.6-0.6,1.4-1,2.5-1c1,0,1.7,0.3,2.3,0.8
			s0.9,1.3,0.9,2.1c0,0.5-0.1,0.9-0.3,1.3s-0.6,0.8-1.3,1.4c-0.5,0.5-0.8,0.8-0.9,1.2s-0.2,0.8-0.2,1.4h-1.3c0-0.7,0.1-1.3,0.2-1.7
			s0.5-0.9,1.1-1.5l0.6-0.6c0.2-0.2,0.3-0.3,0.4-0.5c0.2-0.3,0.3-0.6,0.3-1c0-0.5-0.1-0.9-0.4-1.2s-0.8-0.5-1.4-0.5
			c-0.8,0-1.4,0.3-1.7,0.9c-0.2,0.3-0.3,0.8-0.3,1.5h-1.3C692.2,127.5,692.5,126.6,693.1,126C693.1,126,692.5,126.6,693.1,126z"/>
	</g>
</g>
<g id="Layer_2">
	<path class="st1" d="M10.1,7.1c0.6-0.6,1.4-1,2.5-1c1,0,1.7,0.3,2.3,0.8s0.9,1.3,0.9,2.1c0,0.5-0.1,0.9-0.3,1.3s-0.6,0.8-1.3,1.4
		c-0.5,0.5-0.8,0.8-0.9,1.2S13,13.7,13,14.3h-1.3c0-0.7,0.1-1.3,0.2-1.7s0.5-0.9,1.1-1.5l0.6-0.6c0.2-0.2,0.3-0.3,0.4-0.5
		c0.2-0.3,0.3-0.6,0.3-1c0-0.5-0.1-0.9-0.4-1.2c-0.3-0.4-0.8-0.5-1.4-0.5c-0.8,0-1.4,0.3-1.7,0.9c-0.2,0.3-0.3,0.8-0.3,1.5H9.2
		C9.2,8.6,9.5,7.8,10.1,7.1C10.1,7.1,9.5,7.8,10.1,7.1z"/>
</g>
<g id="Layer_3">
	<rect x="11.8" y="14.9" class="st1" width="1.5" height="1.5"/>
</g>
</svg>
