<svg xmlns="http://www.w3.org/2000/svg" viewBox="0 0 23 23"><defs><style>.cls-1{fill:#76c2af;}.cls-2{fill:#fff;}</style></defs><title>help1</title><g id="Layer_1" data-name="Layer 1"><g id="Artboard-1"><path id="circle-help-question-mark-glyph" class="cls-1" d="M1,11.5A11.5,11.5,0,1,1,12.5,23,11.5,11.5,0,0,1,1,11.5Zm10.67,3.88h1.46V16.9H11.67ZM10.09,7a3.18,3.18,0,0,1,2.45-1,3.22,3.22,0,0,1,2.31.82,2.78,2.78,0,0,1,.87,2.11,2.25,2.25,0,0,1-.32,1.26,10,10,0,0,1-1.29,1.42,4.11,4.11,0,0,0-.91,1.15,3.6,3.6,0,0,0-.21,1.4H11.7a4.75,4.75,0,0,1,.25-1.69A4.55,4.55,0,0,1,13,11l.59-.58A2.42,2.42,0,0,0,14,9.9a1.86,1.86,0,0,0,.29-1,1.91,1.91,0,0,0-.43-1.25,1.73,1.73,0,0,0-1.42-.53,1.73,1.73,0,0,0-1.69.91,3.52,3.52,0,0,0-.3,1.46H9.2A3.59,3.59,0,0,1,10.09,7Z" transform="translate(-1)"/></g></g><g id="Layer_2" data-name="Layer 2"><path class="cls-2" d="M10.13,7.13a3.18,3.18,0,0,1,2.45-1A3.22,3.22,0,0,1,14.9,7a2.78,2.78,0,0,1,.87,2.11,2.25,2.25,0,0,1-.32,1.26,10,10,0,0,1-1.29,1.42,4.11,4.11,0,0,0-.91,1.15,3.6,3.6,0,0,0-.21,1.4h-1.3A4.75,4.75,0,0,1,12,12.64a4.55,4.55,0,0,1,1.09-1.47l.59-.58a2.42,2.42,0,0,0,.42-.52,1.86,1.86,0,0,0,.29-1A1.91,1.91,0,0,0,14,7.84a1.73,1.73,0,0,0-1.42-.53,1.73,1.73,0,0,0-1.69.91,3.52,3.52,0,0,0-.3,1.46H9.24a3.59,3.59,0,0,1,.89-2.55Z" transform="translate(-1)"/></g><g id="Layer_3" data-name="Layer 3"><rect class="cls-2" x="10.77" y="14.86" width="1.46" height="1.52"/></g></svg>