<svg height="512" viewBox="0 0 64 64" width="512" xmlns="http://www.w3.org/2000/svg"><path d="m38 37h12v4h-12zm12-35h-33v52h33a4 4 0 0 0 4-4v-44a4 4 0 0 0 -4-4z" fill="#57a4ff"/><path d="m50 41h-12v-4h12zm0-39h-33v52h33a4 4 0 0 0 4-4v-44a4 4 0 0 0 -4-4z" fill="#57a4ff"/><g fill="#004fac"><path d="m21 26h2v2a1 1 0 0 0 2 0v-2h2v2a1 1 0 0 0 2 0v-2h6a1 1 0 0 0 1-1v-8a1 1 0 0 0 -1-1h-3v-7a1 1 0 0 0 -1-1h-2v-2a1 1 0 0 0 -2 0v2h-2v-2a1 1 0 0 0 -2 0v2h-2a1 1 0 0 0 -1 1v16a1 1 0 0 0 1 1zm13-2h-12v-6h12zm-12-14h8v6h-8z"/><path d="m24 30a1 1 0 0 0 -1 1v1a1 1 0 0 0 2 0v-1a1 1 0 0 0 -1-1z"/><path d="m50 1h-36a5.006 5.006 0 0 0 -5 5v52a5.006 5.006 0 0 0 5 5h36a5.006 5.006 0 0 0 5-5v-52a5.006 5.006 0 0 0 -5-5zm0 2a3 3 0 0 1 3 3v44a3 3 0 0 1 -3 3h-32v-50zm-39 3a3 3 0 0 1 3-3h2v50h-2a4.98 4.98 0 0 0 -3 1zm39 55h-36a3 3 0 0 1 0-6h36a4.948 4.948 0 0 0 3-1.026v4.026a3 3 0 0 1 -3 3z"/><path d="m38 45h12a1 1 0 0 0 0-2h-12a1 1 0 0 0 0 2z"/><path d="m50 46h-9a1 1 0 0 0 0 2h9a1 1 0 0 0 0-2z"/><path d="m50 49h-3a1 1 0 0 0 0 2h3a1 1 0 0 0 0-2z"/><path d="m38 42h12a1 1 0 0 0 1-1v-4a1 1 0 0 0 -1-1h-12a1 1 0 0 0 -1 1v4a1 1 0 0 0 1 1zm1-4h10v2h-10z"/></g></svg>