<?xml version="1.0" encoding="utf-8"?>
<!-- Generator: Adobe Illustrator 21.0.2, SVG Export Plug-In . SVG Version: 6.00 Build 0)  -->
<svg version="1.1" id="Layer_1" xmlns="http://www.w3.org/2000/svg" xmlns:xlink="http://www.w3.org/1999/xlink" x="0px" y="0px"
	 viewBox="0 0 512 512" style="enable-background:new 0 0 512 512;" xml:space="preserve">
<style type="text/css">
	.st0{fill:#FFFFFF;}
	.st1{fill:url(#SVGID_1_);}
</style>
<g>
	<circle class="st0" cx="251.3" cy="260.7" r="246"/>
	<linearGradient id="SVGID_1_" gradientUnits="userSpaceOnUse" x1="5.3333" y1="260.6667" x2="497.3333" y2="260.6667">
		<stop  offset="0" style="stop-color:#FFFFFF"/>
		<stop  offset="0.1719" style="stop-color:#FCFDFE"/>
		<stop  offset="0.3034" style="stop-color:#F2F8FC"/>
		<stop  offset="0.4217" style="stop-color:#E2EFF8"/>
		<stop  offset="0.532" style="stop-color:#CBE3F2"/>
		<stop  offset="0.637" style="stop-color:#ADD3EA"/>
		<stop  offset="0.7379" style="stop-color:#88BFE1"/>
		<stop  offset="0.8356" style="stop-color:#5DA7D6"/>
		<stop  offset="0.9282" style="stop-color:#2C8DC9"/>
		<stop  offset="1" style="stop-color:#0075BE"/>
	</linearGradient>
	<path class="st1" d="M251.3,26.7c31.6,0,62.2,6.2,91.1,18.4c27.9,11.8,52.9,28.7,74.4,50.2c21.5,21.5,38.4,46.5,50.2,74.4
		c12.2,28.8,18.4,59.5,18.4,91.1s-6.2,62.2-18.4,91.1c-11.8,27.9-28.7,52.9-50.2,74.4c-21.5,21.5-46.5,38.4-74.4,50.2
		c-28.8,12.2-59.5,18.4-91.1,18.4s-62.2-6.2-91.1-18.4c-27.9-11.8-52.9-28.7-74.4-50.2c-21.5-21.5-38.4-46.5-50.2-74.4
		c-12.2-28.8-18.4-59.5-18.4-91.1s6.2-62.2,18.4-91.1c11.8-27.9,28.7-52.9,50.2-74.4c21.5-21.5,46.5-38.4,74.4-50.2
		C189.1,32.9,219.7,26.7,251.3,26.7 M251.3,14.7c-135.9,0-246,110.1-246,246s110.1,246,246,246s246-110.1,246-246
		S387.2,14.7,251.3,14.7L251.3,14.7z"/>
</g>
</svg>
