<?xml version="1.0" encoding="UTF-8" standalone="no"?>
<!-- Created with Inkscape (http://www.inkscape.org/) -->

<svg
   xmlns:dc="http://purl.org/dc/elements/1.1/"
   xmlns:cc="http://creativecommons.org/ns#"
   xmlns:rdf="http://www.w3.org/1999/02/22-rdf-syntax-ns#"
   xmlns:svg="http://www.w3.org/2000/svg"
   xmlns="http://www.w3.org/2000/svg"
   xmlns:sodipodi="http://sodipodi.sourceforge.net/DTD/sodipodi-0.dtd"
   xmlns:inkscape="http://www.inkscape.org/namespaces/inkscape"
   version="1.1"
   id="svg2"
   xml:space="preserve"
   width="666.66669"
   height="666.66669"
   viewBox="0 0 666.66669 666.66669"
   sodipodi:docname="login1.svg"
   inkscape:version="0.92.4 (5da689c313, 2019-01-14)"><metadata
     id="metadata8"><rdf:RDF><cc:Work
         rdf:about=""><dc:format>image/svg+xml</dc:format><dc:type
           rdf:resource="http://purl.org/dc/dcmitype/StillImage" /><dc:title /></cc:Work></rdf:RDF></metadata><defs
     id="defs6"><clipPath
       clipPathUnits="userSpaceOnUse"
       id="clipPath32"><path
         d="M 0,500 H 500 V 0 H 0 Z"
         id="path30"
         inkscape:connector-curvature="0" /></clipPath><clipPath
       clipPathUnits="userSpaceOnUse"
       id="clipPath172"><path
         d="M 0,500 H 500 V 0 H 0 Z"
         id="path170"
         inkscape:connector-curvature="0" /></clipPath><clipPath
       clipPathUnits="userSpaceOnUse"
       id="clipPath184"><path
         d="M 64.7185,404.886 H 441.37 V 164.607 H 64.7185 Z"
         id="path182"
         inkscape:connector-curvature="0" /></clipPath><clipPath
       clipPathUnits="userSpaceOnUse"
       id="clipPath200"><path
         d="M 0,500 H 500 V 0 H 0 Z"
         id="path198"
         inkscape:connector-curvature="0" /></clipPath><clipPath
       clipPathUnits="userSpaceOnUse"
       id="clipPath216"><path
         d="M 0,500 H 500 V 0 H 0 Z"
         id="path214"
         inkscape:connector-curvature="0" /></clipPath><clipPath
       clipPathUnits="userSpaceOnUse"
       id="clipPath224"><path
         d="M 185.035,129.24 H 197.42 V 118.164 H 185.035 Z"
         id="path222"
         inkscape:connector-curvature="0" /></clipPath><clipPath
       clipPathUnits="userSpaceOnUse"
       id="clipPath244"><path
         d="M 0,500 H 500 V 0 H 0 Z"
         id="path242"
         inkscape:connector-curvature="0" /></clipPath><clipPath
       clipPathUnits="userSpaceOnUse"
       id="clipPath252"><path
         d="m 139.118,111.241 h 11.611 v -9.739 h -11.611 z"
         id="path250"
         inkscape:connector-curvature="0" /></clipPath><clipPath
       clipPathUnits="userSpaceOnUse"
       id="clipPath280"><path
         d="M 77.7619,287.211 H 96.9768 V 264.928 H 77.7619 Z"
         id="path278"
         inkscape:connector-curvature="0" /></clipPath><clipPath
       clipPathUnits="userSpaceOnUse"
       id="clipPath296"><path
         d="m 89.3519,273.658 h 3.54 v -8.73 h -3.54 z"
         id="path294"
         inkscape:connector-curvature="0" /></clipPath><clipPath
       clipPathUnits="userSpaceOnUse"
       id="clipPath332"><path
         d="m 84.9485,298.198 h 47.1035 v -54.98 H 84.9485 Z"
         id="path330"
         inkscape:connector-curvature="0" /></clipPath><clipPath
       clipPathUnits="userSpaceOnUse"
       id="clipPath348"><path
         d="m 121.8,287.208 h 4.952 v -16.8 H 121.8 Z"
         id="path346"
         inkscape:connector-curvature="0" /></clipPath><clipPath
       clipPathUnits="userSpaceOnUse"
       id="clipPath376"><path
         d="m 99.9942,306.276 h 6.6398 v -6.605 h -6.6398 z"
         id="path374"
         inkscape:connector-curvature="0" /></clipPath><clipPath
       clipPathUnits="userSpaceOnUse"
       id="clipPath408"><path
         d="m 114.38,250.039 h 10.58 v -48.34 h -10.58 z"
         id="path406"
         inkscape:connector-curvature="0" /></clipPath><clipPath
       clipPathUnits="userSpaceOnUse"
       id="clipPath496"><path
         d="M 117.321,298.2 H 134.71 V 277.903 H 117.321 Z"
         id="path494"
         inkscape:connector-curvature="0" /></clipPath><clipPath
       clipPathUnits="userSpaceOnUse"
       id="clipPath532"><path
         d="M 0,500 H 500 V 0 H 0 Z"
         id="path530"
         inkscape:connector-curvature="0" /></clipPath><clipPath
       clipPathUnits="userSpaceOnUse"
       id="clipPath552"><path
         d="m 147.206,380.333 h 162.96 V 93.762 h -162.96 z"
         id="path550"
         inkscape:connector-curvature="0" /></clipPath><clipPath
       clipPathUnits="userSpaceOnUse"
       id="clipPath568"><path
         d="m 172.772,159.672 h 36.862 v -49.63 h -36.862 z"
         id="path566"
         inkscape:connector-curvature="0" /></clipPath><clipPath
       clipPathUnits="userSpaceOnUse"
       id="clipPath608"><path
         d="M 162.696,294.843 H 229.06 V 202.364 H 162.696 Z"
         id="path606"
         inkscape:connector-curvature="0" /></clipPath><clipPath
       clipPathUnits="userSpaceOnUse"
       id="clipPath624"><path
         d="M 178.234,353.445 H 318.861 V 122.791 H 178.234 Z"
         id="path622"
         inkscape:connector-curvature="0" /></clipPath><clipPath
       clipPathUnits="userSpaceOnUse"
       id="clipPath676"><path
         d="m 253.565,296.556 h 39.701 v -17.838 h -39.701 z"
         id="path674"
         inkscape:connector-curvature="0" /></clipPath><clipPath
       clipPathUnits="userSpaceOnUse"
       id="clipPath692"><path
         d="m 262.456,319.079 h 20.139 v -20.115 h -20.139 z"
         id="path690"
         inkscape:connector-curvature="0" /></clipPath><clipPath
       clipPathUnits="userSpaceOnUse"
       id="clipPath712"><path
         d="M 0,500 H 500 V 0 H 0 Z"
         id="path710"
         inkscape:connector-curvature="0" /></clipPath><clipPath
       clipPathUnits="userSpaceOnUse"
       id="clipPath720"><path
         d="m 348.685,108.271 h 7.725 v -8.7693 h -7.725 z"
         id="path718"
         inkscape:connector-curvature="0" /></clipPath><clipPath
       clipPathUnits="userSpaceOnUse"
       id="clipPath740"><path
         d="M 0,500 H 500 V 0 H 0 Z"
         id="path738"
         inkscape:connector-curvature="0" /></clipPath><clipPath
       clipPathUnits="userSpaceOnUse"
       id="clipPath748"><path
         d="m 403.525,126.226 h 11.518 v -10.024 h -11.518 z"
         id="path746"
         inkscape:connector-curvature="0" /></clipPath><clipPath
       clipPathUnits="userSpaceOnUse"
       id="clipPath828"><path
         d="m 374.223,330.036 h 6.54 v -17.859 h -6.54 z"
         id="path826"
         inkscape:connector-curvature="0" /></clipPath><clipPath
       clipPathUnits="userSpaceOnUse"
       id="clipPath848"><path
         d="m 334.392,325.824 h 7.971 v -16.82 h -7.971 z"
         id="path846"
         inkscape:connector-curvature="0" /></clipPath><clipPath
       clipPathUnits="userSpaceOnUse"
       id="clipPath900"><path
         d="m 354.603,258.202 h 10.356 v -56.405 h -10.356 z"
         id="path898"
         inkscape:connector-curvature="0" /></clipPath></defs><sodipodi:namedview
     pagecolor="#ffffff"
     bordercolor="#666666"
     borderopacity="1"
     objecttolerance="10"
     gridtolerance="10"
     guidetolerance="10"
     inkscape:pageopacity="0"
     inkscape:pageshadow="2"
     inkscape:window-width="1920"
     inkscape:window-height="1017"
     id="namedview4"
     showgrid="false"
     inkscape:zoom="1.416"
     inkscape:cx="326.27119"
     inkscape:cy="361.58193"
     inkscape:window-x="-8"
     inkscape:window-y="-8"
     inkscape:window-maximized="1"
     inkscape:current-layer="g10" /><g
     id="g10"
     inkscape:groupmode="layer"
     inkscape:label="2760424"
     transform="matrix(1.3333333,0,0,-1.3333333,0,666.66667)"><path
       d="m 322.527,98.542 h 8.693 v 0.25 h -8.693 z"
       style="fill:#ececec;fill-opacity:1;fill-rule:nonzero;stroke:none"
       id="path16"
       inkscape:connector-curvature="0" /><path
       d="m 396.586,110.542 h 19.192 v 0.25 h -19.192 z"
       style="fill:#ececec;fill-opacity:1;fill-rule:nonzero;stroke:none"
       id="path18"
       inkscape:connector-curvature="0" /><path
       d="m 104.556,108.861 h 6.333 v 0.25 h -6.333 z"
       style="fill:#ececec;fill-opacity:1;fill-rule:nonzero;stroke:none"
       id="path22"
       inkscape:connector-curvature="0" /><path
       d="m 131.471,104.639 h 93.676 v 0.25 h -93.676 z"
       style="fill:#ececec;fill-opacity:1;fill-rule:nonzero;stroke:none"
       id="path24"
       inkscape:connector-curvature="0" /><g
       id="g26"><g
         id="g28"
         clip-path="url(#clipPath32)"><g
           id="g38"
           transform="translate(260.2119,444.7974)" /><path
           d="m 373.161,325.879 h -14.167 v 44.111 h 14.167 z"
           style="fill:#e7e7e7;fill-opacity:1;fill-rule:nonzero;stroke:none"
           id="path42"
           inkscape:connector-curvature="0" /><g
           id="g44"
           transform="translate(411.5715,325.8788)"><path
             d="m 0,0 h -47.018 l -7.1,51.629 h 47.017 z"
             style="fill:#f0f0f0;fill-opacity:1;fill-rule:nonzero;stroke:none"
             id="path46"
             inkscape:connector-curvature="0" /></g><g
           id="g48"
           transform="translate(416.6639,325.8788)"><path
             d="m 0,0 h -48.566 l -7.1,51.629 h 48.565 z"
             style="fill:#f5f5f5;fill-opacity:1;fill-rule:nonzero;stroke:none"
             id="path50"
             inkscape:connector-curvature="0" /></g><g
           id="g52"
           transform="translate(371.6072,329.9474)"><path
             d="M 0,0 -5.981,43.492 H 34.447 L 40.429,0 Z"
             style="fill:#ffffff;fill-opacity:1;fill-rule:nonzero;stroke:none"
             id="path54"
             inkscape:connector-curvature="0" /></g><g
           id="g56"
           transform="translate(379.5954,343.1156)"><path
             d="m 0,0 -2.245,16.327 c -0.252,1.826 1.168,3.455 3.012,3.455 h 14.691 c 1.519,0 2.806,-1.122 3.013,-2.627 L 20.716,0.829 c 0.251,-1.827 -1.168,-3.456 -3.012,-3.456 H 3.013 C 1.493,-2.627 0.207,-1.505 0,0"
             style="fill:#f5f5f5;fill-opacity:1;fill-rule:nonzero;stroke:none"
             id="path58"
             inkscape:connector-curvature="0" /></g><path
           d="M 284.944,287.663 H 73.156 v 130.654 h 211.788 z"
           style="fill:#e7e7e7;fill-opacity:1;fill-rule:nonzero;stroke:none"
           id="path60"
           inkscape:connector-curvature="0" /><path
           d="M 290.385,287.663 H 75.698 v 130.654 h 214.687 z"
           style="fill:#f0f0f0;fill-opacity:1;fill-rule:nonzero;stroke:none"
           id="path62"
           inkscape:connector-curvature="0" /><path
           d="M 284.944,287.663 H 73.156 v -10.111 h 211.788 z"
           style="fill:#e7e7e7;fill-opacity:1;fill-rule:nonzero;stroke:none"
           id="path64"
           inkscape:connector-curvature="0" /><path
           d="M 299.45,287.663 H 84.763 V 277.552 H 299.45 Z"
           style="fill:#f0f0f0;fill-opacity:1;fill-rule:nonzero;stroke:none"
           id="path66"
           inkscape:connector-curvature="0" /><path
           d="M 83.316,410.7 H 282.768 V 295.281 H 83.316 Z"
           style="fill:#fafafa;fill-opacity:1;fill-rule:nonzero;stroke:none"
           id="path68"
           inkscape:connector-curvature="0" /><g
           id="g70"
           transform="translate(97.958,295.2802)"><path
             d="M 0,0 44.709,115.419 H 65.814 L 21.105,0 Z"
             style="fill:#ffffff;fill-opacity:1;fill-rule:nonzero;stroke:none"
             id="path72"
             inkscape:connector-curvature="0" /></g><g
           id="g74"
           transform="translate(123.597,295.2802)"><path
             d="m 0,0 44.709,115.419 h 8.228 L 8.228,0 Z"
             style="fill:#ffffff;fill-opacity:1;fill-rule:nonzero;stroke:none"
             id="path76"
             inkscape:connector-curvature="0" /></g><g
           id="g78"
           transform="translate(201.818,295.2802)"><path
             d="m 0,0 44.709,115.419 h 8.228 L 8.228,0 Z"
             style="fill:#ffffff;fill-opacity:1;fill-rule:nonzero;stroke:none"
             id="path80"
             inkscape:connector-curvature="0" /></g><path
           d="m 281.8,410.7 h 0.967 V 295.281 H 281.8 Z"
           style="fill:#e7e7e7;fill-opacity:1;fill-rule:nonzero;stroke:none"
           id="path82"
           inkscape:connector-curvature="0" /><path
           d="m 445.502,117.602 h -44.839 v 208.277 h 44.839 z"
           style="fill:#e7e7e7;fill-opacity:1;fill-rule:nonzero;stroke:none"
           id="path84"
           inkscape:connector-curvature="0" /><g
           id="g86"
           transform="translate(440.9922,117.6016)"><path
             d="M 0,0 H 4.51 V 12.829 H -4.729 Z"
             style="fill:#f0f0f0;fill-opacity:1;fill-rule:nonzero;stroke:none"
             id="path88"
             inkscape:connector-curvature="0" /></g><path
           d="M 366.929,117.602 H 322.09 v 208.277 h 44.839 z"
           style="fill:#e7e7e7;fill-opacity:1;fill-rule:nonzero;stroke:none"
           id="path90"
           inkscape:connector-curvature="0" /><path
           d="m 445.502,125.474 h -82.51 v 200.405 h 82.51 z"
           style="fill:#f0f0f0;fill-opacity:1;fill-rule:nonzero;stroke:none"
           id="path92"
           inkscape:connector-curvature="0" /><g
           id="g94"
           transform="translate(367.5027,117.6016)"><path
             d="M 0,0 H -4.51 V 12.829 H 4.729 Z"
             style="fill:#f0f0f0;fill-opacity:1;fill-rule:nonzero;stroke:none"
             id="path96"
             inkscape:connector-curvature="0" /></g><path
           d="m 442.004,227.668 h -75.512 v 94.541 h 75.512 z"
           style="fill:#e7e7e7;fill-opacity:1;fill-rule:nonzero;stroke:none"
           id="path98"
           inkscape:connector-curvature="0" /><g
           id="g100"
           transform="translate(412.4243,314.8518)"><path
             d="m 0,0 h -16.353 c -7.103,0 -13.894,2.921 -18.78,8.077 H 18.779 C 13.894,2.921 7.103,0 0,0"
             style="fill:#f0f0f0;fill-opacity:1;fill-rule:nonzero;stroke:none"
             id="path102"
             inkscape:connector-curvature="0" /></g><path
           d="m 442.004,129.3 h -75.512 v 94.541 h 75.512 z"
           style="fill:#e7e7e7;fill-opacity:1;fill-rule:nonzero;stroke:none"
           id="path104"
           inkscape:connector-curvature="0" /><g
           id="g106"
           transform="translate(412.4243,216.4842)"><path
             d="m 0,0 h -16.353 c -7.103,0 -13.894,2.921 -18.78,8.077 H 18.779 C 13.894,2.921 7.103,0 0,0"
             style="fill:#f0f0f0;fill-opacity:1;fill-rule:nonzero;stroke:none"
             id="path108"
             inkscape:connector-curvature="0" /></g><g
           id="g110"
           transform="translate(129.4987,260.1111)"><path
             d="M 0,0 H 74.624 L 85.44,-44.067 H 10.815 Z"
             style="fill:#e7e7e7;fill-opacity:1;fill-rule:nonzero;stroke:none"
             id="path112"
             inkscape:connector-curvature="0" /></g><g
           id="g114"
           transform="translate(140.3141,216.0446)"><path
             d="M 0,0 0.302,-2.436 H 74.93 L 74.628,0 Z"
             style="fill:#e7e7e7;fill-opacity:1;fill-rule:nonzero;stroke:none"
             id="path116"
             inkscape:connector-curvature="0" /></g><g
           id="g118"
           transform="translate(131.7956,260.1111)"><path
             d="M 0,0 H 74.624 L 85.44,-44.067 H 10.815 Z"
             style="fill:#f0f0f0;fill-opacity:1;fill-rule:nonzero;stroke:none"
             id="path120"
             inkscape:connector-curvature="0" /></g><g
           id="g122"
           transform="translate(144.1894,218.0577)"><path
             d="M 0,0 -9.827,40.04 H 60.651 L 70.479,0 Z"
             style="fill:#ffffff;fill-opacity:1;fill-rule:nonzero;stroke:none"
             id="path124"
             inkscape:connector-curvature="0" /></g><g
           id="g126"
           transform="translate(162.0551,216.0446)"><path
             d="M 0,0 0.302,-2.436 H 82.478 L 82.177,0 Z"
             style="fill:#f0f0f0;fill-opacity:1;fill-rule:nonzero;stroke:none"
             id="path128"
             inkscape:connector-curvature="0" /></g><path
           d="m 263.286,117.612 h -8.942 v 95.997 h 8.942 z"
           style="fill:#e7e7e7;fill-opacity:1;fill-rule:nonzero;stroke:none"
           id="path130"
           inkscape:connector-curvature="0" /><path
           d="m 266.108,117.612 h -6.21 v 95.997 h 6.21 z"
           style="fill:#f0f0f0;fill-opacity:1;fill-rule:nonzero;stroke:none"
           id="path132"
           inkscape:connector-curvature="0" /><path
           d="m 152.825,202.622 h 115.207 v 10.987 H 152.825 Z"
           style="fill:#f0f0f0;fill-opacity:1;fill-rule:nonzero;stroke:none"
           id="path134"
           inkscape:connector-curvature="0" /><path
           d="m 148.821,117.612 h -8.942 v 85.01 h 8.942 z"
           style="fill:#e7e7e7;fill-opacity:1;fill-rule:nonzero;stroke:none"
           id="path136"
           inkscape:connector-curvature="0" /><path
           d="m 151.643,117.612 h -6.21 v 85.01 h 6.21 z"
           style="fill:#f0f0f0;fill-opacity:1;fill-rule:nonzero;stroke:none"
           id="path138"
           inkscape:connector-curvature="0" /><path
           d="m 92.234,117.612 h -8.942 v 85.01 h 8.942 z"
           style="fill:#e7e7e7;fill-opacity:1;fill-rule:nonzero;stroke:none"
           id="path140"
           inkscape:connector-curvature="0" /><path
           d="m 95.056,117.612 h -6.21 v 85.01 h 6.21 z"
           style="fill:#f0f0f0;fill-opacity:1;fill-rule:nonzero;stroke:none"
           id="path142"
           inkscape:connector-curvature="0" /><path
           d="m 206.699,117.612 h -8.942 v 85.01 h 8.942 z"
           style="fill:#e7e7e7;fill-opacity:1;fill-rule:nonzero;stroke:none"
           id="path144"
           inkscape:connector-curvature="0" /><path
           d="m 209.521,117.612 h -6.21 v 85.01 h 6.21 z"
           style="fill:#f0f0f0;fill-opacity:1;fill-rule:nonzero;stroke:none"
           id="path146"
           inkscape:connector-curvature="0" /><path
           d="M 152.825,202.622 H 83.293 v 10.987 h 69.532 z"
           style="fill:#e7e7e7;fill-opacity:1;fill-rule:nonzero;stroke:none"
           id="path148"
           inkscape:connector-curvature="0" /><g
           id="g150"
           transform="translate(292.3423,117.6016)"><path
             d="m 0,0 h -2.177 l -6.216,30.642 -1.093,5.367 -6.782,33.393 H -42.273 L -56.364,0 h -2.177 l 14.358,70.683 c 0.103,0.495 0.535,0.848 1.046,0.848 h 27.741 c 0.503,0 0.944,-0.353 1.038,-0.848 l 5.957,-29.33 1.092,-5.359 z"
             style="fill:#f0f0f0;fill-opacity:1;fill-rule:nonzero;stroke:none"
             id="path152"
             inkscape:connector-curvature="0" /></g><g
           id="g154"
           transform="translate(334.0886,117.6016)"><path
             d="M 0,0 H -2.177 L -16.276,69.402 H -42.273 L -49.055,35.994 -50.14,30.642 -56.364,0 h -2.177 l 7.309,36.009 1.085,5.344 5.957,29.33 c 0.102,0.495 0.542,0.848 1.045,0.848 h 27.742 c 0.51,0 0.943,-0.353 1.045,-0.848 z"
             style="fill:#f0f0f0;fill-opacity:1;fill-rule:nonzero;stroke:none"
             id="path156"
             inkscape:connector-curvature="0" /></g><g
           id="g158"
           transform="translate(269.992,188.07)"><path
             d="m 0,0 h 47.779 c 9.122,0 14.176,6.203 16.754,16.416 l 1.269,5.841 c 1.043,4.799 -0.74,9.892 -4.788,12.674 -1.962,1.348 -4.338,2.137 -6.903,2.137 H 24.159 c -6.206,0 -7.842,-1.476 -12.127,-10.823 C 7.747,16.899 0,0 0,0"
             style="fill:#f0f0f0;fill-opacity:1;fill-rule:nonzero;stroke:none"
             id="path160"
             inkscape:connector-curvature="0" /></g><g
           id="g162"
           transform="translate(249.2931,197.2252)"><path
             d="M 0,0 H 46.758 V -9.155 H -4.158 c -1.318,0 -2.386,1.068 -2.386,2.386 v 0.225 C -6.544,-2.93 -3.614,0 0,0"
             style="fill:#f0f0f0;fill-opacity:1;fill-rule:nonzero;stroke:none"
             id="path164"
             inkscape:connector-curvature="0" /></g></g></g><g
       id="g194"><g
         id="g196"
         clip-path="url(#clipPath200)"><g
           id="g202"
           transform="translate(443.8894,83.762)"><path
             d="m 0,0 c 0,-6.254 -86.807,-11.323 -193.889,-11.323 -107.082,0 -193.889,5.069 -193.889,11.323 0,6.253 86.807,11.323 193.889,11.323 C -86.807,11.323 0,6.253 0,0"
             style="fill:#f5f5f5;fill-opacity:1;fill-rule:nonzero;stroke:none"
             id="path204"
             inkscape:connector-curvature="0" /></g></g></g><g
       id="g206"
       transform="translate(203.0331,115.7491)"><path
         d="M 0,0 -6.399,-4.121 -18,9.372 l 6.399,4.121 z"
         style="fill:#ff8c7b;fill-opacity:1;fill-rule:nonzero;stroke:none"
         id="path208"
         inkscape:connector-curvature="0" /></g><g
       id="g210"><g
         id="g212"
         clip-path="url(#clipPath216)"><g
           id="g218"><g
             id="g220" /><g
             id="g232"><g
               clip-path="url(#clipPath224)"
               id="g230"
               style="opacity:0.19999701"><g
                 transform="translate(191.4365,129.2396)"
                 id="g228"><path
                   d="m 0,0 -6.401,-4.123 5.983,-6.953 6.401,4.123 z"
                   style="fill:#000000;fill-opacity:1;fill-rule:nonzero;stroke:none"
                   id="path226"
                   inkscape:connector-curvature="0" /></g></g></g></g></g></g><g
       id="g234"
       transform="translate(154.1163,93.746)"><path
         d="m 0,0 -7.352,-0.719 -7.65,17.5 7.352,0.718 z"
         style="fill:#ff8c7b;fill-opacity:1;fill-rule:nonzero;stroke:none"
         id="path236"
         inkscape:connector-curvature="0" /></g><g
       id="g238"><g
         id="g240"
         clip-path="url(#clipPath244)"><g
           id="g246"><g
             id="g248" /><g
             id="g260"><g
               clip-path="url(#clipPath252)"
               id="g258"
               style="opacity:0.19999701"><g
                 transform="translate(139.1177,110.5219)"
                 id="g256"><path
                   d="m 0,0 3.942,-9.02 h 7.669 L 7.355,0.719 Z"
                   style="fill:#000000;fill-opacity:1;fill-rule:nonzero;stroke:none"
                   id="path254"
                   inkscape:connector-curvature="0" /></g></g></g></g><g
           id="g262"
           transform="translate(98.2294,329.9932)"><path
             d="m 0,0 c -3.704,-0.337 -3.798,5.944 -10.296,2.986 -8.26,-3.76 -5.475,-9.592 -11.919,-9.344 -6.444,0.247 -10.778,-4.791 -9.333,-8.55 1.444,-3.759 3.666,-7.295 -0.889,-8.804 -4.556,-1.51 -7.667,-2.844 -7,-6.621 0.666,-3.778 3.889,-5.301 -1.556,-7.706 -5.444,-2.405 -4.889,-12.831 0.445,-12.84 5.333,-0.01 0.222,-5.207 5,-10.48 4.777,-5.272 12.05,-6.049 15.08,-3.4 3.031,2.648 6.412,4.759 12.11,0.759 5.699,-4 15.345,-5 14.91,1.333 -0.434,6.334 -5.975,10.5 -0.76,13.806 5.215,3.305 12.008,4.926 9.874,11.343 -1.346,4.049 -5.43,7.482 -2.131,10.479 5.348,4.858 5.375,15.858 -1.182,18.647 C 8.541,-6.771 12.215,1.111 0,0"
             style="fill:#1a2e35;fill-opacity:1;fill-rule:nonzero;stroke:none"
             id="path264"
             inkscape:connector-curvature="0" /></g><g
           id="g266"
           transform="translate(91.1104,280.583)"><path
             d="m 0,0 c -0.176,-2.967 -0.559,-5.676 -1.004,-8.487 -0.467,-2.784 -1.078,-5.546 -1.802,-8.296 -0.719,-2.752 -1.609,-5.48 -2.716,-8.159 -0.542,-1.342 -1.159,-2.67 -1.822,-3.982 -0.331,-0.657 -0.686,-1.307 -1.055,-1.953 -0.176,-0.325 -0.383,-0.641 -0.574,-0.962 l -0.292,-0.478 c -0.165,-0.247 -0.389,-0.599 -0.654,-0.884 -0.507,-0.601 -1.23,-1.132 -1.969,-1.47 -0.753,-0.355 -1.497,-0.495 -2.162,-0.548 -1.332,-0.09 -2.36,0.163 -3.244,0.438 -1.761,0.579 -3.114,1.355 -4.398,2.158 -2.538,1.625 -4.73,3.416 -6.833,5.288 -4.158,3.789 -7.932,7.773 -11.463,12.074 l 2.805,2.644 c 1.995,-1.759 4.033,-3.55 6.098,-5.251 2.045,-1.728 4.129,-3.401 6.254,-4.961 2.108,-1.564 4.255,-3.083 6.403,-4.226 1.058,-0.57 2.15,-1.038 3,-1.233 0.418,-0.105 0.754,-0.088 0.78,-0.068 0.009,0.012 -0.056,0.006 -0.2,-0.042 -0.131,-0.042 -0.282,-0.174 -0.362,-0.243 -0.02,-0.03 -0.036,-0.04 -0.049,-0.05 -0.004,0.004 -0.041,-0.067 -0.008,-0.009 l 0.219,0.405 c 0.142,0.272 0.298,0.531 0.432,0.812 0.279,0.549 0.55,1.107 0.803,1.678 0.507,1.141 0.983,2.306 1.401,3.51 0.843,2.398 1.541,4.883 2.162,7.401 0.613,2.522 1.091,5.094 1.505,7.678 0.428,2.556 0.749,5.246 0.978,7.703 z"
             style="fill:#ff8c7b;fill-opacity:1;fill-rule:nonzero;stroke:none"
             id="path268"
             inkscape:connector-curvature="0" /></g><g
           id="g270"
           transform="translate(96.9219,279.6382)"><path
             d="m 0,0 c -0.4,-2.42 -2.41,-6.99 -4.03,-10.4 -1.18,-2.46 -2.14,-4.31 -2.14,-4.31 l -1.4,0.62 -11.59,5.16 c 0.88,6.25 2.31,13.05 9.2,16.07 C -5.63,9.04 0.71,4.32 0,0"
             style="fill:#007cff;fill-opacity:1;fill-rule:nonzero;stroke:none"
             id="path272"
             inkscape:connector-curvature="0" /></g><g
           id="g274"><g
             id="g276" /><g
             id="g288"><g
               clip-path="url(#clipPath280)"
               id="g286"
               style="opacity:0.60000598"><g
                 transform="translate(96.9219,279.6382)"
                 id="g284"><path
                   d="m 0,0 c -0.4,-2.42 -2.41,-6.99 -4.03,-10.4 -1.18,-2.46 -2.14,-4.31 -2.14,-4.31 l -1.4,0.62 -11.59,5.16 c 0.88,6.25 2.31,13.05 9.2,16.07 C -5.63,9.04 0.71,4.32 0,0"
                   style="fill:#000000;fill-opacity:1;fill-rule:nonzero;stroke:none"
                   id="path282"
                   inkscape:connector-curvature="0" /></g></g></g></g><g
           id="g290"><g
             id="g292" /><g
             id="g304"><g
               clip-path="url(#clipPath296)"
               id="g302"
               style="opacity:0.30000299"><g
                 transform="translate(92.8919,269.2383)"
                 id="g300"><path
                   d="m 0,0 c -1.18,-2.46 -2.14,-4.31 -2.14,-4.31 l -1.4,0.62 c 0.19,2.47 0.68,6.36 2.02,8.11 C -0.69,3.15 -0.23,1.59 0,0"
                   style="fill:#000000;fill-opacity:1;fill-rule:nonzero;stroke:none"
                   id="path298"
                   inkscape:connector-curvature="0" /></g></g></g></g><g
           id="g306"
           transform="translate(54.3707,265.7064)"><path
             d="m 0,0 0.924,6.734 -7.558,-2.48 c 0,0 1.207,-4.075 3.895,-5.743 z"
             style="fill:#ff8c7b;fill-opacity:1;fill-rule:nonzero;stroke:none"
             id="path308"
             inkscape:connector-curvature="0" /></g><g
           id="g310"
           transform="translate(51.8653,278.1876)"><path
             d="m 0,0 -5.268,-2.887 1.14,-5.34 7.557,2.48 z"
             style="fill:#ff8c7b;fill-opacity:1;fill-rule:nonzero;stroke:none"
             id="path312"
             inkscape:connector-curvature="0" /></g><g
           id="g314"
           transform="translate(194.2715,113.6456)"><path
             d="M 0,0 6.948,4.983 C 7.201,5.165 7.532,5.136 7.745,4.915 l 4.735,-4.93 c 0.491,-0.511 0.387,-1.403 -0.203,-1.811 -2.453,-1.696 -3.722,-2.391 -6.778,-4.582 -1.88,-1.348 -5.84,-4.607 -8.436,-6.469 -2.539,-1.821 -4.575,0.606 -3.661,1.614 4.099,4.519 5.188,7.599 5.837,10.141 C -0.644,-0.663 -0.37,-0.265 0,0"
             style="fill:#1a2e35;fill-opacity:1;fill-rule:nonzero;stroke:none"
             id="path316"
             inkscape:connector-curvature="0" /></g><g
           id="g318"
           transform="translate(145.7881,95.2993)"><path
             d="m 0,0 h 9.029 c 0.329,0 0.625,-0.228 0.713,-0.549 l 1.964,-7.144 C 11.909,-8.434 11.364,-9.115 10.604,-9.122 7.422,-9.151 5.914,-9.137 1.943,-9.137 h -12.136 c -3.299,0 -3.989,3.336 -2.624,3.638 6.121,1.355 9.65,3.223 11.538,5.005 C -0.938,-0.173 -0.481,0 0,0"
             style="fill:#1a2e35;fill-opacity:1;fill-rule:nonzero;stroke:none"
             id="path320"
             inkscape:connector-curvature="0" /></g><g
           id="g322"
           transform="translate(132.0519,252.5383)"><path
             d="m 0,0 c -5.69,-1.8 -17.78,-5.62 -29.47,-9.32 -20.4,40.38 -17.49,42.52 -17.49,42.52 0,0 4.71,2.69 9.61,4.93 0.74,0.34 1.49,0.67 2.23,0.98 4.24,1.78 8.35,2.91 13.38,4.24 0.67,0.18 1.34,0.34 2.01,0.5 5.73,1.32 11.03,1.81 11.03,1.81 0.44,-5.59 0.88,-10.32 1.36,-14.43 0.62,-5.36 1.29,-9.65 2.04,-13.36 C -3.89,10.97 -2.2,6.07 0,0"
             style="fill:#007cff;fill-opacity:1;fill-rule:nonzero;stroke:none"
             id="path324"
             inkscape:connector-curvature="0" /></g><g
           id="g326"><g
             id="g328" /><g
             id="g340"><g
               clip-path="url(#clipPath332)"
               id="g338"
               style="opacity:0.60000598"><g
                 transform="translate(132.0519,252.5383)"
                 id="g336"><path
                   d="m 0,0 c -5.69,-1.8 -17.78,-5.62 -29.47,-9.32 -20.4,40.38 -17.49,42.52 -17.49,42.52 0,0 4.71,2.69 9.61,4.93 0.74,0.34 1.49,0.67 2.23,0.98 4.24,1.78 8.35,2.91 13.38,4.24 0.67,0.18 1.34,0.34 2.01,0.5 5.73,1.32 11.03,1.81 11.03,1.81 0.44,-5.59 0.88,-10.32 1.36,-14.43 0.62,-5.36 1.29,-9.65 2.04,-13.36 C -3.89,10.97 -2.2,6.07 0,0"
                   style="fill:#000000;fill-opacity:1;fill-rule:nonzero;stroke:none"
                   id="path334"
                   inkscape:connector-curvature="0" /></g></g></g></g><g
           id="g342"><g
             id="g344" /><g
             id="g356"><g
               clip-path="url(#clipPath348)"
               id="g354"
               style="opacity:0.30000299"><g
                 transform="translate(126.7519,270.4082)"
                 id="g352"><path
                   d="m 0,0 c -2.83,4.02 -5.54,13.31 -4.84,16.8 l 2.8,-3.44 C -1.42,8 -0.75,3.71 0,0"
                   style="fill:#000000;fill-opacity:1;fill-rule:nonzero;stroke:none"
                   id="path350"
                   inkscape:connector-curvature="0" /></g></g></g></g><g
           id="g358"
           transform="translate(103.6252,278.1987)"><path
             d="m 0,0 c 0,0 7.437,1.608 9.826,-1.614 3.278,3.222 2.122,15.845 0.538,20.345 C 9.114,18.62 6.691,17.689 6.691,17.689 L 1.445,9.572 Z"
             style="fill:#ffffff;fill-opacity:1;fill-rule:nonzero;stroke:none"
             id="path360"
             inkscape:connector-curvature="0" /></g><g
           id="g362"
           transform="translate(103.6252,278.1987)"><path
             d="m 0,0 c 0,0 -5.027,-1.122 -5.527,-5.206 -6.976,5.206 -6.511,12.838 -4.927,17.338 1.139,0.694 3.761,1.318 3.761,1.318 l 5.248,-5.774 z"
             style="fill:#ffffff;fill-opacity:1;fill-rule:nonzero;stroke:none"
             id="path364"
             inkscape:connector-curvature="0" /></g><g
           id="g366"
           transform="translate(105.3425,304.4063)"><path
             d="m 0,0 c 0.955,-3.677 2.521,-7.318 4.974,-8.519 0,0 2.309,-6.616 -6.691,-17.689 -9.419,6.712 -6.692,13.455 -6.692,13.455 4.439,2.665 3.188,6.189 1.293,9.27 l 2.612,4.187 C -3.348,2.558 -0.549,2.115 0,0"
             style="fill:#ff8c7b;fill-opacity:1;fill-rule:nonzero;stroke:none"
             id="path368"
             inkscape:connector-curvature="0" /></g><g
           id="g370"><g
             id="g372" /><g
             id="g384"><g
               clip-path="url(#clipPath376)"
               id="g382"
               style="opacity:0.19999701"><g
                 transform="translate(105.3443,304.4102)"
                 id="g380"><path
                   d="m 0,0 c -0.55,2.11 -3.35,2.55 -4.51,0.7 l -0.84,-1.34 v -0.01 c 0.07,-0.89 0.11,-1.62 0.1,-2 -0.08,-2.6 3.57,-2.48 6.54,-1.23 C 0.77,-2.67 0.34,-1.34 0,0"
                   style="fill:#000000;fill-opacity:1;fill-rule:nonzero;stroke:none"
                   id="path378"
                   inkscape:connector-curvature="0" /></g></g></g></g><g
           id="g386"
           transform="translate(87.2515,314.4639)"><path
             d="m 0,0 c 2.595,-7.094 3.542,-10.152 8.296,-12.774 7.151,-3.945 15.296,0.794 14.873,8.52 C 22.788,2.701 18.608,13.133 10.679,13.903 2.867,14.662 -2.595,7.094 0,0"
             style="fill:#ff8c7b;fill-opacity:1;fill-rule:nonzero;stroke:none"
             id="path388"
             inkscape:connector-curvature="0" /></g><g
           id="g390"
           transform="translate(99.3394,323.0371)"><path
             d="M 0,0 C 1.943,0.583 3.819,1.155 5.197,1.389 4.591,0.609 2.807,-0.621 0,0 M 6.297,2.082 C 3.863,4.435 1.318,7.165 -3.6,6.632 -9.023,6.044 -11.161,2.765 -11.161,2.765 l -4.661,-10.19 c 0,0 2.892,-13.121 7.664,-6.99 2.744,3.526 2.857,8.874 1.786,12.877 1.525,0.145 3.522,0.692 5.521,1.284 2.197,-0.822 4.669,-0.826 6.5,0.858 0.399,0.367 0.693,0.657 0.902,0.885 l 0.165,0.193 c 0.574,0.692 0.12,0.617 -0.419,0.4"
             style="fill:#1a2e35;fill-opacity:1;fill-rule:nonzero;stroke:none"
             id="path392"
             inkscape:connector-curvature="0" /></g><g
           id="g394"
           transform="translate(87.6141,307.2548)"><path
             d="m 0,0 c 0.783,-1.356 2.119,-2.225 3.367,-2.538 1.877,-0.471 2.765,1.22 2.2,2.965 C 5.059,1.998 3.47,4.136 1.606,3.833 -0.23,3.534 -0.895,1.551 0,0"
             style="fill:#ff8c7b;fill-opacity:1;fill-rule:nonzero;stroke:none"
             id="path396"
             inkscape:connector-curvature="0" /></g><g
           id="g398"
           transform="translate(102.5802,243.2134)"><path
             d="m 0,0 c 0,0 -1.039,-60.398 6.892,-82.217 7.603,-20.919 30.269,-56.88 30.269,-56.88 l 13.136,0.338 c 0,0 -20.868,45.529 -24.291,63.542 -5.677,29.871 -4.425,82.045 -4.425,82.045 z"
             style="fill:#007cff;fill-opacity:1;fill-rule:nonzero;stroke:none"
             id="path400"
             inkscape:connector-curvature="0" /></g><g
           id="g402"><g
             id="g404" /><g
             id="g416"><g
               clip-path="url(#clipPath408)"
               id="g414"
               style="opacity:0.30000299"><g
                 transform="translate(114.3804,238.0493)"
                 id="g412"><path
                   d="m 0,0 3.53,10.01 6.25,1.98 c 0,0 -0.57,-23.73 0.8,-48.34 C 4.913,-25.47 -0.001,-5.47 0,0"
                   style="fill:#000000;fill-opacity:1;fill-rule:nonzero;stroke:none"
                   id="path410"
                   inkscape:connector-curvature="0" /></g></g></g></g><g
           id="g418"
           transform="translate(137.8895,103.4362)"><path
             d="M 0,0 16.227,0.414 15.288,5.4 -2.429,4.56 Z"
             style="fill:#1a2e35;fill-opacity:1;fill-rule:nonzero;stroke:none"
             id="path420"
             inkscape:connector-curvature="0" /></g><g
           id="g422"
           transform="translate(109.0438,245.1626)"><path
             d="m 0,0 c 0,0 20.494,-46.896 33.744,-73.583 10.703,-21.556 44.002,-50.48 44.002,-50.48 l 9.125,6.333 c 0,0 -25.051,34.255 -32.441,48.873 C 30.779,-22.07 36.61,-2.791 23.008,7.375 Z"
             style="fill:#007cff;fill-opacity:1;fill-rule:nonzero;stroke:none"
             id="path424"
             inkscape:connector-curvature="0" /></g><g
           id="g426"
           transform="translate(187.2897,118.078)"><path
             d="M 0,0 10.722,7.628 8.287,12.311 -3.492,3.399 Z"
             style="fill:#1a2e35;fill-opacity:1;fill-rule:nonzero;stroke:none"
             id="path428"
             inkscape:connector-curvature="0" /></g><g
           id="g430"
           transform="translate(131.946,254.4068)"><path
             d="M 0,0 2.164,-2.218 C 2.331,-2.39 2.155,-2.675 1.814,-2.783 l -30.907,-9.778 c -0.266,-0.084 -0.527,-0.024 -0.597,0.138 l -1.1,2.554 c -0.077,0.177 0.105,0.404 0.396,0.496 L -0.55,0.069 C -0.331,0.139 -0.108,0.111 0,0"
             style="fill:#1a2e35;fill-opacity:1;fill-rule:nonzero;stroke:none"
             id="path432"
             inkscape:connector-curvature="0" /></g><g
           id="g434"
           transform="translate(128.9936,249.8016)"><path
             d="m 0,0 0.799,0.253 c 0.159,0.05 0.255,0.171 0.212,0.268 l -1.459,3.308 c -0.043,0.097 -0.208,0.135 -0.367,0.085 l -0.8,-0.253 C -1.774,3.611 -1.869,3.49 -1.826,3.393 L -0.367,0.085 C -0.324,-0.012 -0.159,-0.05 0,0"
             style="fill:#007cff;fill-opacity:1;fill-rule:nonzero;stroke:none"
             id="path436"
             inkscape:connector-curvature="0" /></g><g
           id="g438"
           transform="translate(105.1895,242.2704)"><path
             d="m 0,0 0.799,0.253 c 0.159,0.05 0.255,0.171 0.212,0.268 l -1.459,3.308 c -0.043,0.097 -0.208,0.135 -0.367,0.085 l -0.8,-0.253 C -1.774,3.611 -1.869,3.49 -1.826,3.393 L -0.367,0.084 C -0.324,-0.012 -0.159,-0.05 0,0"
             style="fill:#007cff;fill-opacity:1;fill-rule:nonzero;stroke:none"
             id="path440"
             inkscape:connector-curvature="0" /></g><g
           id="g442"
           transform="translate(117.0915,246.036)"><path
             d="m 0,0 0.799,0.253 c 0.159,0.05 0.255,0.171 0.212,0.268 l -1.459,3.308 c -0.043,0.097 -0.208,0.135 -0.367,0.085 l -0.8,-0.253 C -1.774,3.611 -1.869,3.49 -1.826,3.393 L -0.367,0.084 C -0.324,-0.012 -0.159,-0.05 0,0"
             style="fill:#007cff;fill-opacity:1;fill-rule:nonzero;stroke:none"
             id="path444"
             inkscape:connector-curvature="0" /></g><g
           id="g446"
           transform="translate(99.6919,316.0187)"><path
             d="M 0,0 C 0.175,-0.588 0.629,-0.973 1.014,-0.858 1.398,-0.744 1.568,-0.174 1.393,0.415 1.218,1.003 0.764,1.387 0.379,1.273 -0.005,1.158 -0.175,0.588 0,0"
             style="fill:#1a2e35;fill-opacity:1;fill-rule:nonzero;stroke:none"
             id="path448"
             inkscape:connector-curvature="0" /></g><g
           id="g450"
           transform="translate(106.3424,317.9987)"><path
             d="M 0,0 C 0.175,-0.588 0.629,-0.973 1.014,-0.858 1.398,-0.744 1.568,-0.174 1.393,0.415 1.218,1.003 0.764,1.387 0.379,1.273 -0.005,1.158 -0.175,0.588 0,0"
             style="fill:#1a2e35;fill-opacity:1;fill-rule:nonzero;stroke:none"
             id="path452"
             inkscape:connector-curvature="0" /></g><g
           id="g454"
           transform="translate(106.5615,319.1882)"><path
             d="M 0,0 1.292,0.828 C 1.292,0.828 0.895,-0.492 0,0"
             style="fill:#1a2e35;fill-opacity:1;fill-rule:nonzero;stroke:none"
             id="path456"
             inkscape:connector-curvature="0" /></g><g
           id="g458"
           transform="translate(104.6846,316.4738)"><path
             d="M 0,0 C 0,0 1.753,-2.236 3.215,-3.131 2.655,-4.087 1.235,-4.149 1.235,-4.149 Z"
             style="fill:#ff5551;fill-opacity:1;fill-rule:nonzero;stroke:none"
             id="path460"
             inkscape:connector-curvature="0" /></g><g
           id="g462"
           transform="translate(103.9248,309.1041)"><path
             d="M 0,0 C 0.054,0.045 0.079,0.119 0.058,0.19 0.03,0.286 -0.071,0.34 -0.166,0.312 -2.741,-0.455 -4.492,0.988 -4.509,1.003 -4.585,1.067 -4.701,1.055 -4.763,0.981 -4.827,0.905 -4.818,0.792 -4.742,0.728 -4.666,0.662 -2.832,-0.858 -0.063,-0.034 -0.039,-0.027 -0.018,-0.015 0,0"
             style="fill:#1a2e35;fill-opacity:1;fill-rule:nonzero;stroke:none"
             id="path464"
             inkscape:connector-curvature="0" /></g><g
           id="g466"
           transform="translate(97.1761,317.6345)"><path
             d="M 0,0 C 0.047,0.039 0.085,0.09 0.108,0.152 0.671,1.657 1.965,1.961 1.978,1.964 2.171,2.007 2.295,2.2 2.251,2.395 2.208,2.589 2.015,2.711 1.821,2.668 1.752,2.653 0.132,2.273 -0.568,0.404 -0.637,0.218 -0.543,0.01 -0.356,-0.06 -0.231,-0.107 -0.096,-0.079 0,0"
             style="fill:#1a2e35;fill-opacity:1;fill-rule:nonzero;stroke:none"
             id="path468"
             inkscape:connector-curvature="0" /></g><g
           id="g470"
           transform="translate(108.3663,321.7702)"><path
             d="m 0,0 c 0.008,0.021 0.015,0.042 0.019,0.065 0.038,0.195 -0.09,0.384 -0.286,0.422 -1.959,0.377 -3.128,-0.807 -3.177,-0.858 -0.139,-0.143 -0.134,-0.371 0.009,-0.509 0.143,-0.138 0.37,-0.134 0.509,0.008 0.043,0.044 0.964,0.951 2.523,0.651 C -0.23,-0.254 -0.062,-0.158 0,0"
             style="fill:#1a2e35;fill-opacity:1;fill-rule:nonzero;stroke:none"
             id="path472"
             inkscape:connector-curvature="0" /></g><g
           id="g474"
           transform="translate(127.8291,291.1431)"><path
             d="m 0,0 c 1.191,-0.895 2.192,-1.724 3.234,-2.627 1.024,-0.893 2.031,-1.801 3.016,-2.731 1.953,-1.881 3.827,-3.844 5.606,-5.91 1.788,-2.058 3.455,-4.233 4.989,-6.528 0.397,-0.56 0.747,-1.165 1.121,-1.746 0.372,-0.582 0.737,-1.171 1.07,-1.787 0.344,-0.625 0.676,-1.177 1.028,-1.861 l 0.53,-1.11 0.43,-1.12 c 1.039,-3.005 1.275,-5.964 1.274,-8.799 -0.057,-2.837 -0.365,-5.585 -0.889,-8.26 -0.518,-2.675 -1.194,-5.283 -1.971,-7.848 -0.834,-2.56 -1.699,-5.042 -2.822,-7.545 L 13,-56.536 c 0.62,2.402 1.212,4.924 1.654,7.408 0.479,2.486 0.854,4.982 1.072,7.46 0.213,2.477 0.319,4.933 0.164,7.302 -0.079,1.178 -0.214,2.333 -0.424,3.439 -0.223,1.098 -0.537,2.135 -0.91,3.084 l -0.301,0.689 -0.346,0.635 c -0.265,0.46 -0.634,1.007 -0.944,1.506 -0.313,0.515 -0.661,1.014 -1.018,1.51 -0.36,0.494 -0.686,1.003 -1.07,1.484 -1.459,1.965 -3.102,3.818 -4.748,5.668 -1.662,1.84 -3.44,3.593 -5.267,5.29 -0.904,0.858 -1.829,1.695 -2.765,2.515 -0.929,0.796 -1.922,1.641 -2.789,2.338 z"
             style="fill:#ff8c7b;fill-opacity:1;fill-rule:nonzero;stroke:none"
             id="path476"
             inkscape:connector-curvature="0" /></g><g
           id="g478"
           transform="translate(141.9204,237.0016)"><path
             d="m 0,0 -5.477,-4.025 7.041,-3.699 c 0,0 2.086,3.703 1.411,6.794 z"
             style="fill:#ff8c7b;fill-opacity:1;fill-rule:nonzero;stroke:none"
             id="path480"
             inkscape:connector-curvature="0" /></g><g
           id="g482"
           transform="translate(134.7048,226.5139)"><path
             d="M 0,0 5.74,-1.771 8.78,2.764 1.738,6.463 Z"
             style="fill:#ff8c7b;fill-opacity:1;fill-rule:nonzero;stroke:none"
             id="path484"
             inkscape:connector-curvature="0" /></g><g
           id="g486"
           transform="translate(123.3531,298.198)"><path
             d="M 0,0 C 3.83,0.173 11.357,-9.239 11.357,-9.239 L 3.541,-20.295 c 0,0 -8.781,6.982 -9.461,11.871 C -6.498,-4.274 -4.878,-0.22 0,0"
             style="fill:#007cff;fill-opacity:1;fill-rule:nonzero;stroke:none"
             id="path488"
             inkscape:connector-curvature="0" /></g><g
           id="g490"><g
             id="g492" /><g
             id="g504"><g
               clip-path="url(#clipPath496)"
               id="g502"
               style="opacity:0.60000598"><g
                 transform="translate(123.3531,298.198)"
                 id="g500"><path
                   d="M 0,0 C 3.83,0.173 11.357,-9.239 11.357,-9.239 L 3.541,-20.295 c 0,0 -8.781,6.982 -9.461,11.871 C -6.498,-4.274 -4.878,-0.22 0,0"
                   style="fill:#000000;fill-opacity:1;fill-rule:nonzero;stroke:none"
                   id="path498"
                   inkscape:connector-curvature="0" /></g></g></g></g><g
           id="g506"
           transform="translate(193.8387,112.3519)"><path
             d="m 0,0 c -1.097,-0.086 -2.556,-0.34 -2.812,-0.783 -0.032,-0.056 -0.06,-0.137 0.011,-0.273 0.132,-0.253 0.304,-0.388 0.524,-0.414 C -1.759,-1.532 -0.922,-0.987 0,0 m -2.196,-1.835 c -0.042,0 -0.083,0.002 -0.123,0.007 -0.343,0.041 -0.612,0.244 -0.801,0.605 -0.142,0.272 -0.081,0.487 -0.004,0.62 0.486,0.842 3.234,0.977 3.545,0.99 C 0.494,0.39 0.56,0.349 0.591,0.284 0.622,0.22 0.612,0.142 0.565,0.088 -0.072,-0.644 -1.254,-1.835 -2.196,-1.835"
             style="fill:#007cff;fill-opacity:1;fill-rule:nonzero;stroke:none"
             id="path508"
             inkscape:connector-curvature="0" /></g><g
           id="g510"
           transform="translate(191.8629,114.2722)"><path
             d="M 0,0 C -0.155,0 -0.288,-0.053 -0.404,-0.16 -0.575,-0.317 -0.556,-0.428 -0.52,-0.508 -0.3,-0.993 1.12,-1.493 2.045,-1.541 1.586,-0.972 0.73,-0.071 0.075,-0.004 0.05,-0.001 0.024,0 0,0 m 2.222,-1.903 c -0.924,0 -2.736,0.508 -3.07,1.247 -0.069,0.152 -0.135,0.454 0.2,0.762 0.212,0.195 0.467,0.279 0.76,0.249 1.1,-0.114 2.385,-1.888 2.439,-1.964 0.037,-0.052 0.044,-0.12 0.018,-0.178 C 2.543,-1.846 2.488,-1.886 2.424,-1.893 2.363,-1.9 2.295,-1.903 2.222,-1.903"
             style="fill:#007cff;fill-opacity:1;fill-rule:nonzero;stroke:none"
             id="path512"
             inkscape:connector-curvature="0" /></g><g
           id="g514"
           transform="translate(140.3453,95.3665)"><path
             d="m 0,0 c -0.155,0 -0.276,-0.024 -0.354,-0.076 -0.038,-0.026 -0.075,-0.066 -0.069,-0.172 0.015,-0.254 0.118,-0.451 0.316,-0.6 C 0.422,-1.249 1.67,-1.302 3.286,-1.003 2.176,-0.52 0.725,0 0,0 m 1.438,-1.558 c -0.698,0 -1.348,0.108 -1.763,0.422 -0.283,0.214 -0.437,0.506 -0.458,0.867 C -0.798,0 -0.668,0.147 -0.556,0.222 0.264,0.776 3.337,-0.62 3.946,-0.905 4.015,-0.938 4.057,-1.012 4.048,-1.088 4.04,-1.165 3.983,-1.228 3.908,-1.244 3.253,-1.39 2.308,-1.558 1.438,-1.558"
             style="fill:#007cff;fill-opacity:1;fill-rule:nonzero;stroke:none"
             id="path516"
             inkscape:connector-curvature="0" /></g><g
           id="g518"
           transform="translate(141.9689,97.173)"><path
             d="M 0,0 C -0.04,0 -0.081,-0.002 -0.122,-0.007 -0.311,-0.03 -0.413,-0.086 -0.425,-0.174 -0.491,-0.668 0.929,-1.97 1.967,-2.54 1.73,-1.753 1.081,0 0,0 m 2.245,-3.055 c -0.023,0 -0.046,0.004 -0.068,0.013 -1.019,0.417 -3.074,2.065 -2.959,2.916 0.025,0.187 0.153,0.421 0.617,0.477 C 1.632,0.563 2.389,-2.696 2.421,-2.835 2.436,-2.901 2.413,-2.969 2.362,-3.013 2.329,-3.041 2.287,-3.055 2.245,-3.055"
             style="fill:#007cff;fill-opacity:1;fill-rule:nonzero;stroke:none"
             id="path520"
             inkscape:connector-curvature="0" /></g><g
           id="g522"
           transform="translate(99.9109,317.2082)"><path
             d="M 0,0 1.292,0.828 C 1.292,0.828 0.895,-0.492 0,0"
             style="fill:#1a2e35;fill-opacity:1;fill-rule:nonzero;stroke:none"
             id="path524"
             inkscape:connector-curvature="0" /></g></g></g><g
       clip-path="url(#clipPath532)"
       id="g528"><g
         transform="translate(288.6295,390.3333)"
         id="g534"><path
           inkscape:connector-curvature="0"
           id="path536"
           style="fill:#000000;fill-opacity:1;fill-rule:nonzero;stroke:none"
           d="m 0,0 h -145.333 c -6.6,0 -11.74,-5.4 -11.422,-12 l 13.623,-282.571 c 0.318,-6.6 5.978,-12 12.578,-12 H 14.78 c 6.6,0 11.739,5.4 11.421,12 L 12.579,-12 C 12.26,-5.4 6.6,0 0,0" /></g><g
         transform="translate(293.9629,390.3333)"
         id="g538"><path
           inkscape:connector-curvature="0"
           id="path540"
           style="fill:#1a2e35;fill-opacity:1;fill-rule:nonzero;stroke:none"
           d="m 0,0 h -145.333 c -6.6,0 -11.74,-5.4 -11.422,-12 l 13.623,-282.571 c 0.318,-6.6 5.978,-12 12.578,-12 H 14.78 c 6.6,0 11.739,5.4 11.421,12 L 12.578,-12 C 12.26,-5.4 6.6,0 0,0" /></g><g
         transform="translate(163.0236,91.762)"
         id="g542"><path
           inkscape:connector-curvature="0"
           id="path544"
           style="fill:#007cff;fill-opacity:1;fill-rule:nonzero;stroke:none"
           d="m 0,0 c -2.168,0 -4.088,1.832 -4.193,4 l -13.623,282.571 c -0.104,2.169 1.639,4 3.808,4 h 145.333 c 2.168,0 4.088,-1.831 4.193,-4 L 149.14,4 c 0.105,-2.168 -1.639,-4 -3.807,-4 z" /></g><g
         id="g546"><g
           id="g548" /><g
           id="g560"><g
             style="opacity:0.10000598"
             id="g558"
             clip-path="url(#clipPath552)"><g
               id="g556"
               transform="translate(162.9272,93.762)"><path
                 inkscape:connector-curvature="0"
                 id="path554"
                 style="fill:#000000;fill-opacity:1;fill-rule:nonzero;stroke:none"
                 d="m 0,0 c -1.065,0 -2.045,0.935 -2.096,2 l -13.623,282.571 c -0.051,1.066 0.838,2 1.903,2 h 145.334 c 1.065,0 2.045,-0.934 2.096,-2 L 147.237,2 c 0.051,-1.065 -0.838,-2 -1.904,-2 z" /></g></g></g></g><g
         id="g562"><g
           id="g564" /><g
           id="g600"><g
             style="opacity:0.30000299"
             id="g598"
             clip-path="url(#clipPath568)"><g
               id="g572"
               transform="translate(175.6143,158.6719)"><path
                 inkscape:connector-curvature="0"
                 id="path570"
                 style="fill:#fafafa;fill-opacity:1;fill-rule:nonzero;stroke:none"
                 d="m 0,0 c -0.518,0 -0.994,-0.2 -1.34,-0.564 -0.348,-0.364 -0.525,-0.851 -0.5,-1.37 l 2.107,-43.714 c 0.053,-1.093 0.985,-1.982 2.077,-1.982 h 28.833 c 0.518,0 0.994,0.2 1.341,0.564 0.347,0.364 0.524,0.851 0.499,1.37 L 30.91,-1.982 C 30.857,-0.889 29.925,0 28.833,0 Z M 31.177,-48.63 H 2.344 c -1.618,0 -2.998,1.316 -3.076,2.934 l -2.107,43.714 c -0.038,0.795 0.237,1.544 0.775,2.108 C -1.527,0.69 -0.794,1 0,1 h 28.833 c 1.618,0 2.998,-1.316 3.076,-2.934 l 2.107,-43.714 c 0.038,-0.795 -0.237,-1.544 -0.774,-2.108 -0.538,-0.564 -1.271,-0.874 -2.065,-0.874" /></g><g
               id="g576"
               transform="translate(204.0747,148.4808)"><path
                 inkscape:connector-curvature="0"
                 id="path574"
                 style="fill:#fafafa;fill-opacity:1;fill-rule:nonzero;stroke:none"
                 d="m 0,0 h -27.105 c -0.277,0 -0.5,0.224 -0.5,0.5 0,0.276 0.223,0.5 0.5,0.5 H 0 C 0.276,1 0.5,0.776 0.5,0.5 0.5,0.224 0.276,0 0,0" /></g><g
               id="g580"
               transform="translate(204.347,142.8312)"><path
                 inkscape:connector-curvature="0"
                 id="path578"
                 style="fill:#fafafa;fill-opacity:1;fill-rule:nonzero;stroke:none"
                 d="m 0,0 h -27.105 c -0.277,0 -0.5,0.224 -0.5,0.5 0,0.276 0.223,0.5 0.5,0.5 H 0 C 0.276,1 0.5,0.776 0.5,0.5 0.5,0.224 0.276,0 0,0" /></g><g
               id="g584"
               transform="translate(204.6194,137.1816)"><path
                 inkscape:connector-curvature="0"
                 id="path582"
                 style="fill:#fafafa;fill-opacity:1;fill-rule:nonzero;stroke:none"
                 d="m 0,0 h -27.105 c -0.277,0 -0.5,0.224 -0.5,0.5 0,0.276 0.223,0.5 0.5,0.5 H 0 C 0.276,1 0.5,0.776 0.5,0.5 0.5,0.224 0.276,0 0,0" /></g><g
               id="g588"
               transform="translate(204.8918,131.532)"><path
                 inkscape:connector-curvature="0"
                 id="path586"
                 style="fill:#fafafa;fill-opacity:1;fill-rule:nonzero;stroke:none"
                 d="m 0,0 h -27.105 c -0.277,0 -0.5,0.224 -0.5,0.5 0,0.276 0.223,0.5 0.5,0.5 H 0 C 0.276,1 0.5,0.776 0.5,0.5 0.5,0.224 0.276,0 0,0" /></g><g
               id="g592"
               transform="translate(205.1641,125.8825)"><path
                 inkscape:connector-curvature="0"
                 id="path590"
                 style="fill:#fafafa;fill-opacity:1;fill-rule:nonzero;stroke:none"
                 d="m 0,0 h -27.105 c -0.277,0 -0.5,0.224 -0.5,0.5 0,0.276 0.223,0.5 0.5,0.5 H 0 C 0.276,1 0.5,0.776 0.5,0.5 0.5,0.224 0.276,0 0,0" /></g><g
               id="g596"
               transform="translate(199.878,120.2329)"><path
                 inkscape:connector-curvature="0"
                 id="path594"
                 style="fill:#fafafa;fill-opacity:1;fill-rule:nonzero;stroke:none"
                 d="m 0,0 h -21.547 c -0.276,0 -0.5,0.224 -0.5,0.5 0,0.276 0.224,0.5 0.5,0.5 H 0 C 0.276,1 0.5,0.776 0.5,0.5 0.5,0.224 0.276,0 0,0" /></g></g></g></g><g
         id="g618"><g
           id="g620" /><g
           id="g632"><g
             style="opacity:0.19999701"
             id="g630"
             clip-path="url(#clipPath624)"><g
               id="g628"
               transform="translate(277.1993,353.4448)"><path
                 inkscape:connector-curvature="0"
                 id="path626"
                 style="fill:#000000;fill-opacity:1;fill-rule:nonzero;stroke:none"
                 d="m 0,0 h -98.965 l 9.647,-200.112 c 0.813,-16.867 15.147,-30.542 32.015,-30.542 H 41.662 L 32.014,-30.542 C 31.201,-13.674 16.868,0 0,0" /></g></g></g></g><g
         transform="translate(301.449,353.4447)"
         id="g634"><path
           inkscape:connector-curvature="0"
           id="path636"
           style="fill:#fafafa;fill-opacity:1;fill-rule:nonzero;stroke:none"
           d="m 0,0 h -92.673 -30.542 c 16.868,0 31.201,-13.674 32.014,-30.542 l 7.853,-162.889 c 0.813,-16.868 15.147,-30.543 32.014,-30.543 h 62.132 c 16.868,0 29.882,13.675 29.069,30.543 L 32.014,-30.542 C 31.201,-13.674 16.868,0 0,0" /></g><g
         transform="translate(279.1849,160.0134)"
         id="g638"><path
           inkscape:connector-curvature="0"
           id="path640"
           style="fill:#e7e7e7;fill-opacity:1;fill-rule:nonzero;stroke:none"
           d="M 0,0 C 0.813,-16.868 -12.202,-30.542 -29.07,-30.542 H 1.472 94.145 c 16.868,0 29.883,13.674 29.07,30.542 z" /></g><g
         transform="matrix(1,0,0,2.2833197,318.8007,246.50703)"
         id="g642"><path
           inkscape:connector-curvature="0"
           id="path644"
           style="fill:#007cff;fill-opacity:1;fill-rule:nonzero;stroke:none"
           d="m 0,0 h -87.085 c -1.249,0 -2.32,1.021 -2.38,2.27 v 0 c -0.06,1.248 0.912,2.27 2.161,2.27 H -0.219 C 1.03,4.54 2.1,3.518 2.161,2.27 v 0 C 2.221,1.021 1.248,0 0,0" /></g><g
         transform="matrix(0.67482288,0,0,2.7499814,319.39562,204.64463)"
         id="g658"><path
           inkscape:connector-curvature="0"
           id="path660"
           style="fill:#007cff;fill-opacity:1;fill-rule:nonzero;stroke:none"
           d="m 0,0 h -52.464 c -1.248,0 -2.319,1.021 -2.379,2.27 -0.061,1.248 0.912,2.27 2.16,2.27 H -0.219 C 1.03,4.54 2.1,3.518 2.161,2.27 2.221,1.021 1.248,0 0,0" /></g><g
         transform="translate(300.2554,301.2937)"
         id="g662"><path
           inkscape:connector-curvature="0"
           id="path664"
           style="fill:#007cff;fill-opacity:1;fill-rule:nonzero;stroke:none"
           d="m 0,0 c 0.728,-15.109 -10.93,-27.358 -26.039,-27.358 -15.109,0 -27.948,12.249 -28.677,27.358 -0.728,15.109 10.93,27.358 26.039,27.358 C -13.567,27.358 -0.728,15.109 0,0" /></g><g
         transform="translate(295.4761,301.2964)"
         id="g666"><path
           inkscape:connector-curvature="0"
           id="path668"
           style="fill:#ffffff;fill-opacity:1;fill-rule:nonzero;stroke:none"
           d="m 0,0 c 0.188,-3.9 -0.625,-7.56 -2.21,-10.755 -3.469,-7.037 -10.697,-11.824 -19.28,-11.824 -8.584,0 -16.273,4.787 -20.421,11.824 C -43.804,-7.56 -44.97,-3.9 -45.158,0 -45.759,12.472 -36.139,22.579 -23.667,22.579 -11.196,22.579 -0.601,12.472 0,0" /></g><g
         id="g670"><g
           id="g672" /><g
           id="g684"><g
             style="opacity:0.39999402"
             id="g682"
             clip-path="url(#clipPath676)"><g
               id="g680"
               transform="translate(293.266,290.5414)"><path
                 inkscape:connector-curvature="0"
                 id="path678"
                 style="fill:#007cff;fill-opacity:1;fill-rule:nonzero;stroke:none"
                 d="m 0,0 c -3.469,-7.037 -10.697,-11.824 -19.28,-11.824 -8.584,0 -16.273,4.787 -20.421,11.824 5.502,3.797 12.216,6.014 19.561,6.014 C -12.796,6.014 -5.868,3.797 0,0" /></g></g></g></g><g
         id="g686"><g
           id="g688" /><g
           id="g700"><g
             style="opacity:0.39999402"
             id="g698"
             clip-path="url(#clipPath692)"><g
               id="g696"
               transform="translate(282.5827,309.0212)"><path
                 inkscape:connector-curvature="0"
                 id="path694"
                 style="fill:#007cff;fill-opacity:1;fill-rule:nonzero;stroke:none"
                 d="m 0,0 c 0.268,-5.555 -4.018,-10.058 -9.573,-10.058 -5.554,0 -10.275,4.503 -10.542,10.058 -0.268,5.555 4.018,10.058 9.572,10.058 C -4.988,10.058 -0.268,5.555 0,0" /></g></g></g></g><g
         id="g1340"
         transform="matrix(1,0,0,2.2833197,319.33036,226.90957)"><path
           d="m 0,0 h -87.085 c -1.249,0 -2.32,1.021 -2.38,2.27 v 0 c -0.06,1.248 0.912,2.27 2.161,2.27 H -0.219 C 1.03,4.54 2.1,3.518 2.161,2.27 v 0 C 2.221,1.021 1.248,0 0,0"
           style="fill:#007cff;fill-opacity:1;fill-rule:nonzero;stroke:none"
           id="path1338"
           inkscape:connector-curvature="0" /></g></g><g
       id="g702"
       transform="translate(356.761,91.263)"><path
         d="m 0,0 h -7.346 l -0.732,17.013 h 7.346 z"
         style="fill:#ce5b51;fill-opacity:1;fill-rule:nonzero;stroke:none"
         id="path704"
         inkscape:connector-curvature="0" /></g><g
       id="g706"><g
         id="g708"
         clip-path="url(#clipPath712)"><g
           id="g714"><g
             id="g716" /><g
             id="g728"><g
               clip-path="url(#clipPath720)"
               id="g726"
               style="opacity:0.19999701"><g
                 transform="translate(348.6846,108.2709)"
                 id="g724"><path
                   d="M 0,0 0.376,-8.769 H 7.725 L 7.349,0 Z"
                   style="fill:#000000;fill-opacity:1;fill-rule:nonzero;stroke:none"
                   id="path722"
                   inkscape:connector-curvature="0" /></g></g></g></g></g></g><g
       id="g730"
       transform="translate(419.29,111.1978)"><path
         d="m 0,0 -6.985,-2.276 -8.781,15.032 6.985,2.276 z"
         style="fill:#ce5b51;fill-opacity:1;fill-rule:nonzero;stroke:none"
         id="path732"
         inkscape:connector-curvature="0" /></g><g
       id="g734"><g
         id="g736"
         clip-path="url(#clipPath740)"><g
           id="g742"><g
             id="g744" /><g
             id="g756"><g
               clip-path="url(#clipPath748)"
               id="g754"
               style="opacity:0.19999701"><g
                 transform="translate(410.5129,126.226)"
                 id="g752"><path
                   d="m 0,0 -6.988,-2.277 4.53,-7.747 6.988,2.277 z"
                   style="fill:#000000;fill-opacity:1;fill-rule:nonzero;stroke:none"
                   id="path750"
                   inkscape:connector-curvature="0" /></g></g></g></g><g
           id="g758"
           transform="translate(381.5952,337.0835)"><path
             d="m 0,0 c 0.913,-1.115 1.688,-2.108 2.472,-3.19 0.78,-1.061 1.542,-2.13 2.29,-3.212 1.485,-2.168 2.901,-4.389 4.229,-6.677 2.641,-4.59 5.042,-9.39 6.738,-14.716 l 0.164,-0.496 0.084,-0.261 0.109,-0.409 0.199,-0.821 0.112,-0.75 c 0.137,-1.002 0.14,-1.873 0.105,-2.712 -0.086,-1.662 -0.35,-3.126 -0.661,-4.533 -0.619,-2.807 -1.548,-5.333 -2.51,-7.812 -1.999,-4.932 -4.374,-9.488 -7.151,-13.952 l -4.971,2.391 c 1.5,4.682 2.959,9.491 4.099,14.158 0.581,2.326 1.037,4.669 1.294,6.838 0.121,1.078 0.175,2.128 0.115,2.99 -0.03,0.423 -0.071,0.819 -0.147,1.061 l -0.045,0.185 c -0.022,0.03 -0.04,0.06 -0.052,0.091 l -0.016,0.048 -0.078,0.183 -0.167,0.392 -0.666,1.566 -0.752,1.562 c -0.495,1.043 -1.048,2.085 -1.602,3.12 -1.134,2.067 -2.37,4.117 -3.644,6.15 -1.296,2.026 -2.641,4.035 -4.021,6.024 -1.351,1.976 -2.855,3.992 -4.205,5.804 z"
             style="fill:#ce5b51;fill-opacity:1;fill-rule:nonzero;stroke:none"
             id="path760"
             inkscape:connector-curvature="0" /></g><g
           id="g762"
           transform="translate(383.231,281.125)"><path
             d="M 0,0 -2.875,-6.354 H 5.34 c 0,0 1.308,4.821 -1.671,6.767 z"
             style="fill:#ce5b51;fill-opacity:1;fill-rule:nonzero;stroke:none"
             id="path764"
             inkscape:connector-curvature="0" /></g><g
           id="g766"
           transform="translate(381.3168,267.63)"><path
             d="M 0,0 7.623,1.475 7.254,7.141 h -8.215 z"
             style="fill:#ce5b51;fill-opacity:1;fill-rule:nonzero;stroke:none"
             id="path768"
             inkscape:connector-curvature="0" /></g><g
           id="g770"
           transform="translate(345.2242,369.3068)"><path
             d="m 0,0 c 0,-0.593 -0.314,-1.073 -0.701,-1.073 -0.388,0 -0.702,0.48 -0.702,1.073 0,0.593 0.314,1.073 0.702,1.073 C -0.314,1.073 0,0.593 0,0"
             style="fill:#1a2e35;fill-opacity:1;fill-rule:nonzero;stroke:none"
             id="path772"
             inkscape:connector-curvature="0" /></g><g
           id="g774"
           transform="translate(344.9646,368.2339)"><path
             d="M 0,0 C 0,0 -1.347,-3.418 -2.831,-5.068 -1.782,-6.046 0,-5.599 0,-5.599 Z"
             style="fill:#bb221f;fill-opacity:1;fill-rule:nonzero;stroke:none"
             id="path776"
             inkscape:connector-curvature="0" /></g><g
           id="g778"
           transform="translate(347.324,372.5902)"><path
             d="M 0,0 C -0.071,0 -0.142,0.021 -0.203,0.066 -1.462,0.973 -2.663,0.525 -2.676,0.52 -2.854,0.451 -3.056,0.54 -3.125,0.719 -3.195,0.898 -3.106,1.1 -2.927,1.169 -2.863,1.194 -1.359,1.756 0.204,0.63 0.36,0.518 0.395,0.301 0.282,0.145 0.215,0.05 0.108,0 0,0"
             style="fill:#1a2e35;fill-opacity:1;fill-rule:nonzero;stroke:none"
             id="path780"
             inkscape:connector-curvature="0" /></g><g
           id="g782"
           transform="translate(364.3484,362.475)"><path
             d="m 0,0 c -1.054,-5.374 -2.105,-15.222 1.655,-18.808 0,0 -1.469,-5.451 -11.455,-5.451 -10.981,0 -5.248,5.451 -5.248,5.451 5.993,1.431 5.838,5.877 4.794,10.053 z"
             style="fill:#ce5b51;fill-opacity:1;fill-rule:nonzero;stroke:none"
             id="path784"
             inkscape:connector-curvature="0" /></g><g
           id="g786"
           transform="translate(367.442,341.7959)"><path
             d="M 0,0 C 0.787,1.726 1.654,3.701 -0.139,4.319 -2.111,5 -12.906,5.694 -16.629,4.417 c -3.722,-1.278 -2.666,-4.778 -2.666,-4.778 z"
             style="fill:#1a2e35;fill-opacity:1;fill-rule:nonzero;stroke:none"
             id="path788"
             inkscape:connector-curvature="0" /></g><g
           id="g790"
           transform="translate(409.1683,107.5496)"><path
             d="m 0,0 c -0.055,-0.053 -0.102,-0.108 -0.139,-0.165 -0.083,-0.128 -0.106,-0.256 -0.07,-0.391 0.084,-0.316 0.234,-0.339 0.283,-0.347 0.513,-0.08 1.601,0.951 2.267,1.844 C 1.614,0.785 0.482,0.461 0,0 m 1.632,-0.377 c -0.544,-0.521 -1.151,-0.942 -1.611,-0.87 -0.193,0.031 -0.448,0.16 -0.566,0.601 -0.062,0.233 -0.024,0.458 0.114,0.671 C 0.17,0.951 2.596,1.347 2.699,1.363 2.767,1.374 2.835,1.344 2.873,1.287 2.91,1.229 2.911,1.155 2.874,1.098 2.664,0.772 2.18,0.147 1.632,-0.377"
             style="fill:#007cff;fill-opacity:1;fill-rule:nonzero;stroke:none"
             id="path792"
             inkscape:connector-curvature="0" /></g><g
           id="g794"
           transform="translate(408.886,109.7428)"><path
             d="M 0,0 C -0.019,-0.018 -0.037,-0.037 -0.054,-0.058 -0.198,-0.235 -0.14,-0.323 -0.116,-0.361 0.152,-0.774 1.669,-1.006 2.612,-0.898 2.122,-0.51 1.098,0.221 0.394,0.166 0.233,0.153 0.103,0.099 0,0 M 3.13,-1.127 C 3.109,-1.147 3.084,-1.162 3.055,-1.169 2.221,-1.397 0.046,-1.25 -0.408,-0.55 c -0.082,0.126 -0.181,0.388 0.085,0.712 0.172,0.211 0.404,0.329 0.69,0.351 1.099,0.086 2.691,-1.325 2.758,-1.385 0.048,-0.042 0.069,-0.107 0.054,-0.17 C 3.171,-1.075 3.154,-1.104 3.13,-1.127"
             style="fill:#007cff;fill-opacity:1;fill-rule:nonzero;stroke:none"
             id="path796"
             inkscape:connector-curvature="0" /></g><g
           id="g798"
           transform="translate(345.2986,92.3107)"><path
             d="M 0,0 C -0.122,0 -0.236,-0.012 -0.336,-0.04 -0.497,-0.083 -0.608,-0.163 -0.677,-0.283 -0.8,-0.499 -0.756,-0.606 -0.711,-0.668 -0.369,-1.143 1.488,-1.153 2.854,-0.961 2.173,-0.611 0.859,0 0,0 m 1.165,-1.425 c -0.943,0 -1.853,0.13 -2.158,0.554 -0.107,0.148 -0.192,0.4 0.014,0.76 0.115,0.202 0.301,0.339 0.552,0.407 1.221,0.333 3.789,-1.13 3.898,-1.193 C 3.534,-0.933 3.568,-1.004 3.556,-1.076 3.544,-1.147 3.49,-1.204 3.418,-1.218 2.95,-1.312 2.043,-1.425 1.165,-1.425"
             style="fill:#007cff;fill-opacity:1;fill-rule:nonzero;stroke:none"
             id="path800"
             inkscape:connector-curvature="0" /></g><g
           id="g802"
           transform="translate(346.8906,94.067)"><path
             d="M 0,0 C -0.034,0 -0.069,-0.002 -0.104,-0.005 -0.417,-0.037 -0.437,-0.161 -0.444,-0.201 -0.525,-0.7 0.669,-1.948 1.574,-2.492 1.479,-1.914 1.218,-0.73 0.604,-0.226 0.419,-0.075 0.221,0 0,0 m 1.792,-2.978 c -0.024,0 -0.048,0.005 -0.071,0.015 -0.886,0.398 -2.643,1.987 -2.509,2.817 0.032,0.195 0.17,0.438 0.648,0.487 C 0.215,0.377 0.54,0.276 0.825,0.042 1.76,-0.725 1.958,-2.704 1.966,-2.788 1.971,-2.849 1.944,-2.909 1.894,-2.945 1.864,-2.967 1.828,-2.978 1.792,-2.978"
             style="fill:#007cff;fill-opacity:1;fill-rule:nonzero;stroke:none"
             id="path804"
             inkscape:connector-curvature="0" /></g><g
           id="g806"
           transform="translate(411.7036,109.7346)"><path
             d="m 0,0 5.964,5.705 c 0.217,0.207 0.549,0.236 0.799,0.069 l 5.562,-3.715 c 0.577,-0.386 0.636,-1.217 0.126,-1.688 -2.116,-1.956 -3.245,-2.801 -5.868,-5.31 -1.613,-1.543 -6.441,-6.8 -8.669,-8.932 -2.18,-2.084 -4.627,-0.206 -3.906,0.866 3.235,4.807 5.259,9.425 5.442,11.854 C -0.517,-0.713 -0.318,-0.304 0,0"
             style="fill:#1a2e35;fill-opacity:1;fill-rule:nonzero;stroke:none"
             id="path808"
             inkscape:connector-curvature="0" /></g><g
           id="g810"
           transform="translate(349.4631,92.1136)"><path
             d="m 0,0 h 8.023 c 0.3,0 0.56,-0.209 0.625,-0.502 l 1.451,-6.53 C 10.25,-7.709 9.736,-8.35 9.042,-8.338 6.148,-8.289 1.967,-8.12 -1.671,-8.12 c -4.253,0 -7.926,-0.232 -12.914,-0.232 -3.016,0 -3.853,3.049 -2.591,3.326 5.747,1.257 10.44,1.392 15.406,4.454 C -1.23,-0.24 -0.634,0 0,0"
             style="fill:#1a2e35;fill-opacity:1;fill-rule:nonzero;stroke:none"
             id="path812"
             inkscape:connector-curvature="0" /></g><g
           id="g814"
           transform="translate(338.9775,326.9761)"><path
             d="m 0,0 c -2.915,-4.295 -5.928,-8.313 -9.17,-12.29 -3.236,-3.954 -6.644,-7.805 -10.403,-11.474 l -1.446,-1.362 -0.361,-0.34 -0.258,-0.235 -0.368,-0.317 c -0.495,-0.396 -1.007,-0.739 -1.507,-1.009 -2.025,-1.095 -3.833,-1.371 -5.451,-1.525 -3.237,-0.253 -5.987,0.182 -8.659,0.713 -5.312,1.148 -10.104,2.933 -14.85,5.219 l 1.831,5.203 c 4.716,-0.879 9.616,-1.665 14.189,-1.937 2.266,-0.127 4.54,-0.092 6.268,0.263 0.847,0.169 1.519,0.485 1.662,0.646 0.044,0.038 0.038,0.063 0.025,0.064 -0.008,0 -0.016,-0.001 -0.022,-0.003 0.003,0.004 -0.017,-0.016 0.004,0.008 l 0.075,0.081 0.296,0.327 1.184,1.302 c 3.125,3.562 6.152,7.358 9.095,11.242 2.947,3.858 5.886,7.859 8.697,11.742 z"
             style="fill:#ce5b51;fill-opacity:1;fill-rule:nonzero;stroke:none"
             id="path816"
             inkscape:connector-curvature="0" /></g><g
           id="g818"
           transform="translate(379.1569,342.0063)"><path
             d="M 0,0 C 6.885,-1.578 14.782,-20.351 14.782,-20.351 L 0.953,-29.829 c 0,0 -5.239,7.329 -9.134,15.529 C -12.262,-5.709 -7.04,1.614 0,0"
             style="fill:#007cff;fill-opacity:1;fill-rule:nonzero;stroke:none"
             id="path820"
             inkscape:connector-curvature="0" /></g><g
           id="g822"><g
             id="g824" /><g
             id="g836"><g
               clip-path="url(#clipPath828)"
               id="g834"
               style="opacity:0.30000299"><g
                 transform="translate(374.2231,330.0361)"
                 id="g832"><path
                   d="m 0,0 6.54,-17.409 -0.65,-0.45 c 0,0 -2.83,3.97 -5.89,9.33 z"
                   style="fill:#000000;fill-opacity:1;fill-rule:nonzero;stroke:none"
                   id="path830"
                   inkscape:connector-curvature="0" /></g></g></g></g><g
           id="g838"
           transform="translate(338.0004,341.6277)"><path
             d="m 0,0 c 0,0 -7.819,-8.832 -0.435,-63.497 h 39.293 c 0.271,6.031 -3.519,35.455 2.299,63.876 0,0 -6.736,1.351 -13.154,1.661 C 22.982,2.282 15.714,2.442 11.3,2.039 5.481,1.508 0,0 0,0"
             style="fill:#007cff;fill-opacity:1;fill-rule:nonzero;stroke:none"
             id="path840"
             inkscape:connector-curvature="0" /></g><g
           id="g842"><g
             id="g844" /><g
             id="g856"><g
               clip-path="url(#clipPath848)"
               id="g854"
               style="opacity:0.30000299"><g
                 transform="translate(342.3629,325.8237)"
                 id="g852"><path
                   d="m 0,0 c -0.13,-0.16 -0.99,-9.03 -7.76,-16.82 -0.16,3.52 -0.22,6.68 -0.21,9.51 z"
                   style="fill:#000000;fill-opacity:1;fill-rule:nonzero;stroke:none"
                   id="path850"
                   inkscape:connector-curvature="0" /></g></g></g></g><g
           id="g858"
           transform="translate(345.7511,335.6723)"><path
             d="m 0,0 c 0.969,-6.957 -12.737,-24.726 -12.737,-24.726 l -13.773,9.479 c 0,0 3.818,9.793 10.251,16.21 C -8.915,8.29 -1.054,7.57 0,0"
             style="fill:#007cff;fill-opacity:1;fill-rule:nonzero;stroke:none"
             id="path860"
             inkscape:connector-curvature="0" /></g><g
           id="g862"
           transform="translate(289.3195,309.0302)"><path
             d="m 0,0 -5.386,5.574 -5.75,-7.416 c 0,0 4.376,-4.224 9.591,-3.03 z"
             style="fill:#ce5b51;fill-opacity:1;fill-rule:nonzero;stroke:none"
             id="path864"
             inkscape:connector-curvature="0" /></g><g
           id="g866"
           transform="translate(276.5264,317.6724)"><path
             d="m 0,0 -2.461,-7.783 4.118,-2.701 5.75,7.416 z"
             style="fill:#ce5b51;fill-opacity:1;fill-rule:nonzero;stroke:none"
             id="path868"
             inkscape:connector-curvature="0" /></g><g
           id="g870"
           transform="translate(364.9877,370.5629)"><path
             d="m 0,0 c -0.447,-7.277 -0.339,-11.559 -4.014,-15.294 -5.529,-5.619 -14.511,-2.286 -16.248,4.978 -1.563,6.538 -0.569,17.341 6.554,20.237 C -6.69,12.774 0.447,7.277 0,0"
             style="fill:#ce5b51;fill-opacity:1;fill-rule:nonzero;stroke:none"
             id="path872"
             inkscape:connector-curvature="0" /></g><g
           id="g874"
           transform="translate(371.3279,385.75)"><path
             d="m 0,0 c 2.245,-2.065 1.292,-4.361 0.125,-4.792 3.625,-0.75 4.161,-3.639 2.251,-9.736 -1.829,-5.839 -6.238,-13.668 -11.745,-14.148 -8.278,-0.723 -10.701,7.902 -10.756,16.461 -4.687,-0.282 -2.666,3.869 -8.411,2.908 -4.965,-0.831 -3.126,3.071 -7.371,4.77 -4.928,1.972 -3.937,9.551 0.658,7.381 0,0 -2.134,-1.406 0.351,-2.719 2.486,-1.313 2.244,1.725 7.148,2.094 4.904,0.369 5.479,-3.832 11.22,-1.302 C -9.301,4.101 -4.594,4.227 0,0"
             style="fill:#1a2e35;fill-opacity:1;fill-rule:nonzero;stroke:none"
             id="path876"
             inkscape:connector-curvature="0" /></g><g
           id="g878"
           transform="translate(368.5724,381.0262)"><path
             d="M 0,0 C 0,0 0.939,1.731 3.186,1.253 5.433,0.774 5.622,-0.215 7.032,-0.087 8.442,0.042 7.93,-1.46 7.93,-1.46 c 0,0 -0.38,1.132 -2.081,0.503 -1.701,-0.63 -2.81,0.914 -3.541,0.221 C 1.576,-1.429 0,0 0,0"
             style="fill:#1a2e35;fill-opacity:1;fill-rule:nonzero;stroke:none"
             id="path880"
             inkscape:connector-curvature="0" /></g><g
           id="g882"
           transform="translate(355.1237,368.5843)"><path
             d="M 0,0 C -0.317,-1.883 -1.388,-3.572 -2.572,-4.625 -4.353,-6.208 -5.897,-4.938 -5.95,-2.77 -5.998,-0.82 -5.128,2.354 -3.078,3.113 -1.057,3.86 0.362,2.153 0,0"
             style="fill:#ce5b51;fill-opacity:1;fill-rule:nonzero;stroke:none"
             id="path884"
             inkscape:connector-curvature="0" /></g><g
           id="g886"
           transform="translate(351.504,278.1303)"><path
             d="m 0,0 c 0,0 8.337,-56.142 12.914,-77.175 5.012,-23.033 39.855,-84.199 39.855,-84.199 l 12.793,4.168 c 0,0 -27.749,55.139 -30.609,77.943 C 31.849,-54.513 25.354,0 25.354,0 Z"
             style="fill:#1a2e35;fill-opacity:1;fill-rule:nonzero;stroke:none"
             id="path888"
             inkscape:connector-curvature="0" /></g><g
           id="g890"
           transform="translate(400.6943,120.8036)"><path
             d="m 0,0 c -0.055,-0.018 2.922,-4.482 2.922,-4.482 l 14.393,4.69 -1.692,4.298 z"
             style="fill:#007cff;fill-opacity:1;fill-rule:nonzero;stroke:none"
             id="path892"
             inkscape:connector-curvature="0" /></g><g
           id="g894"><g
             id="g896" /><g
             id="g908"><g
               clip-path="url(#clipPath900)"
               id="g906"
               style="opacity:0.30000299"><g
                 transform="translate(356.7731,258.127)"
                 id="g904"><path
                   d="M 0,0 C 9.64,-1.89 8.62,-37.84 7.46,-56.33 4.68,-43.26 0.61,-18.11 -2.17,-0.26 -1.53,0.06 -0.81,0.16 0,0"
                   style="fill:#000000;fill-opacity:1;fill-rule:nonzero;stroke:none"
                   id="path902"
                   inkscape:connector-curvature="0" /></g></g></g></g><g
           id="g910"
           transform="translate(337.5654,278.1303)"><path
             d="m 0,0 c 0,0 -1.012,-54.927 -0.213,-77.33 0.831,-23.302 8.971,-99.6 8.971,-99.6 h 12.445 c 0,0 0.456,74.937 1.01,97.822 C 22.817,-54.16 25.829,0 25.829,0 Z"
             style="fill:#1a2e35;fill-opacity:1;fill-rule:nonzero;stroke:none"
             id="path912"
             inkscape:connector-curvature="0" /></g><g
           id="g914"
           transform="translate(343.9282,106.157)"><path
             d="m 0,0 c -0.057,0 0.702,-5.167 0.702,-5.167 h 15.139 l 0.409,4.611 z"
             style="fill:#007cff;fill-opacity:1;fill-rule:nonzero;stroke:none"
             id="path916"
             inkscape:connector-curvature="0" /></g></g></g></g></svg>