<?xml version="1.0" encoding="UTF-8" standalone="no"?>
<svg
   xmlns:dc="http://purl.org/dc/elements/1.1/"
   xmlns:cc="http://creativecommons.org/ns#"
   xmlns:rdf="http://www.w3.org/1999/02/22-rdf-syntax-ns#"
   xmlns:svg="http://www.w3.org/2000/svg"
   xmlns="http://www.w3.org/2000/svg"
   xmlns:sodipodi="http://sodipodi.sourceforge.net/DTD/sodipodi-0.dtd"
   xmlns:inkscape="http://www.inkscape.org/namespaces/inkscape"
   viewBox="0 0 666.66669 666.66669"
   height="666.66669"
   width="666.66669"
   xml:space="preserve"
   id="svg815"
   version="1.1"
   sodipodi:docname="login.svg"
   inkscape:version="0.92.4 (5da689c313, 2019-01-14)"><sodipodi:namedview
     pagecolor="#ffffff"
     bordercolor="#666666"
     borderopacity="1"
     objecttolerance="10"
     gridtolerance="10"
     guidetolerance="10"
     inkscape:pageopacity="0"
     inkscape:pageshadow="2"
     inkscape:window-width="1920"
     inkscape:window-height="1017"
     id="namedview486"
     showgrid="false"
     inkscape:zoom="1.416"
     inkscape:cx="218.57345"
     inkscape:cy="333.33334"
     inkscape:window-x="-8"
     inkscape:window-y="-8"
     inkscape:window-maximized="1"
     inkscape:current-layer="g997" /><metadata
     id="metadata821"><rdf:RDF><cc:Work
         rdf:about=""><dc:format>image/svg+xml</dc:format><dc:type
           rdf:resource="http://purl.org/dc/dcmitype/StillImage" /><dc:title /></cc:Work></rdf:RDF></metadata><defs
     id="defs819"><clipPath
       id="clipPath845"
       clipPathUnits="userSpaceOnUse"><path
         id="path843"
         d="M 0,500 H 500 V 0 H 0 Z" /></clipPath><clipPath
       id="clipPath977"
       clipPathUnits="userSpaceOnUse"><path
         id="path975"
         d="M 0,500 H 500 V 0 H 0 Z" /></clipPath><clipPath
       id="clipPath989"
       clipPathUnits="userSpaceOnUse"><path
         id="path987"
         d="M 0,500 H 500 V 0 H 0 Z" /></clipPath><clipPath
       id="clipPath1001"
       clipPathUnits="userSpaceOnUse"><path
         id="path999"
         d="M 0,500 H 500 V 0 H 0 Z" /></clipPath><clipPath
       id="clipPath1017"
       clipPathUnits="userSpaceOnUse"><path
         id="path1015"
         d="m 330.964,347.521 h 21.563 v -26.113 h -21.563 z" /></clipPath><clipPath
       id="clipPath1033"
       clipPathUnits="userSpaceOnUse"><path
         id="path1031"
         d="m 336.212,338.82 h 6.073 v -15.866 h -6.073 z" /></clipPath><clipPath
       id="clipPath1053"
       clipPathUnits="userSpaceOnUse"><path
         id="path1051"
         d="m 337.535,349.478 h 48.33 V 282.06 h -48.33 z" /></clipPath><clipPath
       id="clipPath1069"
       clipPathUnits="userSpaceOnUse"><path
         id="path1067"
         d="m 334.323,84.8027 h 68.432 V 80.914 h -68.432 z" /></clipPath><clipPath
       id="clipPath1117"
       clipPathUnits="userSpaceOnUse"><path
         id="path1115"
         d="m 338.123,323.499 h 43.345 v -35.545 h -43.345 z" /></clipPath><clipPath
       id="clipPath1173"
       clipPathUnits="userSpaceOnUse"><path
         id="path1171"
         d="m 353.431,267.873 h 7.608 v -48.811 h -7.608 z" /></clipPath><clipPath
       id="clipPath1201"
       clipPathUnits="userSpaceOnUse"><path
         id="path1199"
         d="m 375.83,273.913 h 13.795 V 108.878 H 375.83 Z" /></clipPath><clipPath
       id="clipPath1277"
       clipPathUnits="userSpaceOnUse"><path
         id="path1275"
         d="m 351.889,109.175 h 16.025 v -9.6418 h -16.025 z" /></clipPath><clipPath
       id="clipPath1293"
       clipPathUnits="userSpaceOnUse"><path
         id="path1291"
         d="m 379.002,104.894 h 16.239 v -4.424 h -16.239 z" /></clipPath><clipPath
       id="clipPath1313"
       clipPathUnits="userSpaceOnUse"><path
         id="path1311"
         d="m 369.634,347.678 h 23.259 V 319.58 h -23.259 z" /></clipPath><clipPath
       id="clipPath1339"
       clipPathUnits="userSpaceOnUse"><path
         id="path1337"
         d="M 0,500 H 500 V 0 H 0 Z" /></clipPath><clipPath
       id="clipPath1347"
       clipPathUnits="userSpaceOnUse"><path
         id="path1345"
         d="M 193.107,421.434 H 322.09 V 175.715 H 193.107 Z" /></clipPath><clipPath
       id="clipPath1363"
       clipPathUnits="userSpaceOnUse"><path
         id="path1361"
         d="M 189.584,418.062 H 318.567 V 172.343 H 189.584 Z" /></clipPath><clipPath
       id="clipPath1391"
       clipPathUnits="userSpaceOnUse"><path
         id="path1389"
         d="M 0,500 H 500 V 0 H 0 Z" /></clipPath><clipPath
       id="clipPath1399"
       clipPathUnits="userSpaceOnUse"><path
         id="path1397"
         d="m 215.662,215.964 h 68.736 v -22.539 h -68.736 z" /></clipPath><clipPath
       id="clipPath1471"
       clipPathUnits="userSpaceOnUse"><path
         id="path1469"
         d="m 247.503,390.545 h 20.744 v -20.722 h -20.744 z" /></clipPath><clipPath
       id="clipPath1487"
       clipPathUnits="userSpaceOnUse"><path
         id="path1485"
         d="m 236.097,364.551 h 41.444 v -18.548 h -41.444 z" /></clipPath><clipPath
       id="clipPath1503"
       clipPathUnits="userSpaceOnUse"><path
         id="path1501"
         d="M 0,500 H 500 V 0 H 0 Z" /></clipPath><clipPath
       id="clipPath1559"
       clipPathUnits="userSpaceOnUse"><path
         id="path1557"
         d="m 136.688,304.214 h 20.927 v -5.639 h -20.927 z" /></clipPath><clipPath
       id="clipPath1595"
       clipPathUnits="userSpaceOnUse"><path
         id="path1593"
         d="m 127.01,252.012 h 46.235 V 132.227 H 127.01 Z" /></clipPath><clipPath
       id="clipPath1611"
       clipPathUnits="userSpaceOnUse"><path
         id="path1609"
         d="m 160.891,235.258 h 12.356 v -56.355 h -12.356 z" /></clipPath><clipPath
       id="clipPath1631"
       clipPathUnits="userSpaceOnUse"><path
         id="path1629"
         d="m 133.949,252.012 h 60.678 v -122.54 h -60.678 z" /></clipPath><clipPath
       id="clipPath1651"
       clipPathUnits="userSpaceOnUse"><path
         id="path1649"
         d="m 127.527,292.006 h 7.581 v -13.424 h -7.581 z" /></clipPath><clipPath
       id="clipPath1723"
       clipPathUnits="userSpaceOnUse"><path
         id="path1721"
         d="m 129.973,254.121 h 34.461 v -3.538 h -34.461 z" /></clipPath><clipPath
       id="clipPath1747"
       clipPathUnits="userSpaceOnUse"><path
         id="path1745"
         d="m 108.755,84.8017 h 53.583 V 80.913 h -53.583 z" /></clipPath><clipPath
       id="clipPath1775"
       clipPathUnits="userSpaceOnUse"><path
         id="path1773"
         d="m 117.448,204.753 h 36.219 v -4.547 h -36.219 z" /></clipPath></defs><g
     transform="matrix(1.3333333,0,0,-1.3333333,0,666.66667)"
     id="g823"><path
       id="path825"
       style="fill:#e7e7e7;fill-opacity:1;fill-rule:nonzero;stroke:none"
       d="m 0,117.352 h 500 v 0.249 H 0 Z" /><path
       id="path827"
       style="fill:#e7e7e7;fill-opacity:1;fill-rule:nonzero;stroke:none"
       d="m 91.705,102.223 h 33.122 v 0.25 H 91.705 Z" /><path
       id="path829"
       style="fill:#e7e7e7;fill-opacity:1;fill-rule:nonzero;stroke:none"
       d="m 62.029,102.223 h 19.193 v 0.25 H 62.029 Z" /><path
       id="path831"
       style="fill:#e7e7e7;fill-opacity:1;fill-rule:nonzero;stroke:none"
       d="m 191.363,98.542 h 19.192 v 0.25 h -19.192 z" /><path
       id="path833"
       style="fill:#e7e7e7;fill-opacity:1;fill-rule:nonzero;stroke:none"
       d="m 267.424,92.959 h 43.193 v 0.25 h -43.193 z" /><path
       id="path835"
       style="fill:#e7e7e7;fill-opacity:1;fill-rule:nonzero;stroke:none"
       d="m 252.187,92.959 h 6.333 v 0.25 h -6.333 z" /><path
       id="path837"
       style="fill:#e7e7e7;fill-opacity:1;fill-rule:nonzero;stroke:none"
       d="m 359.667,98.542 h 93.676 v 0.25 h -93.676 z" /><g
       id="g839"><g
         clip-path="url(#clipPath845)"
         id="g841"><path
           id="path855"
           style="fill:#e1e1e1;fill-opacity:1;fill-rule:nonzero;stroke:none"
           d="M 267.399,115.788 H 245.41 v 87.234 h 21.989 z" /><g
           transform="translate(263.2227,115.7881)"
           id="g857"><path
             id="path859"
             style="fill:#fafafa;fill-opacity:1;fill-rule:nonzero;stroke:none"
             d="M 0,0 H 4.177 V 11.88 H -4.379 Z" /></g><path
           id="path861"
           style="fill:#e1e1e1;fill-opacity:1;fill-rule:nonzero;stroke:none"
           d="m 171.044,115.788 h -21.989 v 87.234 h 21.989 z" /><path
           id="path863"
           style="fill:#fafafa;fill-opacity:1;fill-rule:nonzero;stroke:none"
           d="m 267.399,123.078 h -100 v 79.944 h 100 z" /><path
           id="path865"
           style="fill:#e1e1e1;fill-opacity:1;fill-rule:nonzero;stroke:none"
           d="m 264.159,199.479 h -93.521 v -21.924 h 93.521 z m -0.386,-21.537 h -92.749 v 21.15 h 92.749 z" /><g
           transform="translate(171.5752,115.7881)"
           id="g867"><path
             id="path869"
             style="fill:#fafafa;fill-opacity:1;fill-rule:nonzero;stroke:none"
             d="M 0,0 H -4.176 V 11.88 H 4.379 Z" /></g><g
           transform="translate(215.1875,188.5176)"
           id="g871"><path
             id="path873"
             style="fill:#e7e7e7;fill-opacity:1;fill-rule:nonzero;stroke:none"
             d="m 0,0 c 0,-1.222 0.99,-2.212 2.211,-2.212 1.222,0 2.212,0.99 2.212,2.212 0,1.222 -0.99,2.212 -2.212,2.212 C 0.99,2.212 0,1.222 0,0" /></g><path
           id="path875"
           style="fill:#e1e1e1;fill-opacity:1;fill-rule:nonzero;stroke:none"
           d="m 264.159,174.013 h -93.521 v -21.924 h 93.521 z m -0.386,-21.538 h -92.749 v 21.151 h 92.749 z" /><g
           transform="translate(215.1875,163.0508)"
           id="g877"><path
             id="path879"
             style="fill:#e7e7e7;fill-opacity:1;fill-rule:nonzero;stroke:none"
             d="m 0,0 c 0,-1.222 0.99,-2.212 2.211,-2.212 1.222,0 2.212,0.99 2.212,2.212 0,1.222 -0.99,2.211 -2.212,2.211 C 0.99,2.211 0,1.222 0,0" /></g><path
           id="path881"
           style="fill:#e1e1e1;fill-opacity:1;fill-rule:nonzero;stroke:none"
           d="m 264.159,148.545 h -93.521 v -21.924 h 93.521 z m -0.386,-21.537 h -92.749 v 21.151 h 92.749 z" /><g
           transform="translate(215.1875,137.583)"
           id="g883"><path
             id="path885"
             style="fill:#e7e7e7;fill-opacity:1;fill-rule:nonzero;stroke:none"
             d="m 0,0 c 0,-1.221 0.99,-2.211 2.211,-2.211 1.222,0 2.212,0.99 2.212,2.211 0,1.222 -0.99,2.212 -2.212,2.212 C 0.99,2.212 0,1.222 0,0" /></g><path
           id="path887"
           style="fill:#e1e1e1;fill-opacity:1;fill-rule:nonzero;stroke:none"
           d="M 157.61,115.788 H 135.621 V 253.684 H 157.61 Z" /><g
           transform="translate(153.4336,115.7881)"
           id="g889"><path
             id="path891"
             style="fill:#fafafa;fill-opacity:1;fill-rule:nonzero;stroke:none"
             d="M 0,0 H 4.177 V 11.88 H -4.379 Z" /></g><path
           id="path893"
           style="fill:#e1e1e1;fill-opacity:1;fill-rule:nonzero;stroke:none"
           d="M 75.428,115.788 H 53.439 v 137.896 h 21.989 z" /><path
           id="path895"
           style="fill:#fafafa;fill-opacity:1;fill-rule:nonzero;stroke:none"
           d="M 157.61,123.078 H 71.782 v 130.606 h 85.828 z" /><path
           id="path897"
           style="fill:#e1e1e1;fill-opacity:1;fill-rule:nonzero;stroke:none"
           d="M 154.37,250.441 H 75.022 V 219.96 h 79.348 z m -0.455,-30.025 H 75.479 v 29.57 h 78.436 z" /><path
           id="path899"
           style="fill:#e1e1e1;fill-opacity:1;fill-rule:nonzero;stroke:none"
           d="m 154.37,217.277 h -38.272 v -79.348 h 38.272 z m -0.455,-78.891 h -37.361 v 78.436 h 37.361 z" /><path
           id="path901"
           style="fill:#e1e1e1;fill-opacity:1;fill-rule:nonzero;stroke:none"
           d="M 113.295,217.277 H 75.023 v -79.348 h 38.272 z m -0.456,-78.891 H 75.478 v 78.436 h 37.361 z" /><g
           transform="translate(75.959,115.7881)"
           id="g903"><path
             id="path905"
             style="fill:#fafafa;fill-opacity:1;fill-rule:nonzero;stroke:none"
             d="M 0,0 H -4.176 V 11.88 H 4.379 Z" /></g><g
           transform="translate(112.4849,235.2012)"
           id="g907"><path
             id="path909"
             style="fill:#e7e7e7;fill-opacity:1;fill-rule:nonzero;stroke:none"
             d="m 0,0 c 0,-1.222 0.99,-2.212 2.211,-2.212 1.222,0 2.212,0.99 2.212,2.212 0,1.221 -0.99,2.211 -2.212,2.211 C 0.99,2.211 0,1.221 0,0" /></g><g
           transform="translate(120.4033,179.4746)"
           id="g911"><path
             id="path913"
             style="fill:#e7e7e7;fill-opacity:1;fill-rule:nonzero;stroke:none"
             d="m 0,0 c 0,-1.222 0.99,-2.212 2.211,-2.212 1.222,0 2.212,0.99 2.212,2.212 0,1.222 -0.99,2.212 -2.212,2.212 C 0.99,2.212 0,1.222 0,0" /></g><g
           transform="translate(104.5664,179.4746)"
           id="g915"><path
             id="path917"
             style="fill:#e7e7e7;fill-opacity:1;fill-rule:nonzero;stroke:none"
             d="m 0,0 c 0,-1.222 0.99,-2.212 2.211,-2.212 1.222,0 2.212,0.99 2.212,2.212 0,1.222 -0.99,2.212 -2.212,2.212 C 0.99,2.212 0,1.222 0,0" /></g><g
           transform="translate(102.0747,292.1313)"
           id="g919"><path
             id="path921"
             style="fill:#e1e1e1;fill-opacity:1;fill-rule:nonzero;stroke:none"
             d="m 0,0 h -9.276 c 0,0 1.61,-8.575 1.61,-13.621 0,-5.046 -7.056,-24.826 3.028,-24.826 10.083,0 3.028,19.78 3.028,24.826 C -1.61,-8.575 0,0 0,0" /></g><g
           transform="translate(66.8032,271.8516)"
           id="g923"><path
             id="path925"
             style="fill:#f5f5f5;fill-opacity:1;fill-rule:nonzero;stroke:none"
             d="m 0,0 v -6.027 c 0,-6.677 5.463,-12.14 12.141,-12.14 h 6.026 c 6.678,0 12.141,5.463 12.141,12.14 V 0 Z" /></g><g
           transform="translate(195.6665,215.7354)"
           id="g927"><path
             id="path929"
             style="fill:#e1e1e1;fill-opacity:1;fill-rule:nonzero;stroke:none"
             d="m 0,0 c 0,-6.992 7.831,-12.713 17.403,-12.713 h 8.639 c 9.571,0 17.403,5.721 17.403,12.713 z" /></g><g
           transform="translate(424.6064,225.9707)"
           id="g931"><path
             id="path933"
             style="fill:#e1e1e1;fill-opacity:1;fill-rule:nonzero;stroke:none"
             d="m 0,0 c -5.24,-4.277 -12.472,-12.109 -19.1,-23.128 -4.413,-7.338 -7.073,-15.026 -8.242,-25.185 0.026,11.499 0.062,23.854 0.102,35.514 1.331,3.001 4.371,9.916 6.552,15.38 7.276,18.231 9.987,22.714 16.532,38.44 8.728,20.973 17.674,45.861 15.113,43.872 -5.22,-4.053 -25.22,-41.504 -27.382,-46.865 -7.436,-18.44 -9.508,-31.881 -10.795,-44.852 0.041,10.951 0.084,21.008 0.125,28.766 0.134,25.309 0.565,33.477 0.775,35.996 0.809,1.28 1.765,2.772 2.321,3.576 4.698,6.793 6.511,12.58 10.936,22.712 6.274,14.357 11.676,39.847 10.096,38.561 -6.575,-5.353 -11.762,-16.862 -18.578,-31.527 -6.815,-14.664 -4.867,-23.098 -6.219,-35.623 -0.284,-2.458 -0.501,-11.733 -0.658,-24.588 -1.767,13.696 -5.084,22.721 -11.134,30.922 -7.442,10.087 -14.64,16.901 -19.923,20.459 -5.283,3.558 9.121,-21.22 16.009,-32.034 6.134,-9.632 11.784,-18.13 14.97,-26.5 -0.168,-17.422 -0.246,-39.484 -0.247,-60.02 -1.58,9.346 -4.16,19.409 -7.603,27.202 -4.135,9.363 -10.499,23.724 -15.563,28.595 -1.217,1.171 5.296,-26.76 9.475,-34.188 4.18,-7.426 7.249,-14.425 9.879,-18.635 0.614,-0.983 2.65,-4.77 3.813,-6.949 0.012,-25.07 0.139,-47.191 0.357,-54.721 h 1.083 c -0.074,1.942 -0.086,14.695 -0.063,31.574 2.608,9.165 8.573,19.623 13.496,29.165 C -8.5,-23.668 5.24,4.277 0,0" /></g><g
           transform="translate(412.4404,115.7881)"
           id="g935"><path
             id="path937"
             style="fill:#f0f0f0;fill-opacity:1;fill-rule:nonzero;stroke:none"
             d="m 0,0 h -31.344 l -2.365,30.724 H 2.366 Z" /></g><g
           transform="translate(417.1416,142.9316)"
           id="g939"><path
             id="path941"
             style="fill:#f5f5f5;fill-opacity:1;fill-rule:nonzero;stroke:none"
             d="m 0,0 h -40.746 l -1.167,10.366 H 1.168 Z" /></g><path
           id="path943"
           style="fill:#e1e1e1;fill-opacity:1;fill-rule:nonzero;stroke:none"
           d="M 124.259,362.954 H 68.207 v 61.549 h 56.052 z" /><path
           id="path945"
           style="fill:#f5f5f5;fill-opacity:1;fill-rule:nonzero;stroke:none"
           d="M 130.331,362.954 H 72.434 v 61.549 h 57.897 z" /><path
           id="path947"
           style="fill:#ffffff;fill-opacity:1;fill-rule:nonzero;stroke:none"
           d="M 77.283,419.652 H 125.48 V 367.803 H 77.283 Z" /><path
           id="path949"
           style="fill:#f5f5f5;fill-opacity:1;fill-rule:nonzero;stroke:none"
           d="m 88.965,407.085 h 24.833 V 380.371 H 88.965 Z" /><path
           id="path951"
           style="fill:#e1e1e1;fill-opacity:1;fill-rule:nonzero;stroke:none"
           d="m 410.051,360.151 h -52.07 v 57.177 h 52.07 z" /><path
           id="path953"
           style="fill:#f5f5f5;fill-opacity:1;fill-rule:nonzero;stroke:none"
           d="m 415.69,360.151 h -53.784 v 57.177 h 53.784 z" /><path
           id="path955"
           style="fill:#ffffff;fill-opacity:1;fill-rule:nonzero;stroke:none"
           d="m 366.412,412.822 h 44.772 v -48.165 h -44.772 z" /><g
           transform="translate(402.7666,388.7393)"
           id="g957"><path
             id="path959"
             style="fill:#f5f5f5;fill-opacity:1;fill-rule:nonzero;stroke:none"
             d="m 0,0 c 0,-7.714 -6.254,-13.968 -13.969,-13.968 -7.714,0 -13.968,6.254 -13.968,13.968 0,7.714 6.254,13.968 13.968,13.968 C -6.254,13.968 0,7.714 0,0" /></g><path
           id="path961"
           style="fill:#e1e1e1;fill-opacity:1;fill-rule:nonzero;stroke:none"
           d="m 182.49,342.145 h -41.581 v 45.658 h 41.581 z" /><path
           id="path963"
           style="fill:#f5f5f5;fill-opacity:1;fill-rule:nonzero;stroke:none"
           d="m 186.994,342.145 h -42.95 v 45.658 h 42.95 z" /><path
           id="path965"
           style="fill:#ffffff;fill-opacity:1;fill-rule:nonzero;stroke:none"
           d="m 147.642,384.205 h 35.753 v -38.462 h -35.753 z" /><g
           transform="translate(165.5186,374.6968)"
           id="g967"><path
             id="path969"
             style="fill:#f5f5f5;fill-opacity:1;fill-rule:nonzero;stroke:none"
             d="M 0,0 -9.778,-16.937 H 9.778 Z" /></g></g></g><g
       id="g971"><g
         clip-path="url(#clipPath977)"
         id="g973"><g
           transform="translate(134.4585,262.2549)"
           id="g979"><path
             id="path981"
             style="fill:#f5f5f5;fill-opacity:1;fill-rule:nonzero;stroke:none"
             d="M 0,0 C 58.535,-60.354 135.467,-102.202 206.778,-34.624 243.538,0.212 292.119,94.31 244.181,137.368 178.116,196.71 140.202,99.613 90.807,86.457 56.95,77.439 28.486,129.417 -12.047,94.711 -44.089,67.276 -24.334,25.091 0,0" /></g></g></g><g
       id="g983"><g
         clip-path="url(#clipPath989)"
         id="g985"><g
           transform="translate(443.8887,83.7617)"
           id="g991"><path
             id="path993"
             style="fill:#f5f5f5;fill-opacity:1;fill-rule:nonzero;stroke:none"
             d="m 0,0 c 0,-6.254 -86.807,-11.323 -193.889,-11.323 -107.082,0 -193.888,5.069 -193.888,11.323 0,6.254 86.806,11.323 193.888,11.323 C -86.807,11.323 0,6.254 0,0" /></g></g></g><g
       id="g995"><g
         clip-path="url(#clipPath1001)"
         id="g997"><g
           transform="translate(349.2451,336.5684)"
           id="g1003"><path
             id="path1005"
             style="fill:#ff8b7b;fill-opacity:1;fill-rule:nonzero;stroke:none"
             d="m 0,0 -9.918,4.022 c 0,0 -13.09,-23.873 -16.84,-25.078 -5.101,-1.639 -15.652,-6.199 -21.922,-7.053 -0.845,-0.988 -2.239,-4.104 -2.106,-5.24 8.412,-2.805 26.891,0.92 30.848,3.858 C -10.921,-22.793 0,0 0,0" /></g><g
           transform="translate(352.2998,341.9844)"
           id="g1007"><path
             id="path1009"
             style="fill:#007cff;fill-opacity:1;fill-rule:nonzero;stroke:none"
             d="m 0,0 c 1.846,-6.838 -8.174,-20.576 -8.174,-20.576 l -13.162,7.383 c 0,0 2.454,5.647 5.458,11.398 C -11.027,7.493 -2.106,7.806 0,0" /></g><g
           id="g1011"><g
             id="g1013" /><g
             id="g1025"><g
               style="opacity:0.19999701"
               id="g1023"
               clip-path="url(#clipPath1017)"><g
                 id="g1021"
                 transform="translate(352.2998,341.9844)"><path
                   id="path1019"
                   style="fill:#000000;fill-opacity:1;fill-rule:nonzero;stroke:none"
                   d="m 0,0 c 1.846,-6.838 -8.174,-20.576 -8.174,-20.576 l -13.162,7.383 c 0,0 2.454,5.647 5.458,11.398 C -11.027,7.493 -2.106,7.806 0,0" /></g></g></g></g><g
           id="g1027"><g
             id="g1029" /><g
             id="g1041"><g
               style="opacity:0.19999701"
               id="g1039"
               clip-path="url(#clipPath1033)"><g
                 id="g1037"
                 transform="translate(336.2119,325.8521)"><path
                   id="path1035"
                   style="fill:#000000;fill-opacity:1;fill-rule:nonzero;stroke:none"
                   d="M 0,0 5.169,-2.898 6.073,12.968 C 3.072,10.656 0.945,3.699 0,0" /></g></g></g></g><g
           transform="translate(343.6621,347.1372)"
           id="g1043"><path
             id="path1045"
             style="fill:#007cff;fill-opacity:1;fill-rule:nonzero;stroke:none"
             d="m 0,0 c 0,0 -10.22,-22.736 -4.262,-65.077 h 40.271 c 0.639,6.182 -1.477,36.338 6.193,65.465 0,0 -6.821,1.385 -13.381,1.702 C 23.69,2.338 16.251,2.502 11.703,2.089 5.707,1.545 0,0 0,0" /></g><g
           id="g1047"><g
             id="g1049" /><g
             id="g1061"><g
               style="opacity:0.19999701"
               id="g1059"
               clip-path="url(#clipPath1053)"><g
                 id="g1057"
                 transform="translate(343.6621,347.1372)"><path
                   id="path1055"
                   style="fill:#000000;fill-opacity:1;fill-rule:nonzero;stroke:none"
                   d="m 0,0 c 0,0 -10.22,-22.736 -4.262,-65.077 h 40.271 c 0.639,6.182 -1.477,36.338 6.193,65.465 0,0 -6.821,1.385 -13.381,1.702 C 23.69,2.338 16.251,2.502 11.703,2.089 5.707,1.545 0,0 0,0" /></g></g></g></g><g
           id="g1063"><g
             id="g1065" /><g
             id="g1077"><g
               id="g1075"
               clip-path="url(#clipPath1069)"><g
                 id="g1073"
                 transform="translate(334.3232,82.8584)"><path
                   id="path1071"
                   style="fill:#e7edf2;fill-opacity:1;fill-rule:nonzero;stroke:none"
                   d="m 0,0 c -0.063,-1.074 15.205,-1.944 34.102,-1.944 18.897,0 34.266,0.87 34.33,1.944 C 68.495,1.073 53.227,1.944 34.33,1.944 15.433,1.944 0.062,1.073 0,0" /></g></g></g></g><g
           transform="translate(368.3213,93.9023)"
           id="g1079"><path
             id="path1081"
             style="fill:#ff8b7b;fill-opacity:1;fill-rule:nonzero;stroke:none"
             d="m 0,0 -7.166,-2.762 -6.157,15.946 7.166,2.761 z" /></g><g
           transform="translate(393.0508,90.5459)"
           id="g1083"><path
             id="path1085"
             style="fill:#ff8b7b;fill-opacity:1;fill-rule:nonzero;stroke:none"
             d="m 0,0 h -7.528 l -2.763,17.436 h 7.529 z" /></g><g
           transform="translate(385.0381,91.418)"
           id="g1087"><path
             id="path1089"
             style="fill:#1a2e35;fill-opacity:1;fill-rule:nonzero;stroke:none"
             d="m 0,0 h 8.459 c 0.308,0 0.562,-0.214 0.61,-0.515 l 1.095,-6.692 c 0.114,-0.694 -0.47,-1.351 -1.181,-1.339 -2.95,0.051 -4.374,0.224 -8.093,0.224 -2.289,0 -7.018,-0.238 -10.178,-0.238 -3.091,0 -3.39,3.125 -2.079,3.409 5.875,1.268 8.163,3.018 10.118,4.688 C -0.896,-0.162 -0.45,0 0,0" /></g><g
           transform="translate(359.9727,94.0537)"
           id="g1091"><path
             id="path1093"
             style="fill:#1a2e35;fill-opacity:1;fill-rule:nonzero;stroke:none"
             d="M 0,0 8.021,2.332 C 8.321,2.419 8.63,2.289 8.764,2.021 l 2.971,-5.997 C 12.044,-4.597 11.68,-5.377 10.983,-5.567 8.078,-6.359 6.125,-6.856 2.488,-7.913 c -2.512,-0.731 -5.069,-1.921 -7.551,-2.712 -1.72,-0.548 -5.757,-0.57 -7.848,-0.57 -3.091,0 -3.779,3.258 -2.455,3.408 3.352,0.376 3.803,0.201 5.653,1.13 3.06,1.535 5.427,2.806 8.076,5.581 C -1.174,-0.593 -0.634,-0.184 0,0" /></g><g
           transform="translate(301.833,308.5308)"
           id="g1095"><path
             id="path1097"
             style="fill:#ff8b7b;fill-opacity:1;fill-rule:nonzero;stroke:none"
             d="m 0,0 -8.285,3.486 -3.41,-9.178 c 0,0 4.781,-0.867 10.241,0 z" /></g><g
           transform="translate(287.3906,312.2417)"
           id="g1099"><path
             id="path1101"
             style="fill:#ff8b7b;fill-opacity:1;fill-rule:nonzero;stroke:none"
             d="m 0,0 -0.219,-6.106 2.966,-3.297 3.41,9.178 z" /></g><g
           transform="translate(355.001,107.082)"
           id="g1103"><path
             id="path1105"
             style="fill:#ea7064;fill-opacity:1;fill-rule:nonzero;stroke:none"
             d="m 0,0 3.173,-8.22 7.169,2.763 -3.173,8.22 z" /></g><g
           transform="translate(390.291,107.9766)"
           id="g1107"><path
             id="path1109"
             style="fill:#ea7064;fill-opacity:1;fill-rule:nonzero;stroke:none"
             d="m 0,0 h -7.531 l 1.427,-8.987 h 7.532 z" /></g><g
           id="g1111"><g
             id="g1113" /><g
             id="g1125"><g
               style="opacity:0.19999701"
               id="g1123"
               clip-path="url(#clipPath1117)"><g
                 id="g1121"
                 transform="translate(338.123,293.5132)"><path
                   id="path1119"
                   style="fill:#000000;fill-opacity:1;fill-rule:nonzero;stroke:none"
                   d="m 0,0 c 0.145,-1.809 0.319,-3.659 0.534,-5.56 l 29.945,9.722 c 4.676,1.397 8.746,4.336 11.52,8.354 0.113,2.672 0.268,5.477 0.493,8.406 0.103,1.429 0.226,2.888 0.36,4.368 0.144,1.541 0.308,3.113 0.494,4.696 z" /></g></g></g></g><g
           transform="translate(347.8994,326.312)"
           id="g1127"><path
             id="path1129"
             style="fill:#ffffff;fill-opacity:1;fill-rule:nonzero;stroke:none"
             d="m 0,0 -1.02,0.122 c 0.595,4.989 4.32,8.933 8.255,8.84 L 7.205,7.934 C 3.808,8.032 0.534,4.475 0,0" /></g><g
           transform="translate(353.2275,317.0781)"
           id="g1131"><path
             id="path1133"
             style="fill:#ffffff;fill-opacity:1;fill-rule:nonzero;stroke:none"
             d="m 0,0 c -0.056,0 -0.112,0 -0.168,0.002 l 0.029,1.028 c 3.44,-0.126 6.67,3.458 7.205,7.933 L 8.086,8.842 C 7.5,3.923 3.893,0 0,0" /></g><g
           transform="translate(371.918,368.5029)"
           id="g1135"><path
             id="path1137"
             style="fill:#ff8b7b;fill-opacity:1;fill-rule:nonzero;stroke:none"
             d="m 0,0 c -1.403,-5.508 -3.072,-15.6 0.565,-19.276 0,0 -2.541,-5.587 -12.775,-5.587 -9.352,0 -4.343,5.587 -4.343,5.587 6.229,1.466 6.337,6.024 5.518,10.303 z" /></g><g
           transform="translate(367.4189,364.8418)"
           id="g1139"><path
             id="path1141"
             style="fill:#ea7064;fill-opacity:1;fill-rule:nonzero;stroke:none"
             d="m 0,0 -6.531,-5.307 c 0.197,-1.013 0.337,-2.04 0.349,-3.038 1.91,-1.902 5.742,2.914 6.134,5.371 C 0.148,-1.749 0.166,-0.571 0,0" /></g><g
           transform="translate(349.6641,368.5708)"
           id="g1143"><path
             id="path1145"
             style="fill:#ea7064;fill-opacity:1;fill-rule:nonzero;stroke:none"
             d="M 0,0 C 0.957,-1.715 2.646,-2.781 4.242,-3.136 6.644,-3.671 7.85,-1.462 7.187,0.761 6.592,2.762 4.625,5.451 2.212,4.99 -0.165,4.536 -1.095,1.96 0,0" /></g><g
           transform="translate(353.626,386.1997)"
           id="g1147"><path
             id="path1149"
             style="fill:#1a2e35;fill-opacity:1;fill-rule:nonzero;stroke:none"
             d="M 0,0 C -3.74,-1.713 -5.058,-16.571 -0.355,-18.768 4.346,-20.964 7.085,3.246 0,0" /></g><g
           transform="translate(373.0586,376.7915)"
           id="g1151"><path
             id="path1153"
             style="fill:#ff8b7b;fill-opacity:1;fill-rule:nonzero;stroke:none"
             d="m 0,0 c -0.895,-7.458 -1.041,-11.847 -5.032,-15.675 -6.004,-5.758 -15.01,-2.342 -16.353,5.102 -1.209,6.701 0.458,17.772 7.933,20.74 C -6.089,13.092 0.896,7.458 0,0" /></g><g
           transform="translate(360.7734,382.335)"
           id="g1155"><path
             id="path1157"
             style="fill:#1a2e35;fill-opacity:1;fill-rule:nonzero;stroke:none"
             d="M 0,0 C 5.532,1.416 9.604,2.379 8.15,-2.239 6.215,-8.391 3.894,-14.351 7.008,-14.628 c 1.893,-0.169 10.295,3.396 9.228,7 -0.929,3.14 2.976,3.987 3.696,5.588 2.593,5.766 -4.817,5.017 -3.497,8.506 1.284,3.397 -5.969,9.138 -9.988,6.333 -6.506,-4.54 -17.685,-4.475 -11.807,2.973 4.209,5.334 -3.302,4.239 -3.302,4.239 0,0 4.537,-2.691 -3.099,-6.851 C -19.854,8.75 -12.445,-3.184 0,0" /></g><g
           transform="translate(375.9453,368.5708)"
           id="g1159"><path
             id="path1161"
             style="fill:#ff8b7b;fill-opacity:1;fill-rule:nonzero;stroke:none"
             d="m 0,0 c -1.158,-1.715 -2.972,-2.781 -4.61,-3.136 -2.463,-0.535 -3.411,1.674 -2.489,3.897 0.83,2.001 3.114,4.69 5.472,4.229 C 0.696,4.536 1.325,1.96 0,0" /></g><g
           transform="translate(339.4004,282.0605)"
           id="g1163"><path
             id="path1165"
             style="fill:#007cff;fill-opacity:1;fill-rule:nonzero;stroke:none"
             d="m 0,0 c 0,0 -6.759,-60.497 -7.286,-83.457 -0.549,-23.882 22.908,-98.395 22.908,-98.395 l 12.011,5.044 c 0,0 -13.986,68.074 -12.043,91.528 C 17.708,-59.711 26.472,0 26.472,0 Z" /></g><g
           id="g1167"><g
             id="g1169" /><g
             id="g1181"><g
               style="opacity:0.19999701"
               id="g1179"
               clip-path="url(#clipPath1173)"><g
                 id="g1177"
                 transform="translate(356.1992,265.4487)"><path
                   id="path1175"
                   style="fill:#000000;fill-opacity:1;fill-rule:nonzero;stroke:none"
                   d="m 0,0 c -5.385,-11.18 -1.758,-33.285 1.161,-46.386 1.11,9.248 2.425,19.288 3.679,28.578 C 4.717,-3.524 3.606,7.501 0,0" /></g></g></g></g><g
           transform="translate(366.4902,109.1748)"
           id="g1183"><path
             id="path1185"
             style="fill:#007cff;fill-opacity:1;fill-rule:nonzero;stroke:none"
             d="m 0,0 c 0.056,0.023 1.424,-3.828 1.424,-3.828 l -13.844,-5.814 -2.182,4.056 z" /></g><g
           transform="translate(353.6865,282.0605)"
           id="g1187"><path
             id="path1189"
             style="fill:#007cff;fill-opacity:1;fill-rule:nonzero;stroke:none"
             d="m 0,0 c 0,0 5.171,-57.538 8.598,-79.095 3.753,-23.605 18.495,-102.236 18.495,-102.236 h 13.79 c 0,0 -8.263,76.726 -9.823,100.097 C 29.365,-55.868 25.984,0 25.984,0 Z" /></g><g
           transform="translate(394.7803,104.3232)"
           id="g1191"><path
             id="path1193"
             style="fill:#007cff;fill-opacity:1;fill-rule:nonzero;stroke:none"
             d="m 0,0 c 0.059,0 0.461,-3.854 0.461,-3.854 h -15.157 l -1.082,4.425 z" /></g><g
           id="g1195"><g
             id="g1197" /><g
             id="g1209"><g
               style="opacity:0.19999701"
               id="g1207"
               clip-path="url(#clipPath1201)"><g
                 id="g1205"
                 transform="translate(389.4971,108.8779)"><path
                   id="path1203"
                   style="fill:#000000;fill-opacity:1;fill-rule:nonzero;stroke:none"
                   d="m 0,0 c -0.065,0 -0.12,0.049 -0.127,0.114 -0.075,0.698 -7.526,69.967 -8.929,90.965 -1.521,22.787 -4.58,73.312 -4.611,73.82 -0.004,0.071 0.05,0.131 0.12,0.136 h 0.009 c 0.066,0 0.124,-0.053 0.128,-0.121 0.03,-0.507 3.089,-51.032 4.611,-73.817 C -7.397,70.104 0.053,0.839 0.128,0.142 0.136,0.07 0.085,0.008 0.015,0.001 0.009,0 0.004,0 0,0" /></g></g></g></g><g
           transform="translate(361.624,374.707)"
           id="g1211"><path
             id="path1213"
             style="fill:#1a2e35;fill-opacity:1;fill-rule:nonzero;stroke:none"
             d="m 0,0 c -0.035,-0.607 -0.387,-1.1 -0.783,-1.1 -0.397,0 -0.69,0.493 -0.654,1.1 0.035,0.607 0.386,1.1 0.783,1.1 C -0.257,1.1 0.036,0.607 0,0" /></g><g
           transform="translate(354.7598,374.707)"
           id="g1215"><path
             id="path1217"
             style="fill:#1a2e35;fill-opacity:1;fill-rule:nonzero;stroke:none"
             d="m 0,0 c -0.035,-0.607 -0.386,-1.1 -0.783,-1.1 -0.397,0 -0.69,0.493 -0.654,1.1 0.036,0.607 0.386,1.1 0.783,1.1 C -0.257,1.1 0.036,0.607 0,0" /></g><g
           transform="translate(356.9248,374.4048)"
           id="g1219"><path
             id="path1221"
             style="fill:#ff5652;fill-opacity:1;fill-rule:nonzero;stroke:none"
             d="m 0,0 c 0,0 -1.587,-3.503 -3.206,-5.194 1.016,-1.002 2.869,-0.544 2.869,-0.544 z" /></g><g
           transform="translate(357.0986,366.1191)"
           id="g1223"><path
             id="path1225"
             style="fill:#1a2e35;fill-opacity:1;fill-rule:nonzero;stroke:none"
             d="m 0,0 c -0.098,0 -0.174,0.08 -0.168,0.178 0.006,0.099 0.091,0.179 0.189,0.179 2.666,0 4.019,1.862 4.033,1.88 C 4.113,2.32 4.226,2.343 4.304,2.289 4.383,2.235 4.399,2.125 4.341,2.042 4.281,1.959 2.857,0 0,0" /></g><g
           transform="translate(362.8447,376.5542)"
           id="g1227"><path
             id="path1229"
             style="fill:#1a2e35;fill-opacity:1;fill-rule:nonzero;stroke:none"
             d="M 0,0 C -0.103,-0.04 -0.22,-0.034 -0.314,0.027 -1.627,0.853 -2.85,0.299 -2.862,0.292 -3.03,0.206 -3.253,0.282 -3.328,0.459 -3.403,0.637 -3.315,0.851 -3.133,0.936 -3.068,0.967 -1.536,1.662 0.091,0.637 0.254,0.534 0.294,0.314 0.182,0.147 0.137,0.078 0.071,0.028 0,0" /></g><g
           transform="translate(352.1064,378.5488)"
           id="g1231"><path
             id="path1233"
             style="fill:#1a2e35;fill-opacity:1;fill-rule:nonzero;stroke:none"
             d="m 0,0 c -0.05,0.014 -0.097,0.039 -0.137,0.077 -0.138,0.13 -0.139,0.355 0,0.503 C 1.26,2.055 2.878,1.83 2.945,1.82 3.136,1.799 3.263,1.61 3.222,1.415 3.182,1.22 2.993,1.086 2.801,1.114 2.747,1.122 1.483,1.283 0.368,0.106 0.27,0.001 0.124,-0.036 0,0" /></g><g
           transform="translate(389.7295,337.6831)"
           id="g1235"><path
             id="path1237"
             style="fill:#ff8b7b;fill-opacity:1;fill-rule:nonzero;stroke:none"
             d="m 0,0 -10.402,2.769 c 0,0 -10.202,-25.107 -13.804,-26.747 -4.902,-2.231 -17.317,-9.947 -22.593,-13.668 -0.292,-1.243 -0.062,-4.56 0.602,-5.462 8.97,1.63 26.229,8.265 29.829,11.637 C -8.162,-23.782 0,0 0,0" /></g><g
           transform="translate(381.4443,91.6611)"
           id="g1239"><path
             id="path1241"
             style="fill:#007cff;fill-opacity:1;fill-rule:nonzero;stroke:none"
             d="M 0,0 C -0.094,0 -0.173,-0.015 -0.234,-0.045 -0.284,-0.07 -0.343,-0.116 -0.358,-0.254 -0.394,-0.538 -0.327,-0.75 -0.155,-0.901 0.235,-1.249 1.217,-1.295 2.51,-1.037 1.688,-0.545 0.576,0 0,0 m 1.026,-1.558 c -0.572,0 -1.102,0.098 -1.426,0.383 -0.257,0.228 -0.363,0.545 -0.314,0.944 0.036,0.296 0.202,0.437 0.335,0.503 0.85,0.427 3.198,-1.064 3.464,-1.235 0.058,-0.039 0.086,-0.11 0.07,-0.182 C 3.14,-1.214 3.083,-1.271 3.013,-1.288 2.482,-1.414 1.723,-1.558 1.026,-1.558" /></g><g
           transform="translate(383.0742,93.4199)"
           id="g1243"><path
             id="path1245"
             style="fill:#007cff;fill-opacity:1;fill-rule:nonzero;stroke:none"
             d="M 0,0 C -0.026,0 -0.053,-0.003 -0.081,-0.005 -0.314,-0.033 -0.341,-0.141 -0.352,-0.185 -0.476,-0.681 0.411,-1.928 1.151,-2.516 1.101,-1.881 0.935,-0.614 0.4,-0.156 0.278,-0.052 0.147,0 0,0 m 1.341,-3.052 c -0.029,0 -0.059,0.007 -0.084,0.021 -0.755,0.424 -2.164,2.073 -1.955,2.913 0.037,0.151 0.165,0.415 0.594,0.467 C 0.178,0.384 0.427,0.306 0.643,0.12 1.476,-0.595 1.528,-2.768 1.529,-2.859 1.531,-2.925 1.496,-2.988 1.439,-3.022 1.409,-3.042 1.375,-3.052 1.341,-3.052" /></g><g
           transform="translate(354.291,92.5352)"
           id="g1247"><path
             id="path1249"
             style="fill:#007cff;fill-opacity:1;fill-rule:nonzero;stroke:none"
             d="m 0,0 c -0.136,-0.033 -0.244,-0.08 -0.315,-0.143 -0.063,-0.056 -0.086,-0.12 -0.077,-0.211 0.027,-0.239 0.13,-0.405 0.317,-0.506 0.531,-0.289 1.764,-0.061 3.351,0.603 C 2.16,-0.023 0.702,0.171 0,0 M 1.626,-1.188 C 0.89,-1.366 0.187,-1.419 -0.26,-1.176 c -0.285,0.155 -0.449,0.412 -0.486,0.764 -0.024,0.209 0.047,0.392 0.203,0.529 C 0.263,0.835 3.524,0.064 3.895,-0.026 3.967,-0.044 4.018,-0.106 4.021,-0.182 4.024,-0.258 3.979,-0.329 3.908,-0.362 3.303,-0.638 2.443,-0.99 1.626,-1.188" /></g><g
           transform="translate(355.8018,94.6875)"
           id="g1251"><path
             id="path1253"
             style="fill:#007cff;fill-opacity:1;fill-rule:nonzero;stroke:none"
             d="M 0,0 C -0.035,-0.008 -0.069,-0.02 -0.104,-0.031 -0.415,-0.14 -0.412,-0.267 -0.411,-0.309 -0.399,-0.825 1.038,-1.774 2.053,-2.095 1.851,-1.543 1.364,-0.429 0.652,-0.078 0.437,0.028 0.223,0.055 0,0 m 2.364,-2.525 c -0.025,-0.006 -0.05,-0.006 -0.075,-0.003 -0.969,0.179 -3.038,1.33 -3.058,2.191 -0.004,0.201 0.09,0.477 0.564,0.641 0.344,0.129 0.698,0.103 1.03,-0.06 1.086,-0.536 1.654,-2.456 1.679,-2.538 0.017,-0.06 0,-0.125 -0.044,-0.174 C 2.435,-2.497 2.4,-2.517 2.364,-2.525" /></g><g
           transform="translate(343.7783,300.6274)"
           id="g1255"><path
             id="path1257"
             style="fill:#ff8b7b;fill-opacity:1;fill-rule:nonzero;stroke:none"
             d="m 0,0 -10.428,-4.8 -1.21,-2.943 3.854,-2.592 c 0,0 7.192,0.782 9.241,5.404 z" /></g><g
           transform="translate(344.2217,294.4043)"
           id="g1259"><path
             id="path1261"
             style="fill:#1a2e35;fill-opacity:1;fill-rule:nonzero;stroke:none"
             d="m 0,0 c -0.652,3.874 -1.926,5.641 -1.937,5.659 l 1.643,1.232 C -0.229,6.807 1.282,4.766 2.027,0.341 Z" /></g><g
           transform="translate(345.998,299.209)"
           id="g1263"><path
             id="path1265"
             style="fill:#1a2e35;fill-opacity:1;fill-rule:nonzero;stroke:none"
             d="m 0,0 c 0.338,-0.836 -0.205,-1.845 -1.214,-2.252 -1.009,-0.408 -2.1,-0.061 -2.438,0.776 -0.338,0.836 0.205,1.845 1.214,2.253 C -1.43,1.185 -0.338,0.837 0,0" /></g><g
           transform="translate(326.3037,291.9517)"
           id="g1267"><path
             id="path1269"
             style="fill:#ff8b7b;fill-opacity:1;fill-rule:nonzero;stroke:none"
             d="M 0,0 1.386,-1.403 10.742,2.599 7.047,3.876 Z" /></g><g
           id="g1271"><g
             id="g1273" /><g
             id="g1285"><g
               style="opacity:0.19999701"
               id="g1283"
               clip-path="url(#clipPath1277)"><g
                 id="g1281"
                 transform="translate(366.4902,109.1748)"><path
                   id="path1279"
                   style="fill:#000000;fill-opacity:1;fill-rule:nonzero;stroke:none"
                   d="m 0,0 c 0.056,0.023 1.424,-3.828 1.424,-3.828 l -13.844,-5.814 -2.182,4.056 z" /></g></g></g></g><g
           id="g1287"><g
             id="g1289" /><g
             id="g1301"><g
               style="opacity:0.19999701"
               id="g1299"
               clip-path="url(#clipPath1293)"><g
                 id="g1297"
                 transform="translate(394.7803,104.3232)"><path
                   id="path1295"
                   style="fill:#000000;fill-opacity:1;fill-rule:nonzero;stroke:none"
                   d="m 0,0 c 0.059,0 0.461,-3.854 0.461,-3.854 h -15.157 l -1.082,4.425 z" /></g></g></g></g><g
           transform="translate(392.4414,340.5605)"
           id="g1303"><path
             id="path1305"
             style="fill:#007cff;fill-opacity:1;fill-rule:nonzero;stroke:none"
             d="m 0,0 c 2.752,-8.867 -7.96,-20.98 -7.96,-20.98 l -14.848,6.06 c 0,0 2.093,6.442 6.074,15.072 C -12.209,9.962 -2.777,8.949 0,0" /></g><g
           id="g1307"><g
             id="g1309" /><g
             id="g1321"><g
               style="opacity:0.19999701"
               id="g1319"
               clip-path="url(#clipPath1313)"><g
                 id="g1317"
                 transform="translate(392.4414,340.5605)"><path
                   id="path1315"
                   style="fill:#000000;fill-opacity:1;fill-rule:nonzero;stroke:none"
                   d="m 0,0 c 2.752,-8.867 -7.96,-20.98 -7.96,-20.98 l -14.848,6.06 c 0,0 2.093,6.442 6.074,15.072 C -12.209,9.962 -2.777,8.949 0,0" /></g></g></g></g><path
           style="opacity:1;fill:#003266;fill-opacity:1;stroke:none;stroke-width:0.70621467;stroke-opacity:1"
           d="m 471.8905,526.76752 c -0.1889,-0.31182 -1.94333,-5.96948 -3.89873,-12.57259 -15.86671,-53.57968 -24.84205,-94.03937 -24.84205,-111.98487 0,-6.70588 1.59899,-29.62373 3.5688,-51.15072 1.9891,-21.73777 5.57265,-56.88946 5.99361,-58.79238 l 0.35151,-1.58898 h 26.4696 c 22.9277,0 26.46959,0.1402 26.46959,1.04774 0,2.9679 6.49399,104.32205 7.42154,115.83079 1.31144,16.27191 5.04229,54.77247 8.8388,91.2121 1.5441,14.82061 2.80746,27.29412 2.80746,27.71892 0,0.51885 -2.97139,0.77237 -9.0524,0.77237 h -9.05239 l -1.49407,-8.29802 c -0.82174,-4.56391 -5.78357,-31.81497 -11.0263,-60.55791 -10.17039,-55.7585 -11.52505,-63.94216 -14.25278,-86.10238 -1.62969,-13.2397 -5.8836,-52.54283 -6.03934,-55.79929 -0.0404,-0.84427 -0.52006,-0.11978 -1.13751,1.71805 -2.66389,7.92908 -1.75486,31.14776 1.9216,49.08192 1.30125,6.34762 1.30063,6.37719 -0.47469,22.59887 -1.45494,13.2944 -1.70326,18.23 -1.3679,27.18927 0.76152,20.34471 5.00822,51.24809 12.62237,91.85332 l 2.32598,12.40417 -7.36969,2.77944 c -4.05332,1.5287 -7.6104,2.87568 -7.90461,2.99329 -0.29422,0.1176 -0.6895,-0.0413 -0.8784,-0.35311 z m 47.31101,-9.21807 c -0.17763,-0.67973 -0.32297,-0.12359 -0.32297,1.23587 0,1.35947 0.14534,1.91561 0.32297,1.23588 0.17763,-0.67973 0.17763,-1.79202 0,-2.47175 z m -0.69355,-6.70081 c -0.16892,-0.87846 -0.31355,-0.32603 -0.32139,1.22764 -0.008,1.55368 0.13038,2.27243 0.30714,1.59722 0.17676,-0.6752 0.18317,-1.94639 0.0143,-2.82486 z m -0.71888,-6.71727 c -0.17763,-0.67973 -0.32297,-0.12359 -0.32297,1.23588 0,1.35946 0.14534,1.9156 0.32297,1.23587 0.17763,-0.67973 0.17763,-1.79202 0,-2.47175 z m -0.69355,-6.70081 c -0.16892,-0.87846 -0.31355,-0.32603 -0.32138,1.22765 -0.008,1.55367 0.13037,2.27242 0.30713,1.59721 0.17676,-0.6752 0.18317,-1.94639 0.0143,-2.82486 z m -0.70622,-7.06214 c -0.16891,-0.87847 -0.31354,-0.32603 -0.32138,1.22764 -0.008,1.55367 0.13037,2.27242 0.30713,1.59722 0.17676,-0.67521 0.18317,-1.94639 0.0143,-2.82486 z m -0.70621,-6.35593 c -0.16892,-0.87847 -0.31355,-0.32604 -0.32138,1.22764 -0.008,1.55367 0.13037,2.27242 0.30713,1.59721 0.17676,-0.6752 0.18317,-1.94639 0.0143,-2.82485 z m -0.70621,-7.06215 c -0.16892,-0.87847 -0.31355,-0.32603 -0.32139,1.22764 -0.008,1.55367 0.13038,2.27242 0.30713,1.59722 0.17676,-0.67521 0.18317,-1.94639 0.0143,-2.82486 z m -0.70622,-6.35593 c -0.16892,-0.87847 -0.31354,-0.32603 -0.32138,1.22764 -0.008,1.55367 0.13037,2.27242 0.30713,1.59722 0.17676,-0.67521 0.18317,-1.9464 0.0143,-2.82486 z m -0.70621,-7.06215 c -0.16892,-0.87847 -0.31355,-0.32603 -0.32139,1.22764 -0.008,1.55367 0.13038,2.27242 0.30713,1.59722 0.17676,-0.67521 0.18318,-1.94639 0.0143,-2.82486 z m -0.7073,-7.7766 c -0.16833,-0.87394 -0.30605,-0.15889 -0.30605,1.58899 0,1.74788 0.13772,2.46292 0.30605,1.58898 0.16833,-0.87394 0.16833,-2.30403 0,-3.17797 z m -0.70621,-7.06214 c -0.16833,-0.87394 -0.30605,-0.1589 -0.30605,1.58898 0,1.74788 0.13772,2.46292 0.30605,1.58898 0.16833,-0.87394 0.16833,-2.30402 0,-3.17796 z m -0.70622,-7.06215 c -0.16833,-0.87394 -0.30605,-0.1589 -0.30605,1.58898 0,1.74788 0.13772,2.46293 0.30605,1.58899 0.16833,-0.87394 0.16833,-2.30403 0,-3.17797 z m -0.70621,-7.06215 c -0.16833,-0.87394 -0.30605,-0.1589 -0.30605,1.58899 0,1.74788 0.13772,2.46292 0.30605,1.58898 0.16833,-0.87394 0.16833,-2.30403 0,-3.17797 z m -0.70514,-7.05391 c -0.16892,-0.87847 -0.31354,-0.32603 -0.32138,1.22764 -0.008,1.55367 0.13037,2.27242 0.30713,1.59722 0.17676,-0.67521 0.18317,-1.94639 0.0143,-2.82486 z m -0.70729,-7.7766 c -0.16833,-0.87394 -0.30605,-0.15889 -0.30605,1.58899 0,1.74788 0.13772,2.46292 0.30605,1.58898 0.16833,-0.87394 0.16833,-2.30403 0,-3.17797 z m -0.69785,-8.11175 c -0.16232,-1.07349 -0.29947,-0.36282 -0.30478,1.57927 -0.005,1.94209 0.12751,2.8204 0.29514,1.9518 0.16763,-0.8686 0.17197,-2.45759 0.01,-3.53107 z m -0.70715,-9.19051 c -0.16181,-1.06815 -0.2942,-0.1942 -0.2942,1.94209 0,2.1363 0.13239,3.01024 0.2942,1.9421 0.16181,-1.06815 0.16181,-2.81604 0,-3.88419 z m -0.70023,-10.22746 c -0.15717,-1.26932 -0.28902,-0.40107 -0.29298,1.92944 -0.004,2.33051 0.12464,3.36904 0.28577,2.30785 0.16114,-1.0612 0.16439,-2.96798 0.007,-4.23729 z m -0.70716,-11.31208 c -0.15665,-1.26236 -0.28483,-0.22952 -0.28483,2.29519 0,2.52472 0.12818,3.55756 0.28483,2.2952 0.15666,-1.26236 0.15666,-3.32803 0,-4.59039 z m -0.70621,-11.29944 c -0.15666,-1.26236 -0.28483,-0.22952 -0.28483,2.2952 0,2.52472 0.12817,3.55756 0.28483,2.2952 0.15666,-1.26236 0.15666,-3.32804 0,-4.5904 z m -0.70527,-10.58057 c -0.15718,-1.26932 -0.28902,-0.40107 -0.29298,1.92944 -0.004,2.33051 0.12463,3.36904 0.28577,2.30785 0.16114,-1.0612 0.16438,-2.96798 0.007,-4.23729 z M 504.396,347.71746 c -0.15717,-1.26931 -0.28901,-0.40106 -0.29298,1.92945 -0.004,2.3305 0.12464,3.36904 0.28578,2.30784 0.16114,-1.06119 0.16438,-2.96797 0.007,-4.23729 z m -0.70715,-11.31208 c -0.15666,-1.26236 -0.28484,-0.22952 -0.28484,2.2952 0,2.52472 0.12818,3.55756 0.28484,2.2952 0.15665,-1.26236 0.15665,-3.32804 0,-4.5904 z m -0.70622,-12.00565 c -0.15666,-1.26236 -0.28483,-0.22952 -0.28483,2.2952 0,2.52472 0.12817,3.55756 0.28483,2.2952 0.15666,-1.26236 0.15666,-3.32804 0,-4.5904 z m -0.70621,-11.29943 c -0.15666,-1.26236 -0.28484,-0.22952 -0.28484,2.29519 0,2.52472 0.12818,3.55756 0.28484,2.2952 0.15665,-1.26236 0.15665,-3.32804 0,-4.59039 z m -0.71869,-9.88701 c -0.16833,-0.87394 -0.30605,-0.1589 -0.30605,1.58898 0,1.74788 0.13772,2.46293 0.30605,1.58899 0.16833,-0.87394 0.16833,-2.30403 0,-3.17797 z"
           id="path1300"
           inkscape:connector-curvature="0"
           transform="matrix(0.75000002,0,0,-0.75000002,0,500.00002)" /><path
           style="opacity:1;fill:#000000;fill-opacity:1;stroke:none;stroke-width:0.70621467;stroke-opacity:1"
           d="m 475.71752,373.19872 c -0.0451,-1.41797 -0.70348,-6.21386 -1.46316,-10.65753 -2.6242,-15.34989 -3.14606,-40.69794 -0.91979,-44.67606 0.54327,-0.97078 0.8144,-0.15132 1.19454,3.61044 0.27047,2.67644 1.25872,11.76501 2.19613,20.19682 1.63173,14.67721 1.65922,15.68548 0.64493,23.65819 -1.26589,9.95039 -1.54436,11.27616 -1.65265,7.86814 z"
           id="path1302"
           inkscape:connector-curvature="0"
           transform="matrix(0.75000002,0,0,-0.75000002,0,500.00002)" /></g></g><path
       id="path1323"
       style="fill:#007cff;fill-opacity:1;fill-rule:nonzero;stroke:none"
       d="m 244.875,428.403 h -6.387 v 1.027 h 6.387 z" /><g
       transform="translate(327.8564,371.4604)"
       id="g1325"><path
         id="path1327"
         style="fill:#007cff;fill-opacity:1;fill-rule:nonzero;stroke:none"
         d="m 0,0 -1.025,0.046 0.766,17.16 1.026,-0.047 z" /></g><g
       transform="translate(325.6123,424.8062)"
       id="g1329"><path
         id="path1331"
         style="fill:#007cff;fill-opacity:1;fill-rule:nonzero;stroke:none"
         d="m 0,0 h -117.999 l -10.984,-245.719 h 117.999 z" /></g><g
       id="g1333"><g
         clip-path="url(#clipPath1339)"
         id="g1335"><g
           id="g1341"><g
             id="g1343" /><g
             id="g1355"><g
               style="opacity:0.55999798"
               id="g1353"
               clip-path="url(#clipPath1347)"><g
                 id="g1351"
                 transform="translate(322.0898,421.4341)"><path
                   id="path1349"
                   style="fill:#fafafa;fill-opacity:1;fill-rule:nonzero;stroke:none"
                   d="m 0,0 h -117.999 l -10.984,-245.719 h 117.999 z" /></g></g></g></g><g
           id="g1357"><g
             id="g1359" /><g
             id="g1371"><g
               style="opacity:0.07000732"
               id="g1369"
               clip-path="url(#clipPath1363)"><g
                 id="g1367"
                 transform="translate(318.5674,418.0625)"><path
                   id="path1365"
                   style="fill:#007cff;fill-opacity:1;fill-rule:nonzero;stroke:none"
                   d="m 0,0 h -117.999 l -10.984,-245.719 h 117.999 z" /></g></g></g></g></g></g><g
       transform="translate(305.66536,316.72077)"
       id="g1373"><path
         id="path1375"
         style="fill:#ffffff;fill-opacity:1;fill-rule:nonzero;stroke:none"
         d="m 0,0 h -100.717 l -0.841,-18.807 H -0.84 Z"
         inkscape:connector-curvature="0" /></g><g
       transform="translate(260.34416,330.43617)"
       id="g1377"><path
         id="path1379"
         style="fill:#007cff;fill-opacity:1;fill-rule:nonzero;stroke:none"
         d="m 0,0 h -54.783 l -0.376,-8.414 h 54.783 z"
         inkscape:connector-curvature="0" /></g><g
       transform="translate(304.45718,277.62971)"
       id="g1381"><path
         id="path1383"
         style="fill:#ffffff;fill-opacity:1;fill-rule:nonzero;stroke:none"
         d="m 0,0 h -100.718 l -0.841,-18.806 H -0.841 Z"
         inkscape:connector-curvature="0" /></g><g
       id="g1393"><g
         id="g1395" /><g
         id="g1407"><g
           style="opacity:0.47000104"
           id="g1405"
           clip-path="url(#clipPath1399)"><g
             id="g1403"
             transform="translate(284.3984,215.9639)"><path
               id="path1401"
               style="fill:#007cff;fill-opacity:1;fill-rule:nonzero;stroke:none"
               d="m 0,0 h -67.729 l -1.008,-22.539 h 67.729 z"
               inkscape:connector-curvature="0" /></g></g></g></g><g
       transform="translate(212.2637,190.1719)"
       id="g1409"><path
         id="path1411"
         style="fill:#ffffff;fill-opacity:1;fill-rule:nonzero;stroke:none"
         d="m 0,0 h 67.49 l 0.997,22.301 H 0.997 Z M 67.604,-0.238 H -0.124 c -0.032,0 -0.063,0.013 -0.086,0.037 -0.022,0.023 -0.035,0.055 -0.033,0.087 l 1.008,22.54 c 0.002,0.063 0.055,0.114 0.118,0.114 h 67.728 c 0.033,0 0.064,-0.015 0.087,-0.037 0.022,-0.024 0.034,-0.056 0.031,-0.088 L 67.723,-0.124 c -0.002,-0.064 -0.056,-0.114 -0.119,-0.114"
         inkscape:connector-curvature="0" /></g><g
       transform="translate(249.56648,291.34501)"
       id="g1413"><path
         id="path1415"
         style="fill:#007cff;fill-opacity:1;fill-rule:nonzero;stroke:none"
         d="M 0,0 H -45.214 L -45.59,-8.414 H -0.376 Z"
         inkscape:connector-curvature="0" /></g><g
       transform="translate(283.1055,371.6211)"
       id="g1417"><path
         id="path1419"
         style="fill:#ffffff;fill-opacity:1;fill-rule:nonzero;stroke:none"
         d="m 0,0 c -0.252,-5.631 -2.293,-10.831 -5.564,-15.054 -4.942,-6.403 -12.681,-10.564 -21.2,-10.564 -8.518,0 -15.875,4.161 -20.244,10.564 -2.894,4.223 -4.471,9.423 -4.219,15.054 0.633,14.15 12.614,25.619 26.753,25.619 C -10.323,25.619 0.633,14.15 0,0"
         inkscape:connector-curvature="0" /></g><g
       transform="translate(285.5156,391.877)"
       id="g1421"><path
         id="path1423"
         style="fill:#007cff;fill-opacity:1;fill-rule:nonzero;stroke:none"
         d="m 0,0 c -0.067,-1.496 -0.609,-2.878 -1.479,-4 -1.313,-1.701 -3.37,-2.807 -5.633,-2.807 -2.264,0 -4.218,1.106 -5.379,2.807 -0.769,1.122 -1.188,2.504 -1.121,4 0.168,3.76 3.351,6.807 7.109,6.807 C -2.743,6.807 0.168,3.76 0,0"
         inkscape:connector-curvature="0" /></g><g
       transform="translate(215.79476,307.31747)"
       id="g1425"><path
         id="path1427"
         style="fill:#1a2e35;fill-opacity:1;fill-rule:nonzero;stroke:none"
         d="m 0,0 c -0.074,-1.665 -1.484,-3.014 -3.148,-3.014 -1.664,0 -2.953,1.349 -2.879,3.014 0.074,1.664 1.484,3.013 3.149,3.013 C -1.214,3.013 0.074,1.664 0,0"
         inkscape:connector-curvature="0" /></g><g
       transform="translate(229.28206,307.31747)"
       id="g1429"><path
         id="path1431"
         style="fill:#1a2e35;fill-opacity:1;fill-rule:nonzero;stroke:none"
         d="m 0,0 c -0.074,-1.665 -1.484,-3.014 -3.148,-3.014 -1.664,0 -2.953,1.349 -2.879,3.014 0.074,1.664 1.484,3.013 3.148,3.013 C -1.214,3.013 0.074,1.664 0,0"
         inkscape:connector-curvature="0" /></g><g
       transform="translate(242.76936,307.31747)"
       id="g1433"><path
         id="path1435"
         style="fill:#1a2e35;fill-opacity:1;fill-rule:nonzero;stroke:none"
         d="m 0,0 c -0.074,-1.665 -1.484,-3.014 -3.148,-3.014 -1.664,0 -2.953,1.349 -2.879,3.014 0.074,1.664 1.484,3.013 3.148,3.013 C -1.214,3.013 0.074,1.664 0,0"
         inkscape:connector-curvature="0" /></g><g
       transform="translate(214.58558,268.22641)"
       id="g1437"><path
         id="path1439"
         style="fill:#1a2e35;fill-opacity:1;fill-rule:nonzero;stroke:none"
         d="m 0,0 c -0.074,-1.664 -1.484,-3.013 -3.148,-3.013 -1.664,0 -2.953,1.349 -2.879,3.013 0.075,1.665 1.484,3.014 3.149,3.014 C -1.214,3.014 0.075,1.665 0,0"
         inkscape:connector-curvature="0" /></g><g
       transform="translate(228.07288,268.22641)"
       id="g1441"><path
         id="path1443"
         style="fill:#1a2e35;fill-opacity:1;fill-rule:nonzero;stroke:none"
         d="m 0,0 c -0.074,-1.664 -1.484,-3.013 -3.148,-3.013 -1.664,0 -2.953,1.349 -2.879,3.013 0.075,1.665 1.484,3.014 3.149,3.014 C -1.214,3.014 0.075,1.665 0,0"
         inkscape:connector-curvature="0" /></g><g
       transform="translate(241.56018,268.22641)"
       id="g1445"><path
         id="path1447"
         style="fill:#1a2e35;fill-opacity:1;fill-rule:nonzero;stroke:none"
         d="m 0,0 c -0.074,-1.664 -1.484,-3.013 -3.148,-3.013 -1.664,0 -2.953,1.349 -2.879,3.013 0.075,1.665 1.484,3.014 3.149,3.014 C -1.214,3.014 0.075,1.665 0,0"
         inkscape:connector-curvature="0" /></g><g
       transform="translate(255.04798,268.22641)"
       id="g1449"><path
         id="path1451"
         style="fill:#1a2e35;fill-opacity:1;fill-rule:nonzero;stroke:none"
         d="m 0,0 c -0.075,-1.664 -1.484,-3.013 -3.148,-3.013 -1.665,0 -2.954,1.349 -2.879,3.013 0.074,1.665 1.484,3.014 3.148,3.014 C -1.215,3.014 0.074,1.665 0,0"
         inkscape:connector-curvature="0" /></g><g
       transform="translate(268.53428,268.22641)"
       id="g1453"><path
         id="path1455"
         style="fill:#1a2e35;fill-opacity:1;fill-rule:nonzero;stroke:none"
         d="m 0,0 c -0.074,-1.664 -1.483,-3.013 -3.147,-3.013 -1.665,0 -2.954,1.349 -2.879,3.013 0.074,1.665 1.483,3.014 3.148,3.014 C -1.214,3.014 0.075,1.665 0,0"
         inkscape:connector-curvature="0" /></g><g
       transform="translate(268.2363,380.1841)"
       id="g1457"><path
         id="path1459"
         style="fill:#007cff;fill-opacity:1;fill-rule:nonzero;stroke:none"
         d="m 0,0 c -0.256,-5.723 -5.103,-10.361 -10.824,-10.361 -5.723,0 -10.155,4.638 -9.899,10.361 0.256,5.722 5.102,10.361 10.825,10.361 C -4.176,10.361 0.256,5.722 0,0"
         inkscape:connector-curvature="0" /></g><g
       transform="translate(277.541,356.5669)"
       id="g1461"><path
         id="path1463"
         style="fill:#007cff;fill-opacity:1;fill-rule:nonzero;stroke:none"
         d="m 0,0 c -4.941,-6.402 -12.681,-10.564 -21.199,-10.564 -8.519,0 -15.876,4.162 -20.244,10.564 4.86,4.84 12.554,7.984 21.073,7.984 C -11.841,7.984 -4.429,4.84 0,0"
         inkscape:connector-curvature="0" /></g><g
       id="g1465"><g
         id="g1467" /><g
         id="g1479"><g
           style="opacity:0.10000598"
           id="g1477"
           clip-path="url(#clipPath1471)"><g
             id="g1475"
             transform="translate(268.2363,380.1841)"><path
               id="path1473"
               style="fill:#ffffff;fill-opacity:1;fill-rule:nonzero;stroke:none"
               d="m 0,0 c -0.256,-5.723 -5.103,-10.361 -10.824,-10.361 -5.723,0 -10.155,4.638 -9.899,10.361 0.256,5.722 5.102,10.361 10.825,10.361 C -4.176,10.361 0.256,5.722 0,0"
               inkscape:connector-curvature="0" /></g></g></g></g><g
       id="g1481"><g
         id="g1483" /><g
         id="g1495"><g
           style="opacity:0.10000598"
           id="g1493"
           clip-path="url(#clipPath1487)"><g
             id="g1491"
             transform="translate(277.541,356.5669)"><path
               id="path1489"
               style="fill:#ffffff;fill-opacity:1;fill-rule:nonzero;stroke:none"
               d="m 0,0 c -4.941,-6.402 -12.681,-10.564 -21.199,-10.564 -8.519,0 -15.876,4.162 -20.244,10.564 4.86,4.84 12.554,7.984 21.073,7.984 C -11.841,7.984 -4.429,4.84 0,0"
               inkscape:connector-curvature="0" /></g></g></g></g><g
       id="g1497"><g
         clip-path="url(#clipPath1503)"
         id="g1499"><g
           transform="translate(130.4077,287.5571)"
           id="g1505"><path
             id="path1507"
             style="fill:#ff8b7b;fill-opacity:1;fill-rule:nonzero;stroke:none"
             d="m 0,0 c -0.948,-2.077 -1.944,-4.362 -2.819,-6.591 -0.883,-2.25 -1.763,-4.503 -2.529,-6.786 -1.49,-4.567 -2.888,-9.178 -3.575,-13.8 l -0.228,-1.473 c -0.017,-0.177 -0.004,-0.429 0.073,-0.745 0.147,-0.635 0.543,-1.485 1.099,-2.319 1.126,-1.687 2.723,-3.395 4.443,-4.981 1.718,-1.612 3.582,-3.152 5.52,-4.616 1.919,-1.476 3.943,-2.921 5.924,-4.274 l -1.864,-3.509 c -4.758,2.079 -9.189,4.567 -13.481,7.687 -2.109,1.609 -4.194,3.34 -6.04,5.679 -0.91,1.18 -1.804,2.514 -2.39,4.273 -0.285,0.878 -0.482,1.872 -0.483,2.945 0.007,0.247 0.02,0.593 0.037,0.76 l 0.05,0.497 0.099,0.993 c 0.544,5.301 1.719,10.396 3.266,15.338 0.779,2.468 1.612,4.911 2.562,7.308 0.97,2.414 1.927,4.73 3.14,7.158 z" /></g><g
           transform="translate(136.9136,242.5674)"
           id="g1509"><path
             id="path1511"
             style="fill:#ff8b7b;fill-opacity:1;fill-rule:nonzero;stroke:none"
             d="M 0,0 7.066,3.585 5.241,-4.182 c 0,0 -4.852,-1.354 -7.109,1 z" /></g><g
           transform="translate(150.4512,244.8779)"
           id="g1513"><path
             id="path1515"
             style="fill:#ff8b7b;fill-opacity:1;fill-rule:nonzero;stroke:none"
             d="m 0,0 -1.88,-6.42 -6.417,-0.072 1.826,7.766 z" /></g><g
           transform="translate(160.4326,324.9985)"
           id="g1517"><path
             id="path1519"
             style="fill:#ff5652;fill-opacity:1;fill-rule:nonzero;stroke:none"
             d="M 0,0 C 0,0 0.613,-2.254 1.585,-3.954 0.75,-4.733 0,-4.462 0,-4.462 Z" /></g><g
           transform="translate(159.4741,326.0859)"
           id="g1521"><path
             id="path1523"
             style="fill:#1a2e35;fill-opacity:1;fill-rule:nonzero;stroke:none"
             d="m 0,0 c 0,-0.633 0.335,-1.146 0.749,-1.146 0.414,0 0.749,0.513 0.749,1.146 0,0.633 -0.335,1.146 -0.749,1.146 C 0.335,1.146 0,0.633 0,0" /></g><g
           transform="translate(160.0405,327.1968)"
           id="g1525"><path
             id="path1527"
             style="fill:#1a2e35;fill-opacity:1;fill-rule:nonzero;stroke:none"
             d="M 0,0 1.52,0.438 C 1.52,0.438 0.74,-0.75 0,0" /></g><g
           transform="translate(140.897,317.6641)"
           id="g1529"><path
             id="path1531"
             style="fill:#ff8b7b;fill-opacity:1;fill-rule:nonzero;stroke:none"
             d="m 0,0 c 0.913,-4.655 1.823,-13.185 -1.434,-16.292 0,0 1.273,-4.722 9.923,-4.722 9.512,0 4.546,4.722 4.546,4.722 -5.191,1.24 -5.057,5.091 -4.153,8.709 z" /></g><g
           transform="translate(138.3726,328.2583)"
           id="g1533"><path
             id="path1535"
             style="fill:#ff8b7b;fill-opacity:1;fill-rule:nonzero;stroke:none"
             d="m 0,0 c 0.477,-7.772 0.513,-11.071 4.438,-15.06 5.905,-6.001 15.346,-3.715 17.2,4.043 1.67,6.982 0.609,18.518 -6.998,21.612 C 7.145,13.642 -0.477,7.771 0,0" /></g><g
           transform="translate(139.1387,337.0518)"
           id="g1537"><path
             id="path1539"
             style="fill:#1a2e35;fill-opacity:1;fill-rule:nonzero;stroke:none"
             d="m 0,0 c -3.897,-1.421 -9.096,-0.364 -7.056,-12.393 2.16,-12.736 -1.165,-16.926 -1.165,-16.926 0,0 14.792,-3.151 29.892,0.188 0,0 -4.61,8.063 -3.317,13.945 1.65,7.503 0.343,10.276 0.343,10.276 0,0 -13.216,6.908 -18.697,4.91" /></g><g
           transform="translate(155.6401,324.2075)"
           id="g1541"><path
             id="path1543"
             style="fill:#ff8b7b;fill-opacity:1;fill-rule:nonzero;stroke:none"
             d="M 0,0 C -0.016,-1.54 0.524,-3.091 1.224,-4.168 2.278,-5.79 3.527,-5.129 3.84,-3.447 4.122,-1.933 3.913,0.735 2.564,1.77 1.235,2.789 0.019,1.761 0,0" /></g><g
           transform="translate(135.7539,335.6914)"
           id="g1545"><path
             id="path1547"
             style="fill:#1a2e35;fill-opacity:1;fill-rule:nonzero;stroke:none"
             d="M 0,0 C -1.125,3.145 4.219,7.982 15.517,5.97 26.814,3.958 27.31,-5.438 27.31,-5.438 l -2.286,2.713 0.102,-2.857 -11.61,-2.231 z" /></g><g
           transform="translate(136.7114,300.8442)"
           id="g1549"><path
             id="path1551"
             style="fill:#007cff;fill-opacity:1;fill-rule:nonzero;stroke:none"
             d="m 0,0 v 0 c -0.156,0.96 0.49,1.866 1.45,2.024 3.519,0.581 11.514,1.758 15.539,1.2 2.99,-0.414 3.781,-2.161 3.907,-3.588 0.094,-1.059 -0.782,-1.951 -1.843,-1.904 L 1.664,-1.482 C 0.828,-1.444 0.134,-0.826 0,0" /></g><g
           id="g1553"><g
             id="g1555" /><g
             id="g1567"><g
               style="opacity:0.60000598"
               id="g1565"
               clip-path="url(#clipPath1559)"><g
                 id="g1563"
                 transform="translate(136.7114,300.8442)"><path
                   id="path1561"
                   style="fill:#000000;fill-opacity:1;fill-rule:nonzero;stroke:none"
                   d="m 0,0 v 0 c -0.156,0.96 0.49,1.866 1.45,2.024 3.519,0.581 11.514,1.758 15.539,1.2 2.99,-0.414 3.781,-2.161 3.907,-3.588 0.094,-1.059 -0.782,-1.951 -1.843,-1.904 L 1.664,-1.482 C 0.828,-1.444 0.134,-0.826 0,0" /></g></g></g></g><g
           transform="translate(146.7603,126.1387)"
           id="g1569"><path
             id="path1571"
             style="fill:#ff8b7b;fill-opacity:1;fill-rule:nonzero;stroke:none"
             d="m 0,0 6.445,-4.475 10.791,14.626 -6.444,4.474 z" /></g><g
           transform="translate(131.7153,126.4336)"
           id="g1573"><path
             id="path1575"
             style="fill:#ff8b7b;fill-opacity:1;fill-rule:nonzero;stroke:none"
             d="m 0,0 6.817,-3.882 9.552,15.468 -6.817,3.883 z" /></g><g
           transform="translate(163.9922,136.2861)"
           id="g1577"><path
             id="path1579"
             style="fill:#ea7064;fill-opacity:1;fill-rule:nonzero;stroke:none"
             d="m 0,0 -5.561,-7.539 -6.447,4.476 5.561,7.54 z" /></g><g
           transform="translate(141.2627,141.8984)"
           id="g1581"><path
             id="path1583"
             style="fill:#ea7064;fill-opacity:1;fill-rule:nonzero;stroke:none"
             d="m 0,0 6.82,-3.884 -4.926,-7.97 -6.821,3.883 z" /></g><g
           transform="translate(152.1978,252.0117)"
           id="g1585"><path
             id="path1587"
             style="fill:#007cff;fill-opacity:1;fill-rule:nonzero;stroke:none"
             d="m 0,0 c 0,0 25.181,-31.735 20.457,-62.082 -3.816,-24.512 -25.913,-57.703 -25.913,-57.703 l -10.39,5.164 c 0,0 11.289,22.058 18.701,45.441 3.109,9.806 1.784,20.61 -4.028,29.098 -12.755,18.63 -33.19,7.545 -19.444,40.082 z" /></g><g
           id="g1589"><g
             id="g1591" /><g
             id="g1603"><g
               style="opacity:0.60000598"
               id="g1601"
               clip-path="url(#clipPath1595)"><g
                 id="g1599"
                 transform="translate(152.1978,252.0117)"><path
                   id="path1597"
                   style="fill:#000000;fill-opacity:1;fill-rule:nonzero;stroke:none"
                   d="m 0,0 c 0,0 25.181,-31.735 20.457,-62.082 -3.816,-24.512 -25.913,-57.703 -25.913,-57.703 l -10.39,5.164 c 0,0 11.289,22.058 18.701,45.441 3.109,9.806 1.784,20.61 -4.028,29.098 -12.755,18.63 -33.19,7.545 -19.444,40.082 z" /></g></g></g></g><g
           id="g1605"><g
             id="g1607" /><g
             id="g1619"><g
               style="opacity:0.39999402"
               id="g1617"
               clip-path="url(#clipPath1611)"><g
                 id="g1615"
                 transform="translate(164.5493,231.6201)"><path
                   id="path1613"
                   style="fill:#000000;fill-opacity:1;fill-rule:nonzero;stroke:none"
                   d="m 0,0 -3.659,3.638 c 0,-0.288 7.091,-44.054 9.085,-56.355 1.202,3.772 2.127,7.491 2.682,11.027 C 10.42,-26.831 5.559,-11.633 0,0" /></g></g></g></g><g
           transform="translate(163.4443,252.0117)"
           id="g1621"><path
             id="path1623"
             style="fill:#007cff;fill-opacity:1;fill-rule:nonzero;stroke:none"
             d="M 0,0 C 0,0 30.318,-39.88 31.171,-63.795 31.886,-83.833 -1.854,-122.54 -1.854,-122.54 l -9.795,6.337 c 0,0 19.729,27.517 24.695,50.011 C 11.152,-43.928 -29.495,0 -29.495,0 Z" /></g><g
           id="g1625"><g
             id="g1627" /><g
             id="g1639"><g
               style="opacity:0.60000598"
               id="g1637"
               clip-path="url(#clipPath1631)"><g
                 id="g1635"
                 transform="translate(163.4443,252.0117)"><path
                   id="path1633"
                   style="fill:#000000;fill-opacity:1;fill-rule:nonzero;stroke:none"
                   d="M 0,0 C 0,0 30.318,-39.88 31.171,-63.795 31.886,-83.833 -1.854,-122.54 -1.854,-122.54 l -9.795,6.337 c 0,0 19.729,27.517 24.695,50.011 C 11.152,-43.928 -29.495,0 -29.495,0 Z" /></g></g></g></g><g
           transform="translate(125.9326,299.5898)"
           id="g1641"><path
             id="path1643"
             style="fill:#007cff;fill-opacity:1;fill-rule:nonzero;stroke:none"
             d="m 0,0 c -3.247,-0.766 -6.35,-12.553 -6.35,-12.553 l 12.663,-8.453 c 0,0 4.22,9.316 2.747,13.397 C 7.525,-3.359 4.101,0.967 0,0" /></g><g
           id="g1645"><g
             id="g1647" /><g
             id="g1659"><g
               style="opacity:0.19999701"
               id="g1657"
               clip-path="url(#clipPath1651)"><g
                 id="g1655"
                 transform="translate(128.4111,292.0059)"><path
                   id="path1653"
                   style="fill:#000000;fill-opacity:1;fill-rule:nonzero;stroke:none"
                   d="m 0,0 -0.885,-10.269 4.715,-3.155 c 0,0 2.209,4.881 2.867,9.135 z" /></g></g></g></g><g
           transform="translate(167.1934,299.3628)"
           id="g1661"><path
             id="path1663"
             style="fill:#007cff;fill-opacity:1;fill-rule:nonzero;stroke:none"
             d="m 0,0 c 0,0 3.737,-1.317 -3.749,-47.351 h -31.863 c 0.534,12.968 0.549,20.964 -5.649,47.578 0,0 6.677,1.453 13.531,1.783 5.362,0.258 9.755,0.429 14.468,-10e-4 C -7.047,1.442 0,0 0,0" /></g><g
           transform="translate(170.4292,292.0527)"
           id="g1665"><path
             id="path1667"
             style="fill:#ff8b7b;fill-opacity:1;fill-rule:nonzero;stroke:none"
             d="m 0,0 c 0.722,-1.996 1.485,-4.153 2.28,-6.226 0.763,-2.103 1.556,-4.201 2.373,-6.292 l 2.451,-6.281 0.621,-1.57 0.311,-0.785 0.156,-0.392 c 0.027,-0.071 0.021,-0.064 0.012,-0.057 -0.043,0.019 -0.08,0.217 -0.7,0.624 -0.304,0.189 -0.814,0.371 -1.306,0.381 -0.495,0.018 -0.888,-0.102 -1.112,-0.201 -0.451,-0.215 -0.458,-0.307 -0.448,-0.293 0.029,0.015 0.122,0.104 0.224,0.227 0.437,0.525 0.965,1.43 1.429,2.33 0.473,0.918 0.919,1.898 1.365,2.891 0.885,1.994 1.69,4.073 2.509,6.157 0.81,2.089 1.573,4.208 2.329,6.335 l 2.277,6.382 3.853,-0.972 c -0.763,-4.565 -1.748,-9.036 -2.923,-13.523 -0.574,-2.248 -1.238,-4.478 -1.997,-6.728 -0.378,-1.127 -0.802,-2.251 -1.287,-3.397 -0.506,-1.155 -1.006,-2.293 -1.901,-3.617 -0.234,-0.335 -0.501,-0.688 -0.872,-1.078 -0.393,-0.384 -0.846,-0.849 -1.822,-1.288 -0.486,-0.208 -1.162,-0.394 -1.942,-0.362 -0.776,0.022 -1.564,0.297 -2.109,0.635 -1.109,0.708 -1.492,1.382 -1.819,1.889 -0.153,0.253 -0.283,0.516 -0.372,0.705 l -0.19,0.387 -0.379,0.776 -0.757,1.553 c -0.987,2.081 -1.955,4.173 -2.873,6.289 -0.908,2.12 -1.793,4.251 -2.652,6.4 -0.821,2.181 -1.633,4.294 -2.355,6.614 z" /></g><g
           transform="translate(167.1934,299.3628)"
           id="g1669"><path
             id="path1671"
             style="fill:#007cff;fill-opacity:1;fill-rule:nonzero;stroke:none"
             d="m 0,0 c 3.83,-0.913 8.133,-12.228 8.133,-12.228 l -11.382,-9.699 c 0,0 -7.376,12.339 -5.884,16.413 C -7.58,-1.271 -5.003,1.192 0,0" /></g><g
           transform="translate(186.9756,298.8105)"
           id="g1673"><path
             id="path1675"
             style="fill:#ff8b7b;fill-opacity:1;fill-rule:nonzero;stroke:none"
             d="M 0,0 3.995,3.341 6.773,-0.988 4.726,-4.603 c 0,0 -3.26,-2.983 -6.146,-1.466 C -2.35,-3.955 -1.771,-1.481 0,0" /></g><g
           transform="translate(198.2217,302.1416)"
           id="g1677"><path
             id="path1679"
             style="fill:#ff8b7b;fill-opacity:1;fill-rule:nonzero;stroke:none"
             d="M 0,0 -0.299,-1.088 -6.627,-2.151 -7.251,0.01 Z" /></g><g
           transform="translate(162.4019,128.9463)"
           id="g1681"><path
             id="path1683"
             style="fill:#007cff;fill-opacity:1;fill-rule:nonzero;stroke:none"
             d="M 0,0 -11.418,7.387 -9.374,10.942 3.459,3.054 Z" /></g><g
           transform="translate(140.7344,124.165)"
           id="g1685"><path
             id="path1687"
             style="fill:#1a2e35;fill-opacity:1;fill-rule:nonzero;stroke:none"
             d="m 0,0 c 1.242,-0.632 2.242,-0.865 2.723,-0.626 0.204,0.103 0.323,0.293 0.363,0.584 C 3.107,0.114 3.052,0.184 3,0.226 2.598,0.565 1.096,0.301 0,0 m 2.249,-1.091 c -0.908,0 -2.103,0.576 -2.827,0.979 -0.065,0.036 -0.102,0.107 -0.094,0.181 0.006,0.074 0.058,0.136 0.128,0.159 C -0.236,0.325 2.473,1.155 3.24,0.511 3.361,0.408 3.496,0.221 3.453,-0.092 3.397,-0.508 3.208,-0.8 2.889,-0.958 2.705,-1.051 2.487,-1.091 2.249,-1.091" /></g><g
           transform="translate(142.1855,126.7568)"
           id="g1689"><path
             id="path1691"
             style="fill:#1a2e35;fill-opacity:1;fill-rule:nonzero;stroke:none"
             d="m 0,0 c -0.092,0 -0.185,-0.022 -0.279,-0.067 -0.612,-0.295 -1.126,-1.468 -1.372,-2.18 0.88,0.37 2.082,1.351 2.125,1.899 C 0.48,-0.259 0.46,-0.143 0.24,-0.051 0.16,-0.017 0.079,0 0,0 m -1.939,-2.728 c -0.05,0 -0.098,0.021 -0.133,0.057 -0.047,0.048 -0.064,0.116 -0.046,0.18 0.027,0.092 0.651,2.263 1.678,2.759 0.273,0.13 0.551,0.138 0.823,0.025 0.433,-0.182 0.475,-0.498 0.461,-0.67 -0.071,-0.899 -1.903,-2.141 -2.739,-2.345 -0.014,-0.004 -0.029,-0.006 -0.044,-0.006" /></g><g
           transform="translate(154.3711,120.9551)"
           id="g1693"><path
             id="path1695"
             style="fill:#1a2e35;fill-opacity:1;fill-rule:nonzero;stroke:none"
             d="m 0,0 c 1.264,-1.229 2.369,-1.908 3.003,-1.823 0.222,0.027 0.39,0.147 0.515,0.367 0.048,0.084 0.052,0.157 0.013,0.234 C 3.264,-0.687 1.407,-0.226 0,0 m 2.897,-2.202 c -1.126,0 -2.696,1.447 -3.555,2.337 -0.055,0.056 -0.068,0.141 -0.033,0.212 0.036,0.07 0.126,0.11 0.19,0.101 0.395,-0.051 3.873,-0.52 4.365,-1.503 C 3.958,-1.244 3.95,-1.447 3.841,-1.64 3.657,-1.964 3.39,-2.149 3.049,-2.193 3,-2.199 2.949,-2.202 2.897,-2.202" /></g><g
           transform="translate(154.2227,121.3613)"
           id="g1697"><path
             id="path1699"
             style="fill:#1a2e35;fill-opacity:1;fill-rule:nonzero;stroke:none"
             d="M 0,0 C 1.117,-0.062 2.903,0.309 3.136,0.796 3.156,0.837 3.215,0.96 2.957,1.183 2.741,1.367 2.491,1.444 2.202,1.418 1.362,1.344 0.426,0.453 0,0 m 0.258,-0.375 c -0.257,0 -0.487,0.016 -0.668,0.05 -0.065,0.012 -0.118,0.057 -0.141,0.118 -0.022,0.062 -0.011,0.132 0.031,0.183 0.058,0.069 1.41,1.7 2.689,1.812 C 2.569,1.819 2.907,1.713 3.197,1.465 3.591,1.128 3.563,0.828 3.471,0.637 3.154,-0.03 1.426,-0.375 0.258,-0.375" /></g><g
           transform="translate(140.5215,125.082)"
           id="g1701"><path
             id="path1703"
             style="fill:#007cff;fill-opacity:1;fill-rule:nonzero;stroke:none"
             d="M 0,0 -8.482,2.397 C -8.791,2.485 -9.102,2.341 -9.23,2.053 l -2.863,-6.438 c -0.297,-0.668 0.115,-1.496 0.831,-1.685 2.971,-0.784 4.445,-1.014 8.175,-2.069 2.295,-0.648 5.58,-1.834 8.749,-2.73 3.099,-0.876 4.223,2.19 2.984,2.847 C 3.089,-5.077 2.65,-3.059 1.13,-0.821 0.856,-0.417 0.451,-0.128 0,0" /></g><g
           transform="translate(153.9438,122.2568)"
           id="g1705"><path
             id="path1707"
             style="fill:#007cff;fill-opacity:1;fill-rule:nonzero;stroke:none"
             d="M 0,0 -7.24,5.027 C -7.503,5.21 -7.844,5.175 -8.06,4.943 l -4.802,-5.155 c -0.498,-0.535 -0.377,-1.452 0.238,-1.863 2.554,-1.709 3.874,-2.405 7.057,-4.616 1.959,-1.36 5.87,-4.376 8.574,-6.254 2.646,-1.837 4.706,0.696 3.748,1.72 C 2.459,-6.632 1.511,-3.754 0.802,-1.144 0.674,-0.673 0.386,-0.268 0,0" /></g><g
           transform="translate(148.0747,131.5645)"
           id="g1709"><path
             id="path1711"
             style="fill:#007cff;fill-opacity:1;fill-rule:nonzero;stroke:none"
             d="m 0,0 -13.056,6.489 1.351,3.532 L 2.231,3.19 Z" /></g><g
           transform="translate(131.104,253.8818)"
           id="g1713"><path
             id="path1715"
             style="fill:#007cff;fill-opacity:1;fill-rule:nonzero;stroke:none"
             d="m 0,0 -1.104,-2.852 c -0.112,-0.222 0.15,-0.447 0.518,-0.447 h 33.084 c 0.287,0 0.525,0.14 0.543,0.321 l 0.288,2.852 c 0.019,0.198 -0.23,0.365 -0.544,0.365 H 0.519 C 0.282,0.239 0.072,0.142 0,0" /></g><g
           id="g1717"><g
             id="g1719" /><g
             id="g1731"><g
               style="opacity:0.39999402"
               id="g1729"
               clip-path="url(#clipPath1723)"><g
                 id="g1727"
                 transform="translate(131.104,253.8818)"><path
                   id="path1725"
                   style="fill:#ffffff;fill-opacity:1;fill-rule:nonzero;stroke:none"
                   d="m 0,0 -1.104,-2.852 c -0.112,-0.222 0.15,-0.447 0.518,-0.447 h 33.084 c 0.287,0 0.525,0.14 0.543,0.321 l 0.288,2.852 c 0.019,0.198 -0.23,0.365 -0.544,0.365 H 0.519 C 0.282,0.239 0.072,0.142 0,0" /></g></g></g></g><g
           transform="translate(136.3076,250.2739)"
           id="g1733"><path
             id="path1735"
             style="fill:#007cff;fill-opacity:1;fill-rule:nonzero;stroke:none"
             d="M 0,0 H -0.864 C -1.037,0 -1.167,0.088 -1.156,0.197 L -0.75,3.902 C -0.738,4.011 -0.588,4.1 -0.416,4.1 H 0.448 C 0.621,4.1 0.751,4.011 0.74,3.902 L 0.334,0.197 C 0.322,0.088 0.172,0 0,0" /></g><g
           transform="translate(156.7139,250.2739)"
           id="g1737"><path
             id="path1739"
             style="fill:#007cff;fill-opacity:1;fill-rule:nonzero;stroke:none"
             d="M 0,0 H -0.864 C -1.036,0 -1.167,0.088 -1.155,0.197 L -0.75,3.902 C -0.738,4.011 -0.588,4.1 -0.416,4.1 H 0.449 C 0.621,4.1 0.752,4.011 0.74,3.902 L 0.334,0.197 C 0.323,0.088 0.172,0 0,0" /></g><g
           id="g1741"><g
             id="g1743" /><g
             id="g1755"><g
               id="g1753"
               clip-path="url(#clipPath1747)"><g
                 id="g1751"
                 transform="translate(108.7554,82.8584)"><path
                   id="path1749"
                   style="fill:#f5f5f5;fill-opacity:1;fill-rule:nonzero;stroke:none"
                   d="m 0,0 c -0.049,-1.073 11.906,-1.944 26.702,-1.945 14.796,-10e-4 26.831,0.869 26.88,1.942 C 53.631,1.071 41.677,1.942 26.88,1.943 12.084,1.944 0.049,1.074 0,0" /></g></g></g></g><g
           transform="translate(151.8726,85.5996)"
           id="g1757"><path
             id="path1759"
             style="fill:#e1e1e1;fill-opacity:1;fill-rule:nonzero;stroke:none"
             d="m 0,0 c -4.74,1.376 -9.957,3.149 -13.185,5.035 -0.089,0.052 -0.184,0.09 -0.275,0.138 v 21.428 h 9.533 c 1.577,0 2.855,1.278 2.855,2.854 0,1.577 -1.278,2.855 -2.855,2.855 h -9.533 v 97.823 h -5.709 V 32.31 h -9.535 c -1.576,0 -2.854,-1.278 -2.854,-2.855 0,-1.576 1.278,-2.854 2.854,-2.854 h 9.535 V 5.173 C -19.261,5.125 -19.356,5.087 -19.446,5.035 -22.674,3.149 -27.89,1.376 -32.631,0 c -1.555,-0.451 -1.227,-2.741 0.393,-2.741 h 15.923 15.923 c 1.62,0 1.948,2.29 0.392,2.741" /></g><g
           transform="translate(153.3398,204.7529)"
           id="g1761"><path
             id="path1763"
             style="fill:#007cff;fill-opacity:1;fill-rule:nonzero;stroke:none"
             d="m 0,0 h -35.565 c -2.849,0 -5.18,2.331 -5.18,5.181 v 10.572 c 0,2.85 2.331,5.181 5.18,5.181 H 0 c 2.849,0 5.18,-2.331 5.18,-5.181 V 5.181 C 5.18,2.331 2.849,0 0,0" /></g><g
           transform="translate(117.4478,204.7529)"
           id="g1765"><path
             id="path1767"
             style="fill:#007cff;fill-opacity:1;fill-rule:nonzero;stroke:none"
             d="M 0,0 V -1.819 C 0,-3.32 1.633,-4.547 3.628,-4.547 h 28.963 c 1.995,0 3.628,1.227 3.628,2.728 V 0 Z" /></g><g
           id="g1769"><g
             id="g1771" /><g
             id="g1783"><g
               style="opacity:0.30000299"
               id="g1781"
               clip-path="url(#clipPath1775)"><g
                 id="g1779"
                 transform="translate(117.4478,204.7529)"><path
                   id="path1777"
                   style="fill:#ffffff;fill-opacity:1;fill-rule:nonzero;stroke:none"
                   d="M 0,0 V -1.819 C 0,-3.32 1.633,-4.547 3.628,-4.547 h 28.963 c 1.995,0 3.628,1.227 3.628,2.728 V 0 Z" /></g></g></g></g></g></g><g
       id="g1388"
       transform="translate(302.47322,239.28214)"><path
         inkscape:connector-curvature="0"
         d="m 0,0 h -100.718 l -0.841,-18.806 H -0.841 Z"
         style="fill:#ffffff;fill-opacity:1;fill-rule:nonzero;stroke:none"
         id="path1386" /></g><g
       id="g1392"
       transform="translate(247.58252,252.99744)"><path
         inkscape:connector-curvature="0"
         d="M 0,0 H -45.214 L -45.59,-8.414 H -0.376 Z"
         style="fill:#007cff;fill-opacity:1;fill-rule:nonzero;stroke:none"
         id="path1390" /></g><g
       id="g1396"
       transform="translate(212.60162,229.87884)"><path
         inkscape:connector-curvature="0"
         d="m 0,0 c -0.074,-1.664 -1.484,-3.013 -3.148,-3.013 -1.664,0 -2.953,1.349 -2.879,3.013 0.075,1.665 1.484,3.014 3.149,3.014 C -1.214,3.014 0.075,1.665 0,0"
         style="fill:#1a2e35;fill-opacity:1;fill-rule:nonzero;stroke:none"
         id="path1394" /></g><g
       id="g1400"
       transform="translate(226.08892,229.87884)"><path
         inkscape:connector-curvature="0"
         d="m 0,0 c -0.074,-1.664 -1.484,-3.013 -3.148,-3.013 -1.664,0 -2.953,1.349 -2.879,3.013 0.075,1.665 1.484,3.014 3.149,3.014 C -1.214,3.014 0.075,1.665 0,0"
         style="fill:#1a2e35;fill-opacity:1;fill-rule:nonzero;stroke:none"
         id="path1398" /></g><g
       id="g1404"
       transform="translate(239.57622,229.87884)"><path
         inkscape:connector-curvature="0"
         d="m 0,0 c -0.074,-1.664 -1.484,-3.013 -3.148,-3.013 -1.664,0 -2.953,1.349 -2.879,3.013 0.075,1.665 1.484,3.014 3.149,3.014 C -1.214,3.014 0.075,1.665 0,0"
         style="fill:#1a2e35;fill-opacity:1;fill-rule:nonzero;stroke:none"
         id="path1402" /></g><g
       id="g1408"
       transform="translate(253.06402,229.87884)"><path
         inkscape:connector-curvature="0"
         d="m 0,0 c -0.075,-1.664 -1.484,-3.013 -3.148,-3.013 -1.665,0 -2.954,1.349 -2.879,3.013 0.074,1.665 1.484,3.014 3.148,3.014 C -1.215,3.014 0.074,1.665 0,0"
         style="fill:#1a2e35;fill-opacity:1;fill-rule:nonzero;stroke:none"
         id="path1406" /></g><g
       id="g1412"
       transform="translate(266.55032,229.87884)"><path
         inkscape:connector-curvature="0"
         d="m 0,0 c -0.074,-1.664 -1.483,-3.013 -3.147,-3.013 -1.665,0 -2.954,1.349 -2.879,3.013 0.074,1.665 1.483,3.014 3.148,3.014 C -1.214,3.014 0.075,1.665 0,0"
         style="fill:#1a2e35;fill-opacity:1;fill-rule:nonzero;stroke:none"
         id="path1410" /></g></g></svg>