<?xml version="1.0" encoding="UTF-8" standalone="no"?>
<!-- Created with Inkscape (http://www.inkscape.org/) -->

<svg
   xmlns:dc="http://purl.org/dc/elements/1.1/"
   xmlns:cc="http://creativecommons.org/ns#"
   xmlns:rdf="http://www.w3.org/1999/02/22-rdf-syntax-ns#"
   xmlns:svg="http://www.w3.org/2000/svg"
   xmlns="http://www.w3.org/2000/svg"
   xmlns:sodipodi="http://sodipodi.sourceforge.net/DTD/sodipodi-0.dtd"
   xmlns:inkscape="http://www.inkscape.org/namespaces/inkscape"
   version="1.1"
   id="svg2"
   xml:space="preserve"
   width="666.66669"
   height="666.66669"
   viewBox="0 0 666.66669 666.66669"
   sodipodi:docname="settings2.svg"
   inkscape:version="0.92.4 (5da689c313, 2019-01-14)"><metadata
     id="metadata8"><rdf:RDF><cc:Work
         rdf:about=""><dc:format>image/svg+xml</dc:format><dc:type
           rdf:resource="http://purl.org/dc/dcmitype/StillImage" /><dc:title></dc:title></cc:Work></rdf:RDF></metadata><defs
     id="defs6"><clipPath
       clipPathUnits="userSpaceOnUse"
       id="clipPath34"><path
         d="M 0,500 H 500 V 0 H 0 Z"
         id="path32"
         inkscape:connector-curvature="0" /></clipPath><clipPath
       clipPathUnits="userSpaceOnUse"
       id="clipPath246"><path
         d="M 0,500 H 500 V 0 H 0 Z"
         id="path244"
         inkscape:connector-curvature="0" /></clipPath><clipPath
       clipPathUnits="userSpaceOnUse"
       id="clipPath254"><path
         d="M 88.101,427.485 H 410.332 V 176.091 H 88.101 Z"
         id="path252"
         inkscape:connector-curvature="0" /></clipPath><clipPath
       clipPathUnits="userSpaceOnUse"
       id="clipPath270"><path
         d="M 0,500 H 500 V 0 H 0 Z"
         id="path268"
         inkscape:connector-curvature="0" /></clipPath><clipPath
       clipPathUnits="userSpaceOnUse"
       id="clipPath458"><path
         d="M 0,500 H 500 V 0 H 0 Z"
         id="path456"
         inkscape:connector-curvature="0" /></clipPath></defs><sodipodi:namedview
     pagecolor="#ffffff"
     bordercolor="#666666"
     borderopacity="1"
     objecttolerance="10"
     gridtolerance="10"
     guidetolerance="10"
     inkscape:pageopacity="0"
     inkscape:pageshadow="2"
     inkscape:window-width="1920"
     inkscape:window-height="1017"
     id="namedview4"
     showgrid="false"
     inkscape:zoom="1.416"
     inkscape:cx="333.33334"
     inkscape:cy="333.33334"
     inkscape:window-x="-8"
     inkscape:window-y="-8"
     inkscape:window-maximized="1"
     inkscape:current-layer="g10" /><g
     id="g10"
     inkscape:groupmode="layer"
     inkscape:label="2678154"
     transform="matrix(1.3333333,0,0,-1.3333333,0,666.66667)"><path
       d="m 0,117.352 h 500 v 0.249 H 0 Z"
       style="fill:#d1e3ff;fill-opacity:1;fill-rule:nonzero;stroke:none"
       id="path12"
       inkscape:connector-curvature="0" /><path
       d="m 51.646,105.361 h 57.774 v 0.25 H 51.646 Z"
       style="fill:#d1e3ff;fill-opacity:1;fill-rule:nonzero;stroke:none"
       id="path14"
       inkscape:connector-curvature="0" /><path
       d="m 209.344,110.792 h 26.323 v 0.25 h -26.323 z"
       style="fill:#d1e3ff;fill-opacity:1;fill-rule:nonzero;stroke:none"
       id="path16"
       inkscape:connector-curvature="0" /><path
       d="m 245.278,110.917 h 51.277 v 0.25 h -51.277 z"
       style="fill:#d1e3ff;fill-opacity:1;fill-rule:nonzero;stroke:none"
       id="path18"
       inkscape:connector-curvature="0" /><path
       d="m 381.676,107.917 h 12.49 v 0.25 h -12.49 z"
       style="fill:#d1e3ff;fill-opacity:1;fill-rule:nonzero;stroke:none"
       id="path20"
       inkscape:connector-curvature="0" /><path
       d="m 288.732,107.917 h 49.824 v 0.25 h -49.824 z"
       style="fill:#d1e3ff;fill-opacity:1;fill-rule:nonzero;stroke:none"
       id="path22"
       inkscape:connector-curvature="0" /><path
       d="M 119.101,105.361 H 129 v 0.25 h -9.899 z"
       style="fill:#d1e3ff;fill-opacity:1;fill-rule:nonzero;stroke:none"
       id="path24"
       inkscape:connector-curvature="0" /><path
       d="m 402.333,107.917 h 43.254 v 0.25 h -43.254 z"
       style="fill:#d1e3ff;fill-opacity:1;fill-rule:nonzero;stroke:none"
       id="path26"
       inkscape:connector-curvature="0" /><g
       id="g28"><g
         id="g30"
         clip-path="url(#clipPath34)"><g
           id="g44"
           transform="translate(76.6157,363.1855)"><path
             d="m 0,0 c -4.36,9.421 -0.899,16.128 9.758,16.128 6.683,0 14.971,-2.64 23.041,-6.938 0.911,2.45 3.479,3.919 7.61,3.919 7.27,0 17.291,-4.538 25.153,-10.94 1.902,1.428 4.654,2.302 8.192,2.442 6.957,0.289 15.384,-2.318 22.711,-6.558 0.634,0.71 1.723,1.155 3.224,1.221 4.01,0.165 9.437,-2.466 12.133,-5.874 0.168,-0.214 0.317,-0.421 0.466,-0.627 H 103.96 97.335 74.318 62.992 54.185 40.62 38.158 4.509 -2.117 C -2.459,-4.257 -1.747,-1.773 0,0"
             style="fill:#f3f8ff;fill-opacity:1;fill-rule:nonzero;stroke:none"
             id="path46"
             inkscape:connector-curvature="0" /></g><g
           id="g48"
           transform="translate(206.3208,407.9819)"><path
             d="m 0,0 c 0.349,0.038 0.702,0.056 1.061,0.056 -0.33,3.679 1.577,6.028 5.648,6.028 2.938,0 6.543,-1.227 10.217,-3.302 -1.051,7.141 2.316,11.782 9.939,11.782 6.149,0 13.935,-3.019 21.625,-7.942 0.674,2.801 2.939,4.48 6.746,4.48 6.687,0 16.19,-5.188 23.809,-12.508 0,0 0.003,-0.009 0.01,0 1.647,1.632 4.12,2.641 7.371,2.802 6.368,0.33 14.275,-2.651 21.285,-7.509 0.534,0.821 1.505,1.33 2.894,1.397 3.482,0.179 8.281,-2.5 11.068,-6.085 H 113.549 108.042 86.864 76.945 68.113 55.569 31.868 22.629 19.342 6.193 -5.605 C -8.593,-5.367 -6.212,-0.613 0,0"
             style="fill:#f3f8ff;fill-opacity:1;fill-rule:nonzero;stroke:none"
             id="path50"
             inkscape:connector-curvature="0" /></g><g
           id="g52"
           transform="translate(376.9824,423.5942)"><path
             d="m 0,0 c -2.798,6.045 -0.577,10.349 6.262,10.349 4.289,0 9.606,-1.694 14.785,-4.452 0.585,1.572 2.232,2.514 4.883,2.514 4.665,0 11.095,-2.911 16.139,-7.019 1.221,0.916 2.988,1.477 5.257,1.567 4.465,0.185 9.872,-1.488 14.573,-4.209 0.408,0.456 1.106,0.742 2.07,0.784 2.572,0.106 6.054,-1.583 7.785,-3.769 0.107,-0.138 0.203,-0.27 0.299,-0.402 H 66.709 62.458 47.688 40.421 34.77 26.065 24.485 2.894 -3.474 C -5.86,-2.495 -3.223,-0.108 0,0"
             style="fill:#f3f8ff;fill-opacity:1;fill-rule:nonzero;stroke:none"
             id="path54"
             inkscape:connector-curvature="0" /></g><path
           d="M 123.205,226.479 H 89.147 V 117.601 h 34.058 z"
           style="fill:#e3eeff;fill-opacity:1;fill-rule:nonzero;stroke:none"
           id="path56"
           inkscape:connector-curvature="0" /><path
           d="m 112.075,264.373 h 55.854 V 117.602 h -55.854 z"
           style="fill:#f3f8ff;fill-opacity:1;fill-rule:nonzero;stroke:none"
           id="path58"
           inkscape:connector-curvature="0" /><path
           d="M 196.916,264.373 H 167.929 V 117.602 h 28.987 z"
           style="fill:#e3eeff;fill-opacity:1;fill-rule:nonzero;stroke:none"
           id="path60"
           inkscape:connector-curvature="0" /><path
           d="m 119.59,264.373 h 48.339 v 14.588 H 119.59 Z"
           style="fill:#f3f8ff;fill-opacity:1;fill-rule:nonzero;stroke:none"
           id="path62"
           inkscape:connector-curvature="0" /><path
           d="m 119.59,264.373 h 48.339 v 3.276 H 119.59 Z"
           style="fill:#e3eeff;fill-opacity:1;fill-rule:nonzero;stroke:none"
           id="path64"
           inkscape:connector-curvature="0" /><path
           d="m 189.4,264.373 h -21.472 v 14.588 H 189.4 Z"
           style="fill:#e3eeff;fill-opacity:1;fill-rule:nonzero;stroke:none"
           id="path66"
           inkscape:connector-curvature="0" /><path
           d="m 127.105,278.96 h 40.823 v 14.588 h -40.823 z"
           style="fill:#f3f8ff;fill-opacity:1;fill-rule:nonzero;stroke:none"
           id="path68"
           inkscape:connector-curvature="0" /><path
           d="m 127.105,278.96 h 40.823 v 3.275 h -40.823 z"
           style="fill:#e3eeff;fill-opacity:1;fill-rule:nonzero;stroke:none"
           id="path70"
           inkscape:connector-curvature="0" /><path
           d="m 181.885,278.96 h -13.957 v 14.588 h 13.957 z"
           style="fill:#e3eeff;fill-opacity:1;fill-rule:nonzero;stroke:none"
           id="path72"
           inkscape:connector-curvature="0" /><path
           d="m 155.851,293.548 h -2.71 v 20.387 h 2.71 z"
           style="fill:#e3eeff;fill-opacity:1;fill-rule:nonzero;stroke:none"
           id="path74"
           inkscape:connector-curvature="0" /><path
           d="M 187.663,238.853 H 228.45 V 117.602 h -40.787 z"
           style="fill:#f3f8ff;fill-opacity:1;fill-rule:nonzero;stroke:none"
           id="path76"
           inkscape:connector-curvature="0" /><path
           d="M 249.618,238.853 H 228.45 V 117.602 h 21.168 z"
           style="fill:#e3eeff;fill-opacity:1;fill-rule:nonzero;stroke:none"
           id="path78"
           inkscape:connector-curvature="0" /><g
           id="g80"
           transform="translate(239.0342,204.208)"><path
             d="M 0,0 30.931,-26.513 V -86.606 L 0,-86.606 Z"
             style="fill:#f3f8ff;fill-opacity:1;fill-rule:nonzero;stroke:none"
             id="path82"
             inkscape:connector-curvature="0" /></g><path
           d="m 286.018,177.695 h -16.053 v -60.094 h 16.053 z"
           style="fill:#e3eeff;fill-opacity:1;fill-rule:nonzero;stroke:none"
           id="path84"
           inkscape:connector-curvature="0" /><g
           id="g86"
           transform="translate(286.0176,177.6953)"><path
             d="m 0,0 h -16.053 l -30.93,26.513 h 16.052 z"
             style="fill:#e3eeff;fill-opacity:1;fill-rule:nonzero;stroke:none"
             id="path88"
             inkscape:connector-curvature="0" /></g><g
           id="g90"
           transform="translate(430.9746,117.6016)"><path
             d="M 0,0 C 0,0 0.733,7.216 8.705,10.931 5.437,5.7 6.149,0 6.149,0 Z"
             style="fill:#e3eeff;fill-opacity:1;fill-rule:nonzero;stroke:none"
             id="path92"
             inkscape:connector-curvature="0" /></g><g
           id="g94"
           transform="translate(142.5264,117.6016)"><path
             d="M 0,0 C 0,0 -0.733,7.216 -8.705,10.931 -5.437,5.7 -6.149,0 -6.149,0 Z"
             style="fill:#e3eeff;fill-opacity:1;fill-rule:nonzero;stroke:none"
             id="path96"
             inkscape:connector-curvature="0" /></g><g
           id="g98"
           transform="translate(71.1113,117.6016)"><path
             d="M 0,0 C 0,0 -0.492,12.801 -5.843,16.516 -3.649,11.284 -4.128,0 -4.128,0 Z"
             style="fill:#e3eeff;fill-opacity:1;fill-rule:nonzero;stroke:none"
             id="path100"
             inkscape:connector-curvature="0" /></g><g
           id="g102"
           transform="translate(69.1016,117.6016)"><path
             d="M 0,0 C 0,0 0.492,7.35 5.843,9.481 3.649,6.479 4.127,0 4.127,0 Z"
             style="fill:#e3eeff;fill-opacity:1;fill-rule:nonzero;stroke:none"
             id="path104"
             inkscape:connector-curvature="0" /></g><g
           id="g106"
           transform="translate(147.1064,117.6016)"><path
             d="M 0,0 C 0,0 -0.534,12.118 -10.239,16.516 -5.901,10.299 -6.15,0 -6.15,0 Z"
             style="fill:#e3eeff;fill-opacity:1;fill-rule:nonzero;stroke:none"
             id="path108"
             inkscape:connector-curvature="0" /></g><path
           d="m 362.778,135.964 h 22.517 v 22.517 h -22.517 z m 23.517,-2 h -24.517 c -0.552,0 -1,0.447 -1,1 v 24.516 c 0,0.553 0.448,1 1,1 h 24.517 c 0.553,0 1,-0.447 1,-1 v -24.516 c 0,-0.553 -0.447,-1 -1,-1"
           style="fill:#d1e3ff;fill-opacity:1;fill-rule:nonzero;stroke:none"
           id="path110"
           inkscape:connector-curvature="0" /><path
           d="m 362.778,160.48 h 22.517 v 22.517 h -22.517 z m 23.517,-2 h -24.517 c -0.552,0 -1,0.448 -1,1 v 24.517 c 0,0.553 0.448,1 1,1 h 24.517 c 0.553,0 1,-0.447 1,-1 V 159.48 c 0,-0.552 -0.447,-1 -1,-1"
           style="fill:#d1e3ff;fill-opacity:1;fill-rule:nonzero;stroke:none"
           id="path112"
           inkscape:connector-curvature="0" /><g
           id="g114"
           transform="translate(386.2949,133.9639)"><path
             d="M 0,0 C -0.256,0 -0.512,0.098 -0.707,0.293 L -25.224,24.81 c -0.39,0.39 -0.39,1.023 0,1.414 0.391,0.39 1.024,0.39 1.414,0 L 0.707,1.707 C 1.098,1.316 1.098,0.684 0.707,0.293 0.512,0.098 0.256,0 0,0"
             style="fill:#d1e3ff;fill-opacity:1;fill-rule:nonzero;stroke:none"
             id="path116"
             inkscape:connector-curvature="0" /></g><g
           id="g118"
           transform="translate(386.2949,158.4805)"><path
             d="M 0,0 C -0.256,0 -0.512,0.098 -0.707,0.293 L -25.224,24.81 c -0.39,0.39 -0.39,1.023 0,1.414 0.391,0.39 1.024,0.39 1.414,0 L 0.707,1.707 C 1.098,1.316 1.098,0.684 0.707,0.293 0.512,0.098 0.256,0 0,0"
             style="fill:#d1e3ff;fill-opacity:1;fill-rule:nonzero;stroke:none"
             id="path120"
             inkscape:connector-curvature="0" /></g><path
           d="m 362.778,184.997 h 22.517 v 22.516 h -22.517 z m 23.517,-2 h -24.517 c -0.552,0 -1,0.447 -1,1 v 24.516 c 0,0.552 0.448,1 1,1 h 24.517 c 0.553,0 1,-0.448 1,-1 v -24.516 c 0,-0.553 -0.447,-1 -1,-1"
           style="fill:#d1e3ff;fill-opacity:1;fill-rule:nonzero;stroke:none"
           id="path122"
           inkscape:connector-curvature="0" /><path
           d="m 362.778,209.513 h 22.517 v 22.517 h -22.517 z m 23.517,-2 h -24.517 c -0.552,0 -1,0.447 -1,1 v 24.516 c 0,0.553 0.448,1 1,1 h 24.517 c 0.553,0 1,-0.447 1,-1 v -24.516 c 0,-0.553 -0.447,-1 -1,-1"
           style="fill:#d1e3ff;fill-opacity:1;fill-rule:nonzero;stroke:none"
           id="path124"
           inkscape:connector-curvature="0" /><g
           id="g126"
           transform="translate(386.2949,182.9971)"><path
             d="m 0,0 c -0.256,0 -0.512,0.098 -0.707,0.293 l -24.517,24.516 c -0.39,0.39 -0.39,1.023 0,1.414 0.391,0.39 1.024,0.39 1.414,0 L 0.707,1.707 C 1.098,1.316 1.098,0.684 0.707,0.293 0.512,0.098 0.256,0 0,0"
             style="fill:#d1e3ff;fill-opacity:1;fill-rule:nonzero;stroke:none"
             id="path128"
             inkscape:connector-curvature="0" /></g><g
           id="g130"
           transform="translate(386.2949,207.5127)"><path
             d="M 0,0 C -0.256,0 -0.512,0.098 -0.707,0.293 L -25.224,24.81 c -0.39,0.39 -0.39,1.023 0,1.414 0.391,0.39 1.024,0.39 1.414,0 L 0.707,1.707 C 1.098,1.316 1.098,0.684 0.707,0.293 0.512,0.098 0.256,0 0,0"
             style="fill:#d1e3ff;fill-opacity:1;fill-rule:nonzero;stroke:none"
             id="path132"
             inkscape:connector-curvature="0" /></g><path
           d="m 362.778,234.029 h 22.517 v 22.516 h -22.517 z m 23.517,-2 h -24.517 c -0.552,0 -1,0.448 -1,1 v 24.516 c 0,0.553 0.448,1 1,1 h 24.517 c 0.553,0 1,-0.447 1,-1 v -24.516 c 0,-0.552 -0.447,-1 -1,-1"
           style="fill:#d1e3ff;fill-opacity:1;fill-rule:nonzero;stroke:none"
           id="path134"
           inkscape:connector-curvature="0" /><path
           d="m 362.778,258.545 h 22.517 v 22.517 h -22.517 z m 23.517,-2 h -24.517 c -0.552,0 -1,0.448 -1,1 v 24.517 c 0,0.552 0.448,1 1,1 h 24.517 c 0.553,0 1,-0.448 1,-1 v -24.517 c 0,-0.552 -0.447,-1 -1,-1"
           style="fill:#d1e3ff;fill-opacity:1;fill-rule:nonzero;stroke:none"
           id="path136"
           inkscape:connector-curvature="0" /><g
           id="g138"
           transform="translate(386.2949,232.0293)"><path
             d="m 0,0 c -0.256,0 -0.512,0.098 -0.707,0.293 l -24.517,24.516 c -0.39,0.391 -0.39,1.024 0,1.414 0.391,0.391 1.024,0.391 1.414,0 L 0.707,1.707 C 1.098,1.316 1.098,0.684 0.707,0.293 0.512,0.098 0.256,0 0,0"
             style="fill:#d1e3ff;fill-opacity:1;fill-rule:nonzero;stroke:none"
             id="path140"
             inkscape:connector-curvature="0" /></g><path
           d="m 338.263,340.448 h 22.516 v 22.516 h -22.516 z m 23.515,-2 h -24.515 c -0.553,0 -1,0.448 -1,1 v 24.516 c 0,0.552 0.447,1 1,1 h 24.515 c 0.553,0 1,-0.448 1,-1 v -24.516 c 0,-0.552 -0.447,-1 -1,-1"
           style="fill:#d1e3ff;fill-opacity:1;fill-rule:nonzero;stroke:none"
           id="path142"
           inkscape:connector-curvature="0" /><g
           id="g144"
           transform="translate(386.2949,338.4478)"><path
             d="m 0,0 h -24.517 c -0.552,0 -1,0.448 -1,1 0,0.552 0.448,1 1,1 H -1 v 48.032 c 0,0.552 0.447,1 1,1 0.553,0 1,-0.448 1,-1 V 1 C 1,0.448 0.553,0 0,0"
             style="fill:#d1e3ff;fill-opacity:1;fill-rule:nonzero;stroke:none"
             id="path146"
             inkscape:connector-curvature="0" /></g><g
           id="g148"
           transform="translate(361.7773,338.4478)"><path
             d="M 0,0 C -0.15,0 -0.303,0.034 -0.446,0.105 -0.94,0.353 -1.141,0.953 -0.894,1.447 l 24.517,49.032 c 0.248,0.495 0.847,0.695 1.342,0.448 0.494,-0.247 0.694,-0.848 0.447,-1.342 L 0.896,0.553 C 0.72,0.202 0.367,0 0,0"
             style="fill:#d1e3ff;fill-opacity:1;fill-rule:nonzero;stroke:none"
             id="path150"
             inkscape:connector-curvature="0" /></g><path
           d="m 313.746,340.448 h 22.517 v 22.516 h -22.517 z m 23.517,-2 h -24.517 c -0.553,0 -1,0.448 -1,1 v 24.516 c 0,0.552 0.447,1 1,1 h 24.517 c 0.552,0 1,-0.448 1,-1 v -24.516 c 0,-0.552 -0.448,-1 -1,-1"
           style="fill:#d1e3ff;fill-opacity:1;fill-rule:nonzero;stroke:none"
           id="path152"
           inkscape:connector-curvature="0" /><g
           id="g154"
           transform="translate(337.2627,338.4478)"><path
             d="m 0,0 c -0.256,0 -0.512,0.098 -0.707,0.293 -0.391,0.391 -0.391,1.023 0,1.414 l 24.516,24.516 c 0.39,0.391 1.023,0.391 1.414,0 0.39,-0.39 0.39,-1.023 0,-1.414 L 0.707,0.293 C 0.512,0.098 0.256,0 0,0"
             style="fill:#d1e3ff;fill-opacity:1;fill-rule:nonzero;stroke:none"
             id="path156"
             inkscape:connector-curvature="0" /></g><path
           d="m 387.295,340.448 h 22.517 v 22.516 h -22.517 z m 23.517,-2 h -24.517 c -0.553,0 -1,0.448 -1,1 v 24.516 c 0,0.552 0.447,1 1,1 h 24.517 c 0.552,0 1,-0.448 1,-1 v -24.516 c 0,-0.552 -0.448,-1 -1,-1"
           style="fill:#d1e3ff;fill-opacity:1;fill-rule:nonzero;stroke:none"
           id="path158"
           inkscape:connector-curvature="0" /><g
           id="g160"
           transform="translate(386.2949,338.4478)"><path
             d="m 0,0 c -0.256,0 -0.512,0.098 -0.707,0.293 -0.391,0.391 -0.391,1.023 0,1.414 L 23.81,26.223 c 0.39,0.391 1.023,0.391 1.414,0 0.39,-0.39 0.39,-1.023 0,-1.414 L 0.707,0.293 C 0.512,0.098 0.256,0 0,0"
             style="fill:#d1e3ff;fill-opacity:1;fill-rule:nonzero;stroke:none"
             id="path162"
             inkscape:connector-curvature="0" /></g><g
           id="g164"
           transform="translate(239.1973,338.4478)"><path
             d="m 0,0 c -0.256,0 -0.512,0.098 -0.707,0.293 -0.391,0.391 -0.391,1.023 0,1.414 L 23.81,26.223 c 0.139,0.14 0.317,0.235 0.51,0.274 l 122.581,24.516 c 0.329,0.064 0.667,-0.037 0.904,-0.274 L 196.837,1.707 c 0.391,-0.391 0.391,-1.023 0,-1.414 -0.391,-0.391 -1.024,-0.391 -1.414,0 L 146.769,48.947 25.01,24.595 0.707,0.293 C 0.512,0.098 0.256,0 0,0"
             style="fill:#d1e3ff;fill-opacity:1;fill-rule:nonzero;stroke:none"
             id="path166"
             inkscape:connector-curvature="0" /></g><g
           id="g168"
           transform="translate(312.7461,338.4478)"><path
             d="m 0,0 c -0.256,0 -0.512,0.098 -0.707,0.293 -0.391,0.391 -0.391,1.023 0,1.414 L 23.81,26.223 c 0.39,0.391 1.023,0.391 1.414,0 0.39,-0.39 0.39,-1.023 0,-1.414 L 0.707,0.293 C 0.512,0.098 0.256,0 0,0"
             style="fill:#d1e3ff;fill-opacity:1;fill-rule:nonzero;stroke:none"
             id="path170"
             inkscape:connector-curvature="0" /></g><path
           d="m 289.229,340.448 h 22.517 v 22.516 h -22.517 z m 23.517,-2 h -24.517 c -0.552,0 -1,0.448 -1,1 v 24.516 c 0,0.552 0.448,1 1,1 h 24.517 c 0.553,0 1,-0.448 1,-1 v -24.516 c 0,-0.552 -0.447,-1 -1,-1"
           style="fill:#d1e3ff;fill-opacity:1;fill-rule:nonzero;stroke:none"
           id="path172"
           inkscape:connector-curvature="0" /><path
           d="m 264.714,340.448 h 22.516 v 22.516 h -22.516 z m 23.515,-2 h -24.515 c -0.553,0 -1,0.448 -1,1 v 24.516 c 0,0.552 0.447,1 1,1 h 24.515 c 0.553,0 1,-0.448 1,-1 v -24.516 c 0,-0.552 -0.447,-1 -1,-1"
           style="fill:#d1e3ff;fill-opacity:1;fill-rule:nonzero;stroke:none"
           id="path174"
           inkscape:connector-curvature="0" /><g
           id="g176"
           transform="translate(288.2295,338.4478)"><path
             d="m 0,0 c -0.256,0 -0.512,0.098 -0.707,0.293 -0.391,0.391 -0.391,1.023 0,1.414 L 23.81,26.223 c 0.39,0.391 1.023,0.391 1.414,0 0.39,-0.39 0.39,-1.023 0,-1.414 L 0.707,0.293 C 0.512,0.098 0.256,0 0,0"
             style="fill:#d1e3ff;fill-opacity:1;fill-rule:nonzero;stroke:none"
             id="path178"
             inkscape:connector-curvature="0" /></g><g
           id="g180"
           transform="translate(263.7139,338.4478)"><path
             d="m 0,0 c -0.256,0 -0.512,0.098 -0.707,0.293 -0.391,0.391 -0.391,1.023 0,1.414 l 24.516,24.516 c 0.39,0.391 1.023,0.391 1.414,0 0.39,-0.39 0.39,-1.023 0,-1.414 L 0.707,0.293 C 0.512,0.098 0.256,0 0,0"
             style="fill:#d1e3ff;fill-opacity:1;fill-rule:nonzero;stroke:none"
             id="path182"
             inkscape:connector-curvature="0" /></g><g
           id="g184"
           transform="translate(263.7139,338.4478)"><path
             d="m 0,0 h -24.517 c -0.552,0 -1,0.448 -1,1 0,0.552 0.448,1 1,1 H -1 v 23.516 c 0,0.552 0.447,1 1,1 0.553,0 1,-0.448 1,-1 V 1 C 1,0.448 0.553,0 0,0"
             style="fill:#d1e3ff;fill-opacity:1;fill-rule:nonzero;stroke:none"
             id="path186"
             inkscape:connector-curvature="0" /></g><g
           id="g188"
           transform="translate(386.2949,256.5454)"><path
             d="M 0,0 C -0.256,0 -0.512,0.098 -0.707,0.293 L -25.224,24.81 c -0.39,0.39 -0.39,1.023 0,1.414 0.391,0.39 1.024,0.39 1.414,0 L 0.707,1.707 C 1.098,1.316 1.098,0.684 0.707,0.293 0.512,0.098 0.256,0 0,0"
             style="fill:#d1e3ff;fill-opacity:1;fill-rule:nonzero;stroke:none"
             id="path190"
             inkscape:connector-curvature="0" /></g><path
           d="m 362.778,283.062 h 22.517 v 22.516 h -22.517 z m 23.517,-2 h -24.517 c -0.552,0 -1,0.448 -1,1 v 24.516 c 0,0.552 0.448,1 1,1 h 24.517 c 0.553,0 1,-0.448 1,-1 v -24.516 c 0,-0.552 -0.447,-1 -1,-1"
           style="fill:#d1e3ff;fill-opacity:1;fill-rule:nonzero;stroke:none"
           id="path192"
           inkscape:connector-curvature="0" /><path
           d="m 362.778,307.578 h 22.517 v 22.516 h -22.517 z m 23.517,-2 h -24.517 c -0.552,0 -1,0.448 -1,1 v 24.516 c 0,0.552 0.448,1 1,1 h 24.517 c 0.553,0 1,-0.448 1,-1 v -24.516 c 0,-0.552 -0.447,-1 -1,-1"
           style="fill:#d1e3ff;fill-opacity:1;fill-rule:nonzero;stroke:none"
           id="path194"
           inkscape:connector-curvature="0" /><g
           id="g196"
           transform="translate(386.2949,281.062)"><path
             d="m 0,0 c -0.256,0 -0.512,0.098 -0.707,0.293 l -24.517,24.516 c -0.39,0.391 -0.39,1.024 0,1.414 0.391,0.391 1.024,0.391 1.414,0 L 0.707,1.707 C 1.098,1.316 1.098,0.684 0.707,0.293 0.512,0.098 0.256,0 0,0"
             style="fill:#d1e3ff;fill-opacity:1;fill-rule:nonzero;stroke:none"
             id="path198"
             inkscape:connector-curvature="0" /></g><g
           id="g200"
           transform="translate(386.2949,305.5781)"><path
             d="m 0,0 c -0.256,0 -0.512,0.098 -0.707,0.293 l -24.517,24.516 c -0.39,0.391 -0.39,1.024 0,1.414 0.391,0.391 1.024,0.391 1.414,0 L 0.707,1.707 C 1.098,1.316 1.098,0.684 0.707,0.293 0.512,0.098 0.256,0 0,0"
             style="fill:#d1e3ff;fill-opacity:1;fill-rule:nonzero;stroke:none"
             id="path202"
             inkscape:connector-curvature="0" /></g><g
           id="g204"
           transform="translate(435.3271,339.4478)"><path
             d="m 0,0 h -196.13 l 24.517,-8.354 H 0 Z"
             style="fill:#d1e3ff;fill-opacity:1;fill-rule:nonzero;stroke:none"
             id="path206"
             inkscape:connector-curvature="0" /></g><g
           id="g208"
           transform="translate(263.8799,332.0942)"><path
             d="M 0,0 H 170.447 V 6.354 H -18.647 Z M 171.447,-2 H -0.166 c -0.109,0 -0.219,0.018 -0.322,0.053 l -24.517,8.354 c -0.463,0.158 -0.744,0.627 -0.664,1.11 0.08,0.483 0.497,0.837 0.986,0.837 h 196.13 c 0.553,0 1,-0.448 1,-1 V -1 c 0,-0.552 -0.447,-1 -1,-1"
             style="fill:#d1e3ff;fill-opacity:1;fill-rule:nonzero;stroke:none"
             id="path210"
             inkscape:connector-curvature="0" /></g><path
           d="m 361.778,335.271 h -18.15 v -38.575 h 18.15 z"
           style="fill:#d1e3ff;fill-opacity:1;fill-rule:nonzero;stroke:none"
           id="path212"
           inkscape:connector-curvature="0" /><path
           d="m 335.184,335.271 h 8.444 v -38.575 h -8.444 z"
           style="fill:#f3f8ff;fill-opacity:1;fill-rule:nonzero;stroke:none"
           id="path214"
           inkscape:connector-curvature="0" /><path
           d="M 400.223,134.964 H 364.48 v -17.362 h 35.743 z"
           style="fill:#d1e3ff;fill-opacity:1;fill-rule:nonzero;stroke:none"
           id="path216"
           inkscape:connector-curvature="0" /><path
           d="M 347.851,134.964 H 364.48 V 117.602 H 347.851 Z"
           style="fill:#f3f8ff;fill-opacity:1;fill-rule:nonzero;stroke:none"
           id="path218"
           inkscape:connector-curvature="0" /><g
           id="g220"
           transform="translate(410.8115,296.3628)"><path
             d="m 0,0 c -0.553,0 -1,0.448 -1,1 v 37.908 c 0,0.552 0.447,1 1,1 0.553,0 1,-0.448 1,-1 V 1 C 1,0.448 0.553,0 0,0"
             style="fill:#d1e3ff;fill-opacity:1;fill-rule:nonzero;stroke:none"
             id="path222"
             inkscape:connector-curvature="0" /></g><g
           id="g224"
           transform="translate(410.8115,296.3628)"><path
             d="m 0,0 c -0.717,0 -1.3,-0.583 -1.3,-1.3 0,-0.717 0.583,-1.3 1.3,-1.3 0.717,0 1.3,0.583 1.3,1.3 C 1.3,-0.583 0.717,0 0,0 m 0,-4.6 c -1.819,0 -3.3,1.481 -3.3,3.3 C -3.3,0.52 -1.819,2 0,2 1.819,2 3.3,0.52 3.3,-1.3 3.3,-3.119 1.819,-4.6 0,-4.6"
             style="fill:#d1e3ff;fill-opacity:1;fill-rule:nonzero;stroke:none"
             id="path226"
             inkscape:connector-curvature="0" /></g><g
           id="g228"
           transform="translate(266.7949,276.4624)"><path
             d="m 0,0 c -0.553,0 -1,0.448 -1,1 v 57.809 c 0,0.552 0.447,1 1,1 0.553,0 1,-0.448 1,-1 V 1 C 1,0.448 0.553,0 0,0"
             style="fill:#d1e3ff;fill-opacity:1;fill-rule:nonzero;stroke:none"
             id="path230"
             inkscape:connector-curvature="0" /></g><g
           id="g232"
           transform="translate(276.1816,270.4736)"><path
             d="M 0,0 C -0.492,0 -0.901,0.355 -0.984,0.823 -1.717,1.991 -8.229,5.839 -9.422,5.99 -10.545,5.839 -17.057,1.991 -17.789,0.823 -17.872,0.355 -18.281,0 -18.773,0 c -0.553,0 -1,0.448 -1,1 0,2.247 9.075,6.989 10.386,6.989 C -8.075,7.989 1,3.247 1,1 1,0.448 0.553,0 0,0"
             style="fill:#d1e3ff;fill-opacity:1;fill-rule:nonzero;stroke:none"
             id="path234"
             inkscape:connector-curvature="0" /></g><g
           id="g236"
           transform="translate(277.7129,222.1152)"><path
             d="m 0,0 c -6.033,-6.033 -15.808,-6.033 -21.837,-0.005 -6.03,6.029 -6.03,15.805 0.004,21.838 6.029,6.029 15.804,6.029 21.833,0 C 6.029,15.804 6.029,6.029 0,0 m 9.248,-23.921 14.669,14.668 -3.126,5.97 c 0.001,0 0.001,10e-4 0.001,10e-4 0.271,0.599 0.52,1.201 0.754,1.813 0,0 0,0.001 0.001,0.001 l 6.428,2.01 v 20.744 l -6.432,2.011 v 10e-4 c -0.233,0.611 -0.48,1.217 -0.751,1.815 L 23.917,31.081 9.248,45.75 3.281,42.625 H 3.28 c -0.598,0.271 -1.204,0.517 -1.815,0.75 l -2.011,6.431 H -21.29 l -2.011,-6.431 c -0.614,-0.23 -1.216,-0.479 -1.814,-0.75 0,0 -0.001,0 -0.002,0 l -5.967,3.125 -14.669,-14.669 3.126,-5.97 c -0.271,-0.597 -0.519,-1.204 -0.752,-1.814 L -49.81,21.286 V 0.542 l 6.43,-2.011 v 0 c 0.233,-0.612 0.479,-1.218 0.75,-1.816 0.001,0 0.001,-10e-4 0.001,-10e-4 l -3.124,-5.967 14.669,-14.668 5.966,3.124 c 0.599,-0.271 1.204,-0.516 1.816,-0.75 l 0.001,-10e-4 2.011,-6.43 20.744,-10e-4 2.011,6.433 c 0.61,0.233 1.217,0.482 1.813,0.751 z"
             style="fill:#d1e3ff;fill-opacity:1;fill-rule:nonzero;stroke:none"
             id="path238"
             inkscape:connector-curvature="0" /></g></g></g><g
       id="g264"><g
         id="g266"
         clip-path="url(#clipPath270)"><g
           id="g272"
           transform="translate(443.8887,83.7617)"><path
             d="m 0,0 c 0,-6.254 -86.807,-11.323 -193.889,-11.323 -107.082,0 -193.888,5.069 -193.888,11.323 0,6.254 86.806,11.323 193.888,11.323 C -86.807,11.323 0,6.254 0,0"
             style="fill:#f0f6ff;fill-opacity:1;fill-rule:nonzero;stroke:none"
             id="path274"
             inkscape:connector-curvature="0" /></g><g
           id="g276"
           transform="translate(175.8916,336.855)"><path
             d="m 0,0 h -12.481 c -1.163,0 -2.237,-0.621 -2.818,-1.627 l -6.241,-10.81 c -0.581,-1.006 -0.581,-2.247 0,-3.253 l 6.241,-10.81 c 0.581,-1.006 1.655,-1.626 2.818,-1.626 H 0 c 1.163,0 2.237,0.62 2.818,1.626 l 6.241,10.81 c 0.581,1.006 0.581,2.247 0,3.253 L 2.818,-1.627 C 2.237,-0.621 1.163,0 0,0"
             style="fill:#9fc6ff;fill-opacity:1;fill-rule:nonzero;stroke:none"
             id="path278"
             inkscape:connector-curvature="0" /></g><g
           id="g280"
           transform="translate(106.3291,383.0044)"><path
             d="m 0,0 -0.707,0.707 12.541,12.542 0.707,-0.707 z m -10.333,-10.333 -0.707,0.707 6.041,6.041 0.707,-0.707 z"
             style="fill:#9fc6ff;fill-opacity:1;fill-rule:nonzero;stroke:none"
             id="path282"
             inkscape:connector-curvature="0" /></g><g
           id="g284"
           transform="translate(203.3335,322.7974)"><path
             d="m 0,0 c 0,-18.616 -15.08,-33.695 -33.683,-33.695 -18.603,0 -33.682,15.079 -33.682,33.695 0,18.603 15.079,33.683 33.682,33.683 C -15.08,33.683 0,18.603 0,0 m 51.171,-22.635 v 45.259 l -14.03,4.386 c -10e-4,0.002 -10e-4,0.003 -10e-4,0.004 -0.506,1.342 -1.051,2.656 -1.635,3.96 0,0.001 -0.001,0.002 -0.001,0.002 L 42.32,43.993 10.317,75.996 -2.707,69.176 c 0,0 -0.001,0.001 -0.001,0.001 -1.303,0.583 -2.616,1.138 -3.959,1.643 l -4.385,14.027 h -45.259 l -4.385,-14.026 c -0.001,0 -0.001,0 -0.002,0 -1.343,-0.506 -2.656,-1.061 -3.959,-1.644 l -13.023,6.819 -32.003,-32.003 6.82,-13.024 c -0.593,-1.302 -1.137,-2.615 -1.642,-3.955 l -0.001,-0.004 -14.028,-4.386 v -45.259 l 14.031,-4.387 c 0.504,-1.339 1.058,-2.659 1.64,-3.958 l -6.82,-13.024 32.003,-32.003 13.021,6.818 c 0.001,0 0.001,0 0.001,0 1.304,-0.584 2.617,-1.139 3.96,-1.644 10e-4,-0.001 0.002,-0.001 0.003,-0.001 l 4.384,-14.024 h 45.259 l 4.385,14.025 c 1.342,0.505 2.656,1.06 3.959,1.644 0.001,0 0.002,10e-4 0.003,10e-4 l 13.022,-6.819 32.003,32.003 -6.821,13.026 c 0.582,1.299 1.134,2.618 1.638,3.955 z"
             style="fill:#9fc6ff;fill-opacity:1;fill-rule:nonzero;stroke:none"
             id="path286"
             inkscape:connector-curvature="0" /></g><g
           id="g288"
           transform="translate(232.8506,375.1006)"><path
             d="M 0,0 C -0.064,0 -0.128,0.024 -0.177,0.073 L -19.81,19.706 -32.007,13.319 c -0.067,-0.035 -0.148,-0.039 -0.218,-0.006 l -1.328,0.594 c -1.37,0.614 -2.605,1.127 -3.777,1.569 l -1.368,0.515 c -0.073,0.027 -0.128,0.086 -0.151,0.159 l -4.108,13.143 h -40.482 l -3.537,-11.314 c -0.042,-0.131 -0.18,-0.205 -0.314,-0.164 -0.131,0.042 -0.205,0.182 -0.164,0.314 l 3.592,11.489 c 0.033,0.104 0.13,0.175 0.239,0.175 h 40.85 c 0.109,0 0.206,-0.071 0.238,-0.175 l 4.127,-13.202 1.255,-0.473 c 1.181,-0.444 2.425,-0.962 3.804,-1.58 l 1.218,-0.545 12.252,6.416 c 0.098,0.049 0.216,0.032 0.293,-0.045 L 0.177,0.427 C 0.274,0.329 0.274,0.171 0.177,0.073 0.128,0.024 0.064,0 0,0 m -135.52,-9.123 c -0.063,0 -0.127,0.025 -0.176,0.074 -0.098,0.097 -0.098,0.256 0,0.353 l 28.884,28.885 c 0.077,0.077 0.194,0.096 0.293,0.045 l 12.252,-6.416 1.219,0.546 c 1.176,0.528 2.256,0.982 3.299,1.387 0.128,0.051 0.274,-0.014 0.324,-0.143 0.05,-0.128 -0.014,-0.273 -0.143,-0.323 -1.036,-0.402 -2.107,-0.852 -3.276,-1.377 l -1.329,-0.595 c -0.07,-0.032 -0.151,-0.028 -0.218,0.006 l -12.197,6.387 -28.755,-28.755 c -0.049,-0.049 -0.113,-0.074 -0.177,-0.074 M 2.987,-20.838 c -0.039,0 -0.079,0.009 -0.116,0.028 -0.122,0.064 -0.169,0.215 -0.105,0.338 L 8.815,-8.919 3.99,-4.094 c -0.098,0.098 -0.098,0.256 0,0.354 0.097,0.097 0.256,0.097 0.353,0 L 9.299,-8.696 C 9.376,-8.773 9.394,-8.892 9.344,-8.989 L 3.209,-20.704 C 3.164,-20.79 3.077,-20.838 2.987,-20.838 m -134.184,-5.714 c -0.03,0 -0.059,0.005 -0.089,0.016 -0.129,0.049 -0.194,0.193 -0.145,0.322 0.484,1.282 0.992,2.506 1.554,3.74 0.058,0.125 0.206,0.18 0.331,0.124 0.126,-0.057 0.181,-0.206 0.124,-0.331 -0.557,-1.224 -1.061,-2.438 -1.541,-3.71 -0.038,-0.1 -0.133,-0.161 -0.234,-0.161 m -0.016,-51.965 c -0.101,0 -0.196,0.061 -0.234,0.162 l -0.473,1.255 -13.206,4.127 c -0.104,0.033 -0.176,0.13 -0.176,0.239 v 40.85 c 0,0.109 0.072,0.206 0.176,0.238 l 12.627,3.948 c 0.135,0.042 0.273,-0.033 0.314,-0.164 0.041,-0.132 -0.032,-0.272 -0.164,-0.314 l -12.453,-3.892 V -72.55 l 13.147,-4.109 c 0.073,-0.023 0.132,-0.079 0.159,-0.151 l 0.517,-1.369 c 0.049,-0.129 -0.017,-0.273 -0.146,-0.322 -0.029,-0.011 -0.059,-0.016 -0.088,-0.016 m 68.014,-10.732 c -20.365,0 -36.933,16.574 -36.933,36.946 0,0.138 0.112,0.25 0.25,0.25 0.138,0 0.25,-0.112 0.25,-0.25 0,-20.096 16.344,-36.446 36.433,-36.446 20.088,0 36.431,16.35 36.431,36.446 0,20.089 -16.343,36.432 -36.431,36.432 -0.138,0 -0.25,0.112 -0.25,0.25 0,0.139 0.112,0.25 0.25,0.25 20.364,0 36.931,-16.567 36.931,-36.932 0,-20.372 -16.567,-36.946 -36.931,-36.946 m -26.46,-31.138 c -0.03,0 -0.061,0.005 -0.091,0.017 -1.015,0.393 -2.095,0.847 -3.3,1.388 -0.126,0.056 -0.183,0.204 -0.126,0.33 0.056,0.125 0.203,0.184 0.33,0.126 1.198,-0.537 2.27,-0.988 3.277,-1.378 0.129,-0.05 0.193,-0.195 0.143,-0.324 -0.038,-0.099 -0.133,-0.159 -0.233,-0.159 m -16.976,-4.492 c -0.064,0 -0.128,0.024 -0.177,0.073 l -28.884,28.884 c -0.077,0.077 -0.096,0.195 -0.045,0.293 l 6.471,12.359 c 0.065,0.121 0.217,0.167 0.338,0.105 0.122,-0.064 0.17,-0.215 0.106,-0.337 l -6.387,-12.197 28.755,-28.754 c 0.098,-0.097 0.098,-0.255 0,-0.353 -0.049,-0.049 -0.113,-0.073 -0.177,-0.073 m 86.873,0 c -0.064,0 -0.128,0.024 -0.176,0.073 -0.098,0.098 -0.098,0.256 0,0.353 l 28.753,28.754 -6.386,12.198 c -0.035,0.067 -0.038,0.148 -0.007,0.218 l 0.593,1.328 c 0.607,1.357 1.118,2.592 1.564,3.775 l 0.515,1.369 c 0.027,0.072 0.086,0.128 0.159,0.151 l 13.151,4.11 v 40.482 l -12.967,4.053 c -0.132,0.042 -0.205,0.182 -0.164,0.314 0.041,0.132 0.181,0.205 0.313,0.164 l 13.143,-4.109 c 0.104,-0.032 0.175,-0.129 0.175,-0.238 v -40.85 c 0,-0.109 -0.071,-0.206 -0.175,-0.239 l -13.21,-4.128 -0.473,-1.255 c -0.448,-1.192 -0.963,-2.436 -1.575,-3.803 l -0.543,-1.217 6.416,-12.253 c 0.05,-0.098 0.032,-0.216 -0.045,-0.293 l -28.884,-28.884 c -0.049,-0.049 -0.113,-0.073 -0.177,-0.073 m -23.011,-9.532 h -40.85 c -0.109,0 -0.206,0.071 -0.239,0.176 l -3.946,12.622 c -0.041,0.132 0.032,0.272 0.164,0.313 0.134,0.04 0.272,-0.033 0.313,-0.164 l 3.892,-12.447 h 40.482 l 4.108,13.14 c 0.023,0.073 0.078,0.131 0.15,0.159 l 1.368,0.516 c 1.157,0.435 2.393,0.949 3.778,1.57 l 1.332,0.595 c 0.124,0.059 0.274,10e-4 0.33,-0.126 0.057,-0.126 0,-0.274 -0.126,-0.33 l -1.332,-0.595 c -1.395,-0.625 -2.639,-1.143 -3.805,-1.581 l -1.254,-0.474 -4.127,-13.198 c -0.032,-0.105 -0.129,-0.176 -0.238,-0.176"
             style="fill:#ffffff;fill-opacity:1;fill-rule:nonzero;stroke:none"
             id="path290"
             inkscape:connector-curvature="0" /></g><g
           id="g292"
           transform="translate(313.3447,314.6123)"><path
             d="m 0,0 c 3.128,-3.982 6.052,-7.996 8.91,-12.13 2.834,-4.142 5.582,-8.352 8.16,-12.754 0.649,-1.092 1.269,-2.228 1.898,-3.345 1.082,-1.976 1.431,-3.86 1.563,-5.489 0.23,-3.278 -0.24,-6.021 -0.835,-8.676 -1.262,-5.269 -3.177,-9.976 -5.62,-14.61 L 8.93,-55.02 c 0.967,4.65 1.85,9.486 2.202,13.985 0.15,2.226 0.16,4.461 -0.194,6.107 -0.179,0.816 -0.434,1.386 -0.61,1.553 -0.664,0.992 -1.305,1.985 -1.998,2.973 -2.707,3.966 -5.575,7.909 -8.469,11.838 l -8.69,11.778 z"
             style="fill:#ff8b7b;fill-opacity:1;fill-rule:nonzero;stroke:none"
             id="path294"
             inkscape:connector-curvature="0" /></g><g
           id="g296"
           transform="translate(321.9102,260.1909)"><path
             d="m 0,0 -2.658,-4.76 9.282,-1.375 c 0,0 0.955,4.044 -1.339,6.764 z"
             style="fill:#ff8b7b;fill-opacity:1;fill-rule:nonzero;stroke:none"
             id="path298"
             inkscape:connector-curvature="0" /></g><g
           id="g300"
           transform="translate(317.8506,249.1025)"><path
             d="m 0,0 7.726,-0.777 2.958,5.73 -9.283,1.376 z"
             style="fill:#ff8b7b;fill-opacity:1;fill-rule:nonzero;stroke:none"
             id="path302"
             inkscape:connector-curvature="0" /></g><g
           id="g304"
           transform="translate(343.001,220.6992)"><path
             d="m 0,0 2.756,14.692 c 0.665,3.544 4.1,5.896 7.635,5.233 L 33.556,15.58 C 30.383,26.208 21.521,34.727 9.864,36.912 1.511,38.479 -6.685,36.492 -13.168,32.02 l -105.12,62.223 c 1.287,15.454 -9.303,29.68 -24.877,32.601 -11.655,2.186 -23.002,-2.543 -29.811,-11.299 l 23.165,-4.344 c 3.535,-0.663 5.885,-4.099 5.22,-7.643 l -2.755,-14.693 c -0.665,-3.544 -4.101,-5.894 -7.634,-5.231 l -23.166,4.345 c 3.173,-10.629 12.036,-19.147 23.691,-21.333 8.46,-1.586 16.753,0.475 23.274,5.066 L -26.271,9.614 c -1.45,-15.568 9.172,-29.96 24.846,-32.899 11.655,-2.187 23.002,2.542 29.811,11.298 L 5.221,-7.643 C 1.687,-6.979 -0.664,-3.544 0,0"
             style="fill:#407bff;fill-opacity:1;fill-rule:nonzero;stroke:none"
             id="path306"
             inkscape:connector-curvature="0" /></g><g
           id="g308"
           transform="translate(310.0166,241.6172)"><path
             d="m 0,0 -85.235,50.452 c -1.548,0.917 -2.06,2.915 -1.144,4.463 l 3.477,5.873 c 0.916,1.548 2.914,2.061 4.462,1.144 L 6.795,11.48 C 8.343,10.563 8.855,8.565 7.939,7.018 L 4.462,1.144 C 3.546,-0.404 1.548,-0.916 0,0"
             style="fill:#5592ff;fill-opacity:1;fill-rule:nonzero;stroke:none"
             id="path310"
             inkscape:connector-curvature="0" /></g><g
           id="g312"
           transform="translate(277.7354,345.686)"><path
             d="m 0,0 c -0.091,-0.585 -0.476,-1.011 -0.858,-0.951 -0.383,0.06 -0.619,0.583 -0.528,1.168 0.092,0.586 0.477,1.012 0.86,0.951 C -0.144,1.109 0.092,0.585 0,0"
             style="fill:#0f264c;fill-opacity:1;fill-rule:nonzero;stroke:none"
             id="path314"
             inkscape:connector-curvature="0" /></g><g
           id="g316"
           transform="translate(277.3135,344.6665)"><path
             d="m 0,0 c 0,0 -1.86,-3.169 -3.581,-4.569 0.885,-1.129 2.715,-0.963 2.715,-0.963 z"
             style="fill:#ff5652;fill-opacity:1;fill-rule:nonzero;stroke:none"
             id="path318"
             inkscape:connector-curvature="0" /></g><g
           id="g320"
           transform="translate(280.3721,348.6006)"><path
             d="M 0,0 C -0.089,0 -0.177,0.034 -0.245,0.101 -1.351,1.194 -2.604,0.935 -2.616,0.933 -2.811,0.889 -2.99,1.011 -3.03,1.199 -3.071,1.387 -2.952,1.572 -2.765,1.612 -2.696,1.626 -1.122,1.948 0.245,0.596 0.382,0.46 0.383,0.24 0.247,0.104 0.18,0.035 0.09,0 0,0"
             style="fill:#0f264c;fill-opacity:1;fill-rule:nonzero;stroke:none"
             id="path322"
             inkscape:connector-curvature="0" /></g><g
           id="g324"
           transform="translate(297.2705,339.2363)"><path
             d="m 0,0 c -1.054,-5.374 -2.104,-15.221 1.655,-18.808 0,0 -1.468,-5.451 -11.455,-5.451 -10.981,0 -5.248,5.451 -5.248,5.451 5.993,1.431 5.839,5.877 4.795,10.053 z"
             style="fill:#ff8b7b;fill-opacity:1;fill-rule:nonzero;stroke:none"
             id="path326"
             inkscape:connector-curvature="0" /></g><g
           id="g328"
           transform="translate(304.042,316.3936)"><path
             d="M 0,0 C -0.124,0.169 -0.211,0.366 -0.268,0.581 -1.108,3.765 -4.643,6.26 -9.224,6.382 -14.057,6.51 -19.497,5.93 -22.725,3.264 -24.14,2.096 -22.567,0.383 -22.567,0.383 Z"
             style="fill:#77b3fc;fill-opacity:1;fill-rule:nonzero;stroke:none"
             id="path330"
             inkscape:connector-curvature="0" /></g><g
           id="g332"
           transform="translate(341.46,117.4619)"><path
             d="m 0,0 c -0.802,-0.208 -2.098,-0.646 -2.43,-1.21 -0.078,-0.132 -0.095,-0.261 -0.053,-0.394 0.097,-0.312 0.249,-0.33 0.297,-0.334 C -1.687,-2.004 -0.627,-0.921 0,0 m -2.149,-2.289 c -0.026,0 -0.05,0.002 -0.076,0.005 -0.194,0.021 -0.454,0.139 -0.59,0.576 -0.073,0.229 -0.043,0.456 0.086,0.675 0.558,0.948 2.967,1.449 3.069,1.47 C 0.409,0.447 0.477,0.424 0.517,0.368 0.557,0.312 0.56,0.238 0.525,0.179 0.146,-0.471 -1.221,-2.289 -2.149,-2.289"
             style="fill:#407bff;fill-opacity:1;fill-rule:nonzero;stroke:none"
             id="path334"
             inkscape:connector-curvature="0" /></g><g
           id="g336"
           transform="translate(339.2969,118.791)"><path
             d="M 0,0 C -0.042,0 -0.084,-0.003 -0.124,-0.008 -0.313,-0.03 -0.457,-0.11 -0.562,-0.251 -0.698,-0.433 -0.638,-0.519 -0.611,-0.556 -0.326,-0.957 1.198,-1.125 2.137,-0.976 1.66,-0.63 0.696,0 0,0 m 1.343,-1.374 c -0.906,0 -1.926,0.178 -2.239,0.617 -0.086,0.123 -0.196,0.379 0.055,0.715 0.163,0.218 0.39,0.345 0.675,0.38 C 0.933,0.464 2.579,-0.87 2.648,-0.928 2.697,-0.969 2.721,-1.032 2.709,-1.095 2.697,-1.158 2.651,-1.209 2.591,-1.229 2.3,-1.321 1.839,-1.374 1.343,-1.374"
             style="fill:#407bff;fill-opacity:1;fill-rule:nonzero;stroke:none"
             id="path338"
             inkscape:connector-curvature="0" /></g><g
           id="g340"
           transform="translate(265.5137,92.3105)"><path
             d="M 0,0 C -0.122,0 -0.235,-0.013 -0.336,-0.04 -0.497,-0.083 -0.608,-0.163 -0.677,-0.283 -0.801,-0.5 -0.756,-0.606 -0.711,-0.668 -0.37,-1.143 1.489,-1.153 2.854,-0.961 2.173,-0.611 0.858,0 0,0 m 1.165,-1.425 c -0.942,0 -1.853,0.13 -2.158,0.554 -0.108,0.147 -0.192,0.4 0.014,0.76 0.115,0.202 0.3,0.339 0.551,0.407 1.228,0.338 3.79,-1.131 3.9,-1.193 C 3.534,-0.934 3.568,-1.005 3.557,-1.076 3.545,-1.147 3.49,-1.204 3.419,-1.219 2.95,-1.312 2.044,-1.425 1.165,-1.425"
             style="fill:#407bff;fill-opacity:1;fill-rule:nonzero;stroke:none"
             id="path342"
             inkscape:connector-curvature="0" /></g><g
           id="g344"
           transform="translate(267.1055,94.0664)"><path
             d="M 0,0 C -0.034,0 -0.069,-0.002 -0.104,-0.005 -0.417,-0.037 -0.437,-0.16 -0.443,-0.2 -0.524,-0.699 0.67,-1.947 1.574,-2.491 1.48,-1.913 1.218,-0.729 0.604,-0.227 0.42,-0.074 0.221,0 0,0 m 1.793,-2.978 c -0.024,0 -0.049,0.005 -0.071,0.015 -0.887,0.399 -2.644,1.987 -2.509,2.818 0.031,0.195 0.17,0.438 0.647,0.486 C 0.215,0.376 0.54,0.276 0.826,0.042 1.761,-0.725 1.958,-2.703 1.966,-2.787 1.972,-2.849 1.944,-2.909 1.895,-2.945 1.864,-2.967 1.829,-2.978 1.793,-2.978"
             style="fill:#407bff;fill-opacity:1;fill-rule:nonzero;stroke:none"
             id="path346"
             inkscape:connector-curvature="0" /></g><g
           id="g348"
           transform="translate(276.9766,91.2627)"><path
             d="m 0,0 h -7.347 l -0.731,17.013 h 7.347 z"
             style="fill:#ff8b7b;fill-opacity:1;fill-rule:nonzero;stroke:none"
             id="path350"
             inkscape:connector-curvature="0" /></g><g
           id="g352"
           transform="translate(348.4121,122.9512)"><path
             d="m 0,0 -5.957,-4.299 -14.062,10.832 5.957,4.299 z"
             style="fill:#ff8b7b;fill-opacity:1;fill-rule:nonzero;stroke:none"
             id="path354"
             inkscape:connector-curvature="0" /></g><g
           id="g356"
           transform="translate(341.6016,118.7129)"><path
             d="M 0,0 5.715,5.954 C 5.923,6.171 6.253,6.215 6.51,6.059 l 5.716,-3.476 c 0.592,-0.36 0.686,-1.188 0.198,-1.681 -2.031,-2.044 -3.123,-2.936 -5.636,-5.555 -1.547,-1.611 -5.755,-7.272 -7.89,-9.496 -2.088,-2.176 -4.614,-0.404 -3.939,0.698 3.026,4.941 4.461,9.843 4.541,12.278 0.014,0.44 0.195,0.857 0.5,1.173"
             style="fill:#14365b;fill-opacity:1;fill-rule:nonzero;stroke:none"
             id="path358"
             inkscape:connector-curvature="0" /></g><g
           id="g360"
           transform="translate(269.6787,92.1133)"><path
             d="m 0,0 h 8.022 c 0.301,0 0.561,-0.208 0.626,-0.501 l 1.451,-6.53 C 10.25,-7.708 9.735,-8.35 9.042,-8.338 c -2.894,0.049 -7.075,0.219 -10.713,0.219 -4.253,0 -7.927,-0.233 -12.914,-0.233 -3.016,0 -3.853,3.049 -2.591,3.326 5.747,1.257 10.44,1.392 15.406,4.454 C -1.23,-0.239 -0.634,0 0,0"
             style="fill:#14365b;fill-opacity:1;fill-rule:nonzero;stroke:none"
             id="path362"
             inkscape:connector-curvature="0" /></g><g
           id="g364"
           transform="translate(303.0625,304.9224)"><path
             d="m 0,0 c 1.03,-1.85 2.13,-3.64 3.22,-5.31 1.881,-2.89 3.7,-5.39 5.01,-7.11 1.17,-1.55 1.92,-2.46 1.92,-2.46 l 14.8,10.09 c 0,0 -8.96,17.52 -15.929,18.64 C 1.88,14.98 -4.649,8.3 0,0"
             style="fill:#19437f;fill-opacity:1;fill-rule:nonzero;stroke:none"
             id="path366"
             inkscape:connector-curvature="0" /></g><g
           id="g368"
           transform="translate(306.2822,299.6123)"><path
             d="M 0,0 C 1.881,-2.89 3.7,-5.39 5.011,-7.11 4.86,-3.67 4.15,1.9 1.48,6.13 0.5,5.17 0.11,2.69 0,0"
             style="fill:#133a68;fill-opacity:1;fill-rule:nonzero;stroke:none"
             id="path370"
             inkscape:connector-curvature="0" /></g><g
           id="g372"
           transform="translate(267.3125,294.4424)"><path
             d="m 0,0 c 0,-2.5 0.061,-5.25 0.2,-8.28 0.361,-8.24 1.26,-18.51 2.981,-31.27 H 42.47 c 0.27,6.03 -3.52,35.46 2.301,63.88 0,0 -6.741,1.35 -13.161,1.66 -5.02,0.24 -12.29,0.4 -16.7,0 C 9.09,25.45 3.61,23.95 3.61,23.95 3.61,23.95 -0.01,19.86 0,0"
             style="fill:#19437f;fill-opacity:1;fill-rule:nonzero;stroke:none"
             id="path374"
             inkscape:connector-curvature="0" /></g><g
           id="g376"
           transform="translate(267.3125,294.4424)"><path
             d="M 0,0 C 0,-2.5 0.061,-5.25 0.2,-8.28 4.811,-3.78 5.12,5.41 5.12,5.41 Z"
             style="fill:#133a68;fill-opacity:1;fill-rule:nonzero;stroke:none"
             id="path378"
             inkscape:connector-curvature="0" /></g><g
           id="g380"
           transform="translate(275.4951,305.8486)"><path
             d="m 0,0 c -0.89,-1.496 -1.652,-2.54 -2.495,-3.639 -0.826,-1.076 -1.662,-2.104 -2.514,-3.113 -1.69,-2.027 -3.493,-3.926 -5.34,-5.795 -3.742,-3.694 -7.728,-7.177 -12.442,-10.165 -1.192,-0.735 -2.434,-1.437 -3.757,-2.079 l -0.503,-0.236 -0.252,-0.118 c -0.073,-0.036 -0.168,-0.079 -0.312,-0.134 -0.507,-0.2 -1.04,-0.414 -1.518,-0.525 l -0.737,-0.187 -0.697,-0.121 c -0.475,-0.089 -0.907,-0.116 -1.347,-0.147 -3.46,-0.163 -6.222,0.484 -8.881,1.251 -5.275,1.601 -9.865,3.891 -14.345,6.711 l 2.369,4.982 c 4.596,-1.303 9.401,-2.547 13.863,-3.159 2.201,-0.28 4.442,-0.413 5.963,-0.087 0.178,0.045 0.369,0.075 0.502,0.127 l 0.22,0.063 0.161,0.077 c 0.13,0.038 0.16,0.1 0.232,0.13 l 0.609,0.343 c 0.887,0.516 1.781,1.11 2.669,1.751 3.571,2.592 7.009,5.861 10.247,9.284 1.633,1.707 3.198,3.494 4.727,5.279 0.759,0.896 1.499,1.803 2.194,2.704 0.672,0.882 1.401,1.843 1.806,2.481 z"
             style="fill:#ff8b7b;fill-opacity:1;fill-rule:nonzero;stroke:none"
             id="path382"
             inkscape:connector-curvature="0" /></g><g
           id="g384"
           transform="translate(223.8047,291.1992)"><path
             d="M 0,0 -4.887,5.815 -8.2,-2.669 c 0,0 4.208,-1.968 7.485,-0.844 z"
             style="fill:#ff8b7b;fill-opacity:1;fill-rule:nonzero;stroke:none"
             id="path386"
             inkscape:connector-curvature="0" /></g><g
           id="g388"
           transform="translate(211.7588,298.2705)"><path
             d="M 0,0 -1.355,-6.774 3.846,-9.74 7.159,-1.256 Z"
             style="fill:#ff8b7b;fill-opacity:1;fill-rule:nonzero;stroke:none"
             id="path390"
             inkscape:connector-curvature="0" /></g><g
           id="g392"
           transform="translate(281.3945,309.8267)"><path
             d="m 0,0 c -0.875,-6.969 -16.756,-21.749 -16.756,-21.749 l -14.298,11.338 c 0,0 5.655,8.579 12.52,14.532 C -8.179,13.101 1.051,8.364 0,0"
             style="fill:#19437f;fill-opacity:1;fill-rule:nonzero;stroke:none"
             id="path394"
             inkscape:connector-curvature="0" /></g><g
           id="g396"
           transform="translate(268.959,262.583)"><path
             d="m 0,0 c 14.27,0 17.535,16.139 18.279,23.065 -0.544,4.232 -2.936,17.79 -12.272,32.99 -0.329,0.535 -0.028,1.235 0.59,1.349 l 3.133,0.578 c 0.362,0.067 0.732,-0.098 0.927,-0.409 8.594,-13.744 11.4,-25.406 12.319,-31.406 h 2.551 c 2.626,5.702 8.395,18.687 7.919,30.858 -0.02,0.543 0.428,0.98 0.969,0.928 l 3.36,-0.322 c 0.442,-0.043 0.793,-0.399 0.812,-0.842 0.491,-11.736 -6.138,-28.003 -8.69,-33.167 0.877,-19.15 11.52,-22.455 11.52,-22.455 0,0 0.5,-6.084 -0.631,-14.249 C 18.239,-16.746 7,-14.51 0.574,-11.85 1.148,-7.034 0.25,-3.667 0,0"
             style="fill:#0053cc;fill-opacity:1;fill-rule:nonzero;stroke:none"
             id="path398"
             inkscape:connector-curvature="0" /></g><g
           id="g400"
           transform="translate(268.9004,108.2705)"><path
             d="m 0,0 0.375,-8.769 h 7.35 L 7.349,0 Z"
             style="fill:#ea7063;fill-opacity:1;fill-rule:nonzero;stroke:none"
             id="path402"
             inkscape:connector-curvature="0" /></g><g
           id="g404"
           transform="translate(334.3564,133.7812)"><path
             d="M 0,0 -5.96,-4.301 1.291,-9.882 7.25,-5.581 Z"
             style="fill:#ea7063;fill-opacity:1;fill-rule:nonzero;stroke:none"
             id="path406"
             inkscape:connector-curvature="0" /></g><g
           id="g408"
           transform="translate(297.4561,343.8691)"><path
             d="m 0,0 c -1.567,-7.12 -2.123,-11.368 -6.332,-14.489 -6.332,-4.696 -14.69,-0.013 -15.282,7.432 -0.532,6.702 2.12,17.22 9.605,18.979 C -4.634,13.655 1.567,7.121 0,0"
             style="fill:#ff8b7b;fill-opacity:1;fill-rule:nonzero;stroke:none"
             id="path410"
             inkscape:connector-curvature="0" /></g><g
           id="g412"
           transform="translate(303.8145,354.9165)"><path
             d="m 0,0 c 6.25,-0.169 3.674,-3.459 0.549,-5.266 0,0 3.602,-1.727 1.746,-5.857 -2.82,-6.273 -8.218,-13.16 -13.733,-12.782 -6.855,0.468 -8.807,7.933 -8.56,15.29 -3.615,3.412 -4.223,5.29 -4.789,9.386 C -25.913,8.906 -20.772,13.375 0,0"
             style="fill:#14365b;fill-opacity:1;fill-rule:nonzero;stroke:none"
             id="path414"
             inkscape:connector-curvature="0" /></g><g
           id="g416"
           transform="translate(295.7588,368.6167)"><path
             d="m 0,0 c 8.919,-2.277 14.303,-11.353 12.025,-20.271 l -32.297,8.245 C -17.995,-3.107 -8.919,2.277 0,0"
             style="fill:#9fc6ff;fill-opacity:1;fill-rule:nonzero;stroke:none"
             id="path418"
             inkscape:connector-curvature="0" /></g><g
           id="g420"
           transform="translate(302.1426,348.3257)"><path
             d="m 0,0 c -0.119,0 -0.241,0.015 -0.362,0.046 -0.781,0.199 -1.252,0.994 -1.053,1.775 0.923,3.613 0.246,7.411 -1.904,10.695 -2.178,3.325 -5.598,5.723 -9.632,6.753 -0.78,0.199 -1.252,0.994 -1.053,1.774 0.2,0.781 0.993,1.251 1.775,1.054 4.742,-1.211 8.773,-4.045 11.351,-7.982 C 1.727,10.138 2.54,5.515 1.413,1.099 1.244,0.439 0.651,0 0,0"
             style="fill:#77b3fc;fill-opacity:1;fill-rule:nonzero;stroke:none"
             id="path422"
             inkscape:connector-curvature="0" /></g><g
           id="g424"
           transform="translate(270.9463,356.1592)"><path
             d="m 0,0 37.989,-9.699 c 0.823,-0.21 1.666,0.29 1.876,1.112 0.209,0.822 -0.291,1.666 -1.112,1.875 L 0.763,2.987 C -0.059,3.197 -0.902,2.697 -1.112,1.875 -1.322,1.054 -0.821,0.21 0,0"
             style="fill:#77b3fc;fill-opacity:1;fill-rule:nonzero;stroke:none"
             id="path426"
             inkscape:connector-curvature="0" /></g><g
           id="g428"
           transform="translate(287.5752,344.5352)"><path
             d="m 0,0 c -0.179,-1.901 -1.124,-3.664 -2.228,-4.8 -1.66,-1.709 -3.293,-0.555 -3.504,1.603 -0.19,1.942 0.445,5.171 2.435,6.077 C -1.337,3.772 0.203,2.174 0,0"
             style="fill:#ff8b7b;fill-opacity:1;fill-rule:nonzero;stroke:none"
             id="path430"
             inkscape:connector-curvature="0" /></g><g
           id="g432"
           transform="translate(284.4268,254.8916)"><path
             d="m 0,0 c 0,0 -0.848,-52.283 5.723,-72.78 10.407,-32.468 41.825,-58.769 41.825,-58.769 l 11.235,8.109 c 0,0 -26.151,22.216 -30.95,49.565 C 23.521,-49.306 25.354,-20.068 25.354,0 Z"
             style="fill:#0053cc;fill-opacity:1;fill-rule:nonzero;stroke:none"
             id="path434"
             inkscape:connector-curvature="0" /></g><g
           id="g436"
           transform="translate(291.7627,245.9121)"><path
             d="M 0,0 C 1.39,-9.42 -3.52,-35.65 -5.22,-44.24 -7,-28.18 -7.33,-9.13 -7.36,1.271 -3.76,3.71 -0.64,4.34 0,0"
             style="fill:#004daa;fill-opacity:1;fill-rule:nonzero;stroke:none"
             id="path438"
             inkscape:connector-curvature="0" /></g><g
           id="g440"
           transform="translate(327.1914,125.7129)"><path
             d="M 0,0 C -0.047,-0.033 4.614,-2.75 4.614,-2.75 L 16.89,6.108 12.798,9.236 Z"
             style="fill:#77b3fc;fill-opacity:1;fill-rule:nonzero;stroke:none"
             id="path442"
             inkscape:connector-curvature="0" /></g><g
           id="g444"
           transform="translate(270.4883,254.8916)"><path
             d="m 0,0 c 0,0 -11.065,-46.9 -11.845,-69.304 -0.874,-25.125 7.895,-84.387 7.895,-84.387 H 8.495 c 0,0 1.532,59.723 2.086,82.608 C 11.185,-46.134 25.828,0 25.828,0 Z"
             style="fill:#0053cc;fill-opacity:1;fill-rule:nonzero;stroke:none"
             id="path446"
             inkscape:connector-curvature="0" /></g><g
           id="g448"
           transform="translate(264.1436,106.1572)"><path
             d="m 0,0 c -0.058,0 0.702,-5.167 0.702,-5.167 h 15.139 l 0.409,4.611 z"
             style="fill:#77b3fc;fill-opacity:1;fill-rule:nonzero;stroke:none"
             id="path450"
             inkscape:connector-curvature="0" /></g></g></g></g></svg>