<?xml version="1.0" encoding="UTF-8" standalone="no"?>
<svg
   xmlns:dc="http://purl.org/dc/elements/1.1/"
   xmlns:cc="http://creativecommons.org/ns#"
   xmlns:rdf="http://www.w3.org/1999/02/22-rdf-syntax-ns#"
   xmlns:svg="http://www.w3.org/2000/svg"
   xmlns="http://www.w3.org/2000/svg"
   xmlns:sodipodi="http://sodipodi.sourceforge.net/DTD/sodipodi-0.dtd"
   xmlns:inkscape="http://www.inkscape.org/namespaces/inkscape"
   height="24"
   viewBox="0 0 24 24"
   width="24"
   version="1.1"
   id="svg8"
   sodipodi:docname="shoppin.svg"
   inkscape:version="0.92.3 (2405546, 2018-03-11)">
  <metadata
     id="metadata14">
    <rdf:RDF>
      <cc:Work
         rdf:about="">
        <dc:format>image/svg+xml</dc:format>
        <dc:type
           rdf:resource="http://purl.org/dc/dcmitype/StillImage" />
      </cc:Work>
    </rdf:RDF>
  </metadata>
  <defs
     id="defs12" />
  <sodipodi:namedview
     pagecolor="#ffffff"
     bordercolor="#666666"
     borderopacity="1"
     objecttolerance="10"
     gridtolerance="10"
     guidetolerance="10"
     inkscape:pageopacity="0"
     inkscape:pageshadow="2"
     inkscape:window-width="1366"
     inkscape:window-height="691"
     id="namedview10"
     showgrid="false"
     inkscape:zoom="9.8333333"
     inkscape:cx="12"
     inkscape:cy="12"
     inkscape:window-x="0"
     inkscape:window-y="0"
     inkscape:window-maximized="1"
     inkscape:current-layer="svg8" />
  <circle
     cx="8"
     cy="21"
     fill="none"
     r="2"
     stroke="#000"
     stroke-linecap="round"
     stroke-linejoin="round"
     stroke-width="2"
     id="circle2" />
  <circle
     cx="20"
     cy="21"
     fill="none"
     r="2"
     stroke="#000"
     stroke-linecap="round"
     stroke-linejoin="round"
     stroke-width="2"
     id="circle4" />
  <path
     d="M5.67,6H23l-1.68,8.39a2,2,0,0,1-2,1.61H8.75a2,2,0,0,1-2-1.74L5.23,2.74A2,2,0,0,0,3.25,1H1"
     fill="none"
     stroke="#000"
     stroke-linecap="round"
     stroke-linejoin="round"
     stroke-width="2"
     id="path6" />
  <path
     style="stroke-width:0.10169491"
     d="M 7.668413,16.742242 C 7.0913858,16.530778 6.4710536,15.980817 6.1554109,15.400877 5.9072138,14.944857 5.827902,14.505766 5.3680449,11.041804 5.0867928,8.9232184 4.7204384,6.1636883 4.5539238,4.9095146 4.2382392,2.5318045 4.1449357,2.2266236 3.6795865,2.0496981 3.5390401,1.9962624 2.8057098,1.9525424 2.0499638,1.9525424 H 0.67588005 L 0.37861799,1.6552803 C -0.00399487,1.2726674 -0.02422534,0.76453492 0.32690988,0.35651834 L 0.57246383,0.07118644 H 2.2336896 c 1.5285961,0 1.7036649,0.01918777 2.1927901,0.24033264 0.5980208,0.27037918 1.2862566,0.95713642 1.5233183,1.52004572 0.1201516,0.2853031 0.5258842,2.6240036 0.5366414,3.0932772 9.356e-4,0.040697 3.7952136,0.08646 8.4317356,0.1016949 8.266934,0.027164 8.434406,0.031636 8.655739,0.2310902 0.462889,0.417135 0.460818,0.4397497 -0.464612,5.0730399 -0.481667,2.411523 -0.965647,4.590519 -1.075514,4.842214 -0.265675,0.60864 -0.837451,1.190134 -1.460907,1.485739 l -0.508474,0.241088 -6,-0.0062 c -4.9326749,-0.005 -6.0704426,-0.03196 -6.395994,-0.151267 z m 12.393285,-1.977999 c 0.227554,-0.227603 0.335083,-0.651894 0.966479,-3.81356 0.39074,-1.9566042 0.735036,-3.6604288 0.765101,-3.7862762 l 0.05466,-0.2288136 h -7.527361 c -7.3292894,0 -7.5273607,0.00509 -7.5273607,0.1933509 0,0.4733879 0.9249418,7.1060109 1.0248544,7.3490809 0.2449618,0.595952 0.2183933,0.593589 6.3711943,0.566783 l 5.616387,-0.02447 z"
     id="path3719"
     inkscape:connector-curvature="0" />
  <path
     style="stroke-width:0.10169491"
     d="M 7.6828443,16.756602 C 6.9840859,16.50724 6.452345,16.00253 6.0420232,15.199195 5.9290282,14.977971 5.6097562,12.887451 5.0711511,8.8421481 4.6297697,5.5270631 4.2099642,2.6859428 4.13825,2.5285474 3.9163393,2.0415065 3.5956055,1.9525424 2.0616343,1.9525424 H 0.67588005 L 0.37861799,1.6552803 C -0.00406005,1.2726022 -0.02424081,0.76449048 0.32703484,0.35651834 l 0.24567891,-0.2853319 1.71194825,1.121e-5 c 1.6592256,1.086e-5 1.7278063,0.0083803 2.2268758,0.271761 0.5926659,0.31277561 1.2146828,0.95781345 1.4403868,1.49369585 0.1185874,0.2815584 0.5238511,2.622991 0.5345148,3.0881875 9.356e-4,0.040697 3.7952136,0.08646 8.4317356,0.1016949 8.266934,0.027164 8.434406,0.031636 8.655739,0.2310902 0.462889,0.417135 0.460818,0.4397497 -0.464612,5.0730399 -0.481667,2.411523 -0.965647,4.590519 -1.075514,4.842214 -0.265675,0.60864 -0.837451,1.190134 -1.460907,1.485739 l -0.508474,0.241088 -6,-0.0035 C 9.3165575,16.893494 7.9847778,16.864353 7.6828443,16.756604 Z M 19.747383,14.97403 c 0.140546,-0.05344 0.331973,-0.213808 0.425392,-0.356384 0.09712,-0.148222 0.469012,-1.750535 0.868467,-3.741827 C 21.42548,8.9603898 21.764176,7.2902542 21.7939,7.1644068 l 0.05404,-0.2288136 h -7.479704 c -6.2487536,0 -7.4885274,0.022988 -7.5333072,0.1396822 -0.049341,0.1285798 0.8166291,6.9260276 0.9291504,7.2933856 0.075732,0.24725 0.4738783,0.577613 0.7579527,0.628915 0.5210397,0.09409 10.9735961,0.07217 11.2253491,-0.02355 z"
     id="path3721"
     inkscape:connector-curvature="0" />
  <path
     style="stroke-width:0.10169491"
     d="M 7.6705928,16.752389 C 7.1073656,16.551622 6.5876402,16.101029 6.2216523,15.496181 5.8492668,14.88076 5.9317473,15.343153 5.1615944,9.5534077 4.349718,3.4499999 4.2640769,2.8674957 4.1282303,2.5247791 3.9451089,2.0627965 3.5302444,1.9525424 1.9750182,1.9525424 H 0.60791057 L 0.34463325,1.6396551 C 0.00261718,1.233192 -0.00413145,0.74113544 0.32703484,0.35651834 l 0.24567891,-0.2853319 1.71194825,1.121e-5 c 1.6592256,1.086e-5 1.7278063,0.0083803 2.2268758,0.271761 0.5935255,0.31322926 1.2156347,0.95887255 1.43925,1.49369585 0.1263885,0.3022848 0.5263123,2.5727159 0.5350106,3.03734 0.00182,0.097409 1.8547327,0.1309288 8.4323766,0.1525424 8.266934,0.027164 8.434406,0.031636 8.655739,0.2310902 0.462889,0.417135 0.460818,0.4397497 -0.464612,5.0730399 -0.481667,2.411523 -0.965647,4.590519 -1.075514,4.842214 -0.265675,0.60864 -0.837451,1.190134 -1.460907,1.485739 l -0.508474,0.241088 -6,-0.0035 C 9.2269508,16.893443 7.9881024,16.86557 7.6705928,16.752392 Z M 19.936833,14.843335 c 0.337348,-0.221136 0.339694,-0.229739 1.144507,-4.195877 0.363193,-1.7898309 0.684477,-3.3580728 0.713962,-3.4849825 l 0.05361,-0.2307449 -7.468558,0.027355 c -4.107707,0.015045 -7.4977441,0.056556 -7.5334161,0.092247 -0.05756,0.05759 0.4215994,3.9736344 0.7940609,6.4896544 0.1534209,1.036376 0.3118124,1.289701 0.8941949,1.430139 0.1885243,0.04546 2.7702603,0.07513 5.7371923,0.06593 4.938091,-0.01531 5.417263,-0.0317 5.664446,-0.193726 z"
     id="path3723"
     inkscape:connector-curvature="0" />
  <path
     style="stroke-width:0.10169491"
     d="M 7.6828443,16.756602 C 6.9816834,16.506381 6.4526719,16.003039 6.0381587,15.191721 5.9208748,14.962164 5.6244661,13.048123 5.1089977,9.1917214 4.6926828,6.0771221 4.3028434,3.287022 4.2426879,2.991499 4.0527301,2.0583025 3.809915,1.9525424 1.8573452,1.9525424 H 0.60791057 L 0.34463325,1.6396551 C -0.02766252,1.1972066 -0.0113532,0.70757223 0.38901615,0.30720289 L 0.69667636,-4.5732915e-4 2.3466432,0.03622478 c 1.9188047,0.04265891 2.2750336,0.1577497 3.0488547,0.98502702 0.5408717,0.5782355 0.7083586,1.0539906 0.9454255,2.6855279 0.095493,0.6572034 0.1791222,1.2050538 0.185842,1.2174455 0.00672,0.012392 3.7943056,0.046714 8.4168556,0.076271 8.222536,0.052576 8.409529,0.058148 8.630316,0.2571307 0.466041,0.4200187 0.464256,0.4396205 -0.462548,5.0759651 -0.48174,2.409914 -0.966222,4.587594 -1.076625,4.839289 -0.256685,0.585185 -0.822637,1.170995 -1.433079,1.483363 l -0.479669,0.245451 -6.028805,-0.0045 c -4.7699083,-0.0035 -6.1084796,-0.0329 -6.4103667,-0.14063 z M 19.839355,14.922175 c 0.339161,-0.147487 0.495282,-0.682673 1.198376,-4.108053 0.386195,-1.8814959 0.727159,-3.5265653 0.757697,-3.6557097 l 0.05552,-0.2348081 -7.469608,0.031418 c -4.108283,0.01728 -7.4959805,0.057821 -7.5282149,0.09009 -0.056798,0.056859 0.3572373,3.4664678 0.7444561,6.1306528 0.2273728,1.564395 0.3214344,1.705496 1.2058653,1.808903 0.7951361,0.09297 10.8088045,0.03626 11.0359045,-0.06249 z"
     id="path3725"
     inkscape:connector-curvature="0" />
  <path
     style="stroke-width:0.10169491"
     d="M 7.6828443,16.756602 C 6.9812131,16.506214 6.4527361,16.00314 6.0373972,15.190249 5.9201642,14.960803 5.6363641,13.15811 5.15685,9.5970284 4.2018246,2.5045933 4.215205,2.5825393 3.8983311,2.2656655 3.6453668,2.0127012 3.5906656,2.0035651 2.1133076,1.9675321 L 0.58924536,1.9303601 0.33530064,1.6285639 C -0.00664368,1.2221862 -1.5501356e-4,0.74298387 0.35297446,0.32331334 L 0.62459298,5.1305797e-4 2.3106016,0.04080684 C 4.2467777,0.08707937 4.4745101,0.15256004 5.2624137,0.88955157 5.8942292,1.480541 6.0986762,2.0049244 6.3310603,3.6305085 c 0.095949,0.6711864 0.1972072,1.2432203 0.2250182,1.2711864 0.027811,0.027966 3.8185565,0.073729 8.4238775,0.1016949 l 8.373311,0.050847 0.253746,0.2384573 c 0.139559,0.1311514 0.281434,0.3487792 0.315276,0.4836171 0.05913,0.2355739 -1.396223,7.7751818 -1.741276,9.0208928 -0.199893,0.721651 -0.851359,1.492533 -1.568385,1.855877 l -0.490612,0.248613 -6.028805,-0.0045 c -4.7699083,-0.0035 -6.1084796,-0.0329 -6.4103667,-0.14063 z M 19.922473,14.862119 c 0.271335,-0.145214 0.512248,-1.044714 1.210522,-4.519746 0.337171,-1.6779662 0.63818,-3.1309323 0.668908,-3.2288137 0.05278,-0.1681097 -0.275912,-0.1779661 -5.934814,-0.1779661 -3.294875,0 -6.6818492,0.029916 -7.5266072,0.06648 l -1.5359238,0.06648 0.042368,0.2640286 c 0.023302,0.1452158 0.11502,0.8818253 0.2038173,1.63691 0.2720073,2.3130032 0.6598914,5.0165172 0.7684861,5.3562722 0.1584122,0.495616 0.3460277,0.587012 1.3534248,0.659318 1.3966278,0.100244 10.5279198,-0.0042 10.7498188,-0.122963 z"
     id="path3727"
     inkscape:connector-curvature="0" />
  <path
     style="stroke-width:0.10169491;fill:#ac9393"
     d="M 7.034446,23.795416 C 6.4988123,23.622879 5.7635387,22.984667 5.4437843,22.414735 4.3511371,20.467194 5.7740679,18.07589 8.022686,18.080766 c 1.1444079,0.0025 2.085121,0.603917 2.653735,1.696638 0.311055,0.597763 0.319772,1.764751 0.01809,2.421517 C 10.213559,23.245952 9.1504,23.923415 8.0135593,23.907269 7.65,23.902105 7.2093989,23.851771 7.034446,23.795416 Z m 1.7164015,-2.125468 c 0.6879121,-0.730281 0.021141,-1.863245 -0.9854242,-1.674412 -0.4772932,0.08954 -0.7688131,0.478069 -0.7688131,1.02465 0,0.963193 1.0816105,1.363817 1.7542373,0.649762 z"
     id="path3793"
     inkscape:connector-curvature="0" />
  <path
     style="fill:#ac9393;stroke-width:0.10169491"
     d="m 19.034446,23.795416 c -0.535634,-0.172537 -1.270907,-0.810749 -1.590662,-1.380681 -1.092647,-1.947541 0.330284,-4.338845 2.578902,-4.333969 1.144408,0.0025 2.085121,0.603917 2.653735,1.696638 0.311055,0.597763 0.319772,1.764751 0.01809,2.421517 -0.48095,1.047031 -1.544109,1.724494 -2.68095,1.708348 -0.363559,-0.0052 -0.80416,-0.0555 -0.979113,-0.111853 z m 1.716401,-2.125468 c 0.687913,-0.730281 0.02114,-1.863245 -0.985424,-1.674412 -0.477293,0.08954 -0.768813,0.478069 -0.768813,1.02465 0,0.963193 1.081611,1.363817 1.754237,0.649762 z"
     id="path3795"
     inkscape:connector-curvature="0" />
  <path
     style="fill:#ac9393;stroke-width:0.10169491"
     d="M 7.6820872,16.756341 C 7.0200632,16.520105 6.4579445,16.011243 6.1138131,15.33665 5.8970687,14.911771 5.7802091,14.245744 5.3108706,10.760379 4.172742,2.3084967 4.1894303,2.3992136 3.7255584,2.1427149 3.5746611,2.059276 2.9598346,1.9965749 2.0384968,1.9706656 L 0.588858,1.9298997 0.33510697,1.6283337 C -0.00663831,1.2221926 -7.600678e-5,0.74288998 0.35297446,0.32331334 L 0.62459298,5.1305797e-4 2.3106016,0.04080684 c 1.9156968,0.0457831 2.1561275,0.11242023 2.908778,0.80618917 0.6698808,0.61747459 0.837041,1.01936409 1.0838329,2.60576979 0.1196223,0.7689449 0.2368352,1.420963 0.2604732,1.4489291 0.023638,0.027966 3.8109733,0.073729 8.4163013,0.1016949 l 8.373324,0.050847 0.253724,0.2384573 c 0.139547,0.1311514 0.281148,0.3477285 0.314668,0.4812821 0.05928,0.2361808 -1.402969,7.8240178 -1.73886,9.0232278 -0.202189,0.721863 -0.85502,1.493461 -1.570215,1.855877 l -0.490612,0.248613 -6.028805,-0.0045 C 9.3175738,16.893692 7.9849366,16.864408 7.6820872,16.75634 Z m 12.2297768,-1.97695 c 0.173717,-0.127615 0.310332,-0.392806 0.43135,-0.837316 0.229913,-0.844502 1.399159,-6.5448005 1.399159,-6.8211782 V 6.909016 l -7.351514,0.044929 c -4.043333,0.024711 -7.3988888,0.074208 -7.4567906,0.1099929 -0.1214018,0.07503 -0.092384,0.3667098 0.422261,4.2445371 0.3760866,2.833793 0.4644486,3.255247 0.7285504,3.474916 0.2243716,0.186622 2.1976702,0.242946 7.3524082,0.209857 3.910213,-0.0251 4.239021,-0.04081 4.474576,-0.213857 z"
     id="path3797"
     inkscape:connector-curvature="0" />
  <path
     style="fill:#ff2a2a;stroke-width:0.10169491"
     d="M 11.572881,16.802898 C 7.6991761,16.749723 7.6535987,16.746648 7.2780226,16.513127 6.7195855,16.16591 6.199172,15.505719 6.0270671,14.926179 5.8954442,14.482957 5.3169307,10.69266 5.1101362,8.9186441 5.0710166,8.5830508 5.0170074,8.2706989 4.9901158,8.2245287 4.9632242,8.1783585 4.9209465,7.8386016 4.8961653,7.4695135 4.871384,7.1004254 4.8258274,6.7575383 4.7949281,6.7075423 4.7640289,6.6575463 4.7190609,6.3566252 4.6949993,6.0388286 4.6709377,5.7210322 4.5383931,4.8432203 4.4004557,4.0881356 4.2625185,3.3330508 4.1419193,2.6580508 4.1324575,2.5881356 4.1229957,2.5182203 4.0771187,2.4610169 4.0305084,2.4610169 c -0.04661,0 -0.073305,-0.034322 -0.059322,-0.076271 0.013983,-0.041949 -0.015223,-0.083803 -0.064901,-0.093009 C 3.8566063,2.2825308 3.7821298,2.2202602 3.7407818,2.1533577 3.6919556,2.0743554 3.1357873,2.0025576 2.1541255,1.9485304 0.69599071,1.8682799 0.63453741,1.8559155 0.41284916,1.5981876 0.07315813,1.2032733 0.07500504,0.86552705 0.41966294,0.35214504 L 0.64067797,0.02293415 2.1152542,0.07921933 C 4.0962681,0.15483545 4.4378033,0.23899315 5.0698561,0.80726298 5.7564951,1.4246104 5.9625489,1.8693231 6.2344585,3.3207483 6.5199819,4.8448427 6.5174087,4.834667 6.640678,4.9271172 c 0.055932,0.041949 1.3601695,0.076047 2.8983051,0.075775 1.5381359,-2.745e-4 5.2777109,0.029954 8.3101679,0.067169 l 5.513558,0.067663 0.272312,0.2842325 0.272313,0.2842325 -0.125607,0.7926683 c -0.244061,1.5402042 -1.437588,7.5135865 -1.633264,8.1741895 -0.237233,0.800895 -0.793074,1.486287 -1.563897,1.928399 l -0.520159,0.29834 -2.288136,-0.02157 c -1.258474,-0.01186 -4.05,-0.04576 -6.20339,-0.07532 z m 7.581943,-1.82559 c 0.523758,0.0017 1.13465,-0.31667 1.006245,-0.524434 -0.0318,-0.05145 -0.0045,-0.09355 0.06076,-0.09355 0.06522,0 0.09337,-0.06569 0.06256,-0.145972 -0.03081,-0.08028 -0.02215,-0.16037 0.01923,-0.177966 0.07557,-0.03214 0.540049,-1.941112 0.508213,-2.088741 -0.0094,-0.04337 0.01179,-0.14749 0.04698,-0.231389 0.113751,-0.271205 0.775917,-3.6358666 0.838814,-4.2622609 l 0.06099,-0.6074446 -6.745411,0.048804 c -6.6788234,0.048322 -7.8550539,0.081941 -8.0969222,0.2314235 -0.096845,0.059854 -0.069241,0.4954444 0.123696,1.951907 0.1365989,1.031173 0.2739349,2.126554 0.3051911,2.434181 0.031256,0.307628 0.1252344,0.948305 0.2088402,1.423729 0.083606,0.475424 0.176496,1.018111 0.2064227,1.205971 0.1166138,0.732025 0.2140406,0.783742 1.5426902,0.818909 0.4345689,0.0115 0.814144,0.04518 0.8435,0.07484 0.02936,0.02966 1.952528,0.02836 4.273714,-0.0029 2.321186,-0.03124 4.451704,-0.05605 4.734485,-0.05512 z"
     id="path3803"
     inkscape:connector-curvature="0" />
  <path
     style="fill:#ff2a2a;stroke-width:0.10169491"
     d="M 6.8111965,23.650843 C 6.2989627,23.390757 5.5828473,22.644994 5.3586514,22.138162 4.8809317,21.058198 5.1913666,19.704235 6.1050468,18.882758 c 1.3815814,-1.24216 3.4605721,-0.898399 4.4148772,0.73 0.359747,0.613861 0.439146,1.619212 0.187673,2.376324 -0.204193,0.614768 -0.7925679,1.2653 -1.4228512,1.573164 -0.5670035,0.276955 -2.0013971,0.328332 -2.4735493,0.0886 z m 1.939651,-1.96756 c 0.6159796,-0.68329 0.1779367,-1.730741 -0.7237946,-1.730741 -0.5920223,0 -0.9415925,0.330661 -1.0033034,0.949031 -0.078507,0.786677 0.3493921,1.232622 1.0915047,1.137536 0.2296139,-0.02942 0.4551823,-0.1557 0.6355933,-0.355826 z"
     id="path3805"
     inkscape:connector-curvature="0" />
  <path
     style="fill:#ff2a2a;stroke-width:0.10169491"
     d="m 18.811197,23.650843 c -0.512234,-0.260086 -1.22835,-1.005849 -1.452546,-1.512681 -0.477719,-1.079964 -0.167284,-2.433927 0.746396,-3.255404 1.381581,-1.24216 3.460572,-0.898399 4.414877,0.73 0.359747,0.613861 0.439146,1.619212 0.187673,2.376324 -0.204193,0.614768 -0.792568,1.2653 -1.422851,1.573164 -0.567004,0.276955 -2.001397,0.328332 -2.473549,0.0886 z m 1.93965,-1.96756 c 0.61598,-0.68329 0.177937,-1.730741 -0.723794,-1.730741 -0.592022,0 -0.941593,0.330661 -1.003304,0.949031 -0.07851,0.786677 0.349393,1.232622 1.091505,1.137536 0.229614,-0.02942 0.455183,-0.1557 0.635593,-0.355826 z"
     id="path3807"
     inkscape:connector-curvature="0" />
</svg>
