<?xml version="1.0" encoding="UTF-8" standalone="no"?>
<!-- Created with Inkscape (http://www.inkscape.org/) -->

<svg
   xmlns:dc="http://purl.org/dc/elements/1.1/"
   xmlns:cc="http://creativecommons.org/ns#"
   xmlns:rdf="http://www.w3.org/1999/02/22-rdf-syntax-ns#"
   xmlns:svg="http://www.w3.org/2000/svg"
   xmlns="http://www.w3.org/2000/svg"
   xmlns:sodipodi="http://sodipodi.sourceforge.net/DTD/sodipodi-0.dtd"
   xmlns:inkscape="http://www.inkscape.org/namespaces/inkscape"
   width="1000"
   height="500"
   viewBox="0 0 264.58333 132.29167"
   version="1.1"
   id="svg8"
   inkscape:version="0.92.4 (5da689c313, 2019-01-14)"
   sodipodi:docname="xxx.svg">
  <defs
     id="defs2" />
  <sodipodi:namedview
     id="base"
     pagecolor="#ffffff"
     bordercolor="#666666"
     borderopacity="1.0"
     inkscape:pageopacity="0.0"
     inkscape:pageshadow="2"
     inkscape:zoom="1.4"
     inkscape:cx="542.56743"
     inkscape:cy="208.09524"
     inkscape:document-units="mm"
     inkscape:current-layer="g4724"
     showgrid="false"
     units="px"
     inkscape:pagecheckerboard="false"
     inkscape:window-width="1920"
     inkscape:window-height="1017"
     inkscape:window-x="-8"
     inkscape:window-y="-8"
     inkscape:window-maximized="1" />
  <metadata
     id="metadata5">
    <rdf:RDF>
      <cc:Work
         rdf:about="">
        <dc:format>image/svg+xml</dc:format>
        <dc:type
           rdf:resource="http://purl.org/dc/dcmitype/StillImage" />
        <dc:title></dc:title>
      </cc:Work>
    </rdf:RDF>
  </metadata>
  <g
     inkscape:label="Layer 1"
     inkscape:groupmode="layer"
     id="layer1"
     transform="translate(0,-164.70832)">
    <g
       id="g4724">
      <g
         aria-label="C"
         transform="matrix(0.47974369,0,0,0.41621085,-16.918524,144.65108)"
         style="font-style:normal;font-weight:normal;font-size:40px;line-height:1.25;font-family:sans-serif;letter-spacing:0px;word-spacing:0px;fill:#0000ff;fill-opacity:1;stroke:#000000;stroke-opacity:1"
         id="flowRoot3750">
        <path
           d="m 225.42196,279.83497 q 0,2.15764 -0.13486,3.77587 -0.13485,1.61823 -0.53941,2.8319 -0.2697,1.21367 -0.80911,2.15764 -0.53941,0.94397 -1.88794,2.29249 -1.34852,1.34853 -5.6638,4.18043 -4.31527,2.69704 -10.78819,5.39409 -6.33807,2.5622 -14.69892,4.31528 -8.22599,1.88793 -18.07022,1.88793 -16.99141,0 -30.74635,-5.6638 -13.6201,-5.6638 -23.32947,-16.7217 -9.57452,-11.0579 -14.83377,-27.24019 -5.124391,-16.31714 -5.124391,-37.48897 0,-21.71124 5.528951,-38.70265 5.6638,-16.9914 15.77773,-28.72356 10.11393,-11.86702 24.13859,-18.07023 14.1595,-6.20321 31.28576,-6.20321 7.55173,0 14.69891,1.48338 7.14718,1.34852 13.21554,3.50616 6.06836,2.15764 10.78819,4.98954 4.71984,2.8319 6.47292,4.71983 1.88793,1.75309 2.42734,2.69705 0.53941,0.94397 0.80912,2.29249 0.40456,1.21368 0.53941,2.96676 0.2697,1.75308 0.2697,4.18042 0,2.69705 -0.2697,4.58499 -0.26971,1.88793 -0.80912,3.23645 -0.53941,1.21368 -1.34852,1.88794 -0.67426,0.53941 -1.75308,0.53941 -1.88794,0 -5.25925,-2.5622 -3.37131,-2.69705 -8.7654,-5.79865 -5.25925,-3.23646 -12.94584,-5.79866 -7.55173,-2.69705 -18.20507,-2.69705 -11.59731,0 -21.17183,4.71984 -9.43967,4.58498 -16.1823,13.62009 -6.74262,9.03512 -10.51848,22.1158 -3.64102,12.94583 -3.64102,29.66753 0,16.58685 3.50616,29.39783 3.64102,12.67613 10.24879,21.30669 6.74262,8.4957 16.45199,12.94583 9.70938,4.31528 21.98095,4.31528 10.38363,0 18.07022,-2.5622 7.82144,-2.5622 13.21554,-5.6638 5.52895,-3.23646 9.03511,-5.79866 3.50617,-2.56219 5.52895,-2.56219 0.94397,0 1.61823,0.40456 0.67426,0.40455 1.07882,1.61822 0.40456,1.07882 0.53941,3.10161 0.26971,2.02279 0.26971,5.12439 z"
           style="font-style:normal;font-variant:normal;font-weight:normal;font-stretch:normal;font-size:276.17776489px;font-family:Calibri;-inkscape-font-specification:Calibri;fill:#0000ff;stroke:#000000;stroke-opacity:1"
           id="path1424" />
      </g>
      <g
         aria-label="ERKLY"
         transform="matrix(0.58848129,0,0,0.58848129,-125.16302,96.484689)"
         style="font-style:normal;font-weight:normal;font-size:96px;line-height:1.25;font-family:sans-serif;letter-spacing:0px;word-spacing:0px;fill:#000000;fill-opacity:1;stroke:none"
         id="flowRoot4575">
        <path
           d="m 412.93443,262.8936 q 0,1.05376 -0.11708,1.87335 -0.11709,0.76105 -0.4098,1.28793 -0.29271,0.52688 -0.7025,0.76104 -0.35126,0.23417 -0.81959,0.23417 h -36.35467 q -1.34647,0 -2.57586,-0.87813 -1.17084,-0.93667 -1.17084,-3.21982 v -67.55763 q 0,-2.28314 1.17084,-3.16127 1.22939,-0.93668 2.57586,-0.93668 h 35.94487 q 0.46834,0 0.81959,0.23417 0.4098,0.23417 0.64397,0.76105 0.23416,0.52688 0.35125,1.34647 0.17563,0.76105 0.17563,1.93189 0,1.05376 -0.17563,1.87335 -0.11709,0.76105 -0.35125,1.28793 -0.23417,0.46833 -0.64397,0.7025 -0.35125,0.23417 -0.81959,0.23417 h -29.62232 v 23.76811 h 25.40729 q 0.46834,0 0.81959,0.29271 0.40979,0.23417 0.64396,0.7025 0.29271,0.46834 0.4098,1.28793 0.11708,0.81959 0.11708,1.93189 0,1.05376 -0.11708,1.81481 -0.11709,0.76105 -0.4098,1.22938 -0.23417,0.46834 -0.64396,0.70251 -0.35125,0.17563 -0.81959,0.17563 h -25.40729 v 27.10501 h 30.03212 q 0.46833,0 0.81959,0.23417 0.40979,0.23416 0.7025,0.76104 0.29271,0.46834 0.4098,1.28793 0.11708,0.76105 0.11708,1.93189 z"
           style="font-style:normal;font-variant:normal;font-weight:normal;font-stretch:normal;font-size:119.89430237px;font-family:Calibri;-inkscape-font-specification:Calibri"
           id="path1427" />
        <path
           d="m 479.8481,265.528 q 0,0.46833 -0.17563,0.81959 -0.17562,0.35125 -0.76104,0.58542 -0.58543,0.23417 -1.63918,0.35125 -1.05376,0.11709 -2.81003,0.11709 -1.52209,0 -2.51731,-0.11709 -0.93667,-0.11708 -1.5221,-0.35125 -0.58542,-0.29271 -0.93667,-0.76105 -0.29271,-0.46834 -0.52688,-1.17084 l -6.96651,-17.85535 q -1.22939,-3.0442 -2.57586,-5.56151 -1.28792,-2.57585 -3.10273,-4.39066 -1.81481,-1.87335 -4.27358,-2.86856 -2.45877,-1.05376 -5.91275,-1.05376 h -6.73235 V 265.528 q 0,0.46833 -0.29271,0.81959 -0.23417,0.35125 -0.81959,0.58542 -0.52688,0.17562 -1.5221,0.29271 -0.93667,0.17563 -2.40022,0.17563 -1.46356,0 -2.45877,-0.17563 -0.93668,-0.11709 -1.5221,-0.29271 -0.58542,-0.23417 -0.81959,-0.58542 -0.23417,-0.35126 -0.23417,-0.81959 v -70.13349 q 0,-2.28314 1.17085,-3.16127 1.22938,-0.93668 2.57585,-0.93668 h 16.09909 q 2.86856,0 4.74191,0.17563 1.93189,0.11708 3.45399,0.29271 4.39066,0.76105 7.72756,2.40023 3.39544,1.63918 5.67859,4.15649 2.28314,2.51731 3.39544,5.79567 1.17084,3.21982 1.17084,7.14214 0,3.80524 -1.05375,6.84943 -0.99522,2.98565 -2.92711,5.32734 -1.93189,2.28314 -4.62483,3.98086 -2.69294,1.69773 -6.02984,2.86857 1.87335,0.81959 3.39544,2.10752 1.5221,1.22938 2.81003,2.98565 1.34647,1.75626 2.51731,4.0394 1.17084,2.28315 2.34168,5.15171 l 6.79089,16.68451 q 0.81959,2.10752 1.05376,2.98565 0.23417,0.81959 0.23417,1.28793 z m -15.16241,-53.21481 q 0,-4.4492 -1.99044,-7.49339 -1.99043,-3.10274 -6.6738,-4.4492 -1.46355,-0.4098 -3.3369,-0.58543 -1.81481,-0.17562 -4.80046,-0.17562 h -8.48861 v 25.52437 h 9.83508 q 3.98087,0 6.84943,-0.93667 2.92711,-0.99522 4.859,-2.69294 1.93189,-1.75627 2.81002,-4.09795 0.93668,-2.34169 0.93668,-5.09317 z"
           style="font-style:normal;font-variant:normal;font-weight:normal;font-stretch:normal;font-size:119.89430237px;font-family:Calibri;-inkscape-font-specification:Calibri"
           id="path1429" />
        <path
           d="m 543.83466,265.41091 q 0,0.46834 -0.23416,0.87813 -0.17563,0.35126 -0.76105,0.58543 -0.58542,0.23416 -1.58064,0.35125 -0.99522,0.17563 -2.57585,0.17563 -2.04898,0 -3.33691,-0.17563 -1.28792,-0.17563 -1.93189,-0.64396 -0.64396,-0.46834 -1.05376,-1.05376 L 504.49435,227.65123 V 265.528 q 0,0.40979 -0.23417,0.81959 -0.23417,0.35125 -0.81959,0.58542 -0.58542,0.17562 -1.58064,0.29271 -0.93667,0.17563 -2.40023,0.17563 -1.40501,0 -2.40023,-0.17563 -0.99521,-0.11709 -1.58063,-0.29271 -0.58542,-0.23417 -0.81959,-0.58542 -0.23417,-0.4098 -0.23417,-0.81959 v -72.70934 q 0,-0.46834 0.23417,-0.81959 0.23417,-0.35125 0.81959,-0.52688 0.58542,-0.23417 1.58063,-0.35125 0.99522,-0.17563 2.40023,-0.17563 1.46356,0 2.40023,0.17563 0.99522,0.11708 1.58064,0.35125 0.58542,0.17563 0.81959,0.52688 0.23417,0.35125 0.23417,0.81959 v 33.66173 l 26.8123,-33.66173 q 0.35125,-0.52688 0.81959,-0.87813 0.46833,-0.35126 1.1123,-0.52688 0.7025,-0.23417 1.63918,-0.35125 0.99521,-0.11709 2.51731,-0.11709 1.52209,0 2.45877,0.17563 0.93667,0.11708 1.46355,0.35125 0.58542,0.23417 0.76105,0.58542 0.23417,0.35125 0.23417,0.76105 0,0.76105 -0.4098,1.5221 -0.35125,0.76104 -1.40501,2.10751 l -25.11458,30.03212 27.04647,35.94487 q 0.99522,1.5221 1.17085,2.10752 0.23416,0.52688 0.23416,0.87813 z"
           style="font-style:normal;font-variant:normal;font-weight:normal;font-stretch:normal;font-size:119.89430237px;font-family:Calibri;-inkscape-font-specification:Calibri"
           id="path1431" />
        <path
           d="m 595.99571,262.65943 q 0,1.17085 -0.11709,1.99043 -0.11708,0.76105 -0.40979,1.34647 -0.23417,0.52688 -0.64397,0.81959 -0.35125,0.23417 -0.87813,0.23417 h -33.4861 q -1.34647,0 -2.57586,-0.87813 -1.17084,-0.93667 -1.17084,-3.21982 v -70.13348 q 0,-0.46834 0.23417,-0.81959 0.23417,-0.35125 0.81959,-0.52688 0.58542,-0.23417 1.58064,-0.35125 0.99521,-0.17563 2.40023,-0.17563 1.46355,0 2.40022,0.17563 0.99522,0.11708 1.58064,0.35125 0.58542,0.17563 0.81959,0.52688 0.23417,0.35125 0.23417,0.81959 v 65.50865 h 27.16355 q 0.52688,0 0.87813,0.29271 0.4098,0.23417 0.64397,0.76105 0.29271,0.46834 0.40979,1.28793 0.11709,0.81959 0.11709,1.99043 z"
           style="font-style:normal;font-variant:normal;font-weight:normal;font-stretch:normal;font-size:119.89430237px;font-family:Calibri;-inkscape-font-specification:Calibri"
           id="path1433" />
        <path
           d="m 621.40301,237.6034 v 27.9246 q 0,0.46833 -0.23417,0.81959 -0.23417,0.35125 -0.81959,0.58542 -0.58542,0.17562 -1.58064,0.29271 -0.99522,0.17563 -2.40023,0.17563 -1.46355,0 -2.45877,-0.17563 -0.93667,-0.11709 -1.58064,-0.29271 -0.58542,-0.23417 -0.81959,-0.58542 -0.23417,-0.35126 -0.23417,-0.81959 v -27.9246 l -21.42642,-42.73577 q -0.64396,-1.34646 -0.81959,-2.10751 -0.11708,-0.76105 0.29271,-1.17085 0.46834,-0.40979 1.58064,-0.52687 1.17084,-0.11709 3.10273,-0.11709 1.75627,0 2.81003,0.11709 1.1123,0.11708 1.75626,0.35125 0.64396,0.17562 0.93667,0.58542 0.35126,0.35125 0.64397,0.93667 l 10.47904,21.77768 q 1.46355,3.10273 2.92711,6.49818 1.46355,3.39544 2.98565,6.84943 h 0.11708 q 1.34647,-3.3369 2.75148,-6.61526 1.46356,-3.33691 2.92711,-6.55672 l 10.53758,-21.89476 q 0.17563,-0.58543 0.46834,-0.99522 0.35125,-0.4098 0.87813,-0.58542 0.58543,-0.23417 1.58064,-0.35125 0.99522,-0.11709 2.51731,-0.11709 2.10752,0 3.27836,0.17563 1.22939,0.11708 1.69773,0.52688 0.46833,0.40979 0.29271,1.17084 -0.11709,0.76105 -0.76105,2.04897 z"
           style="font-style:normal;font-variant:normal;font-weight:normal;font-stretch:normal;font-size:119.89430237px;font-family:Calibri;-inkscape-font-specification:Calibri"
           id="path1435" />
      </g>
      <g
         aria-label="L"
         transform="matrix(0.5884813,0,0,0.5884813,-151.94455,96.305491)"
         style="font-style:normal;font-weight:normal;font-size:96px;line-height:1.25;font-family:sans-serif;letter-spacing:0px;word-spacing:0px;fill:#ff0000;fill-opacity:1;stroke:#000000;stroke-opacity:1"
         id="flowRoot4575-3">
        <path
           d="m 410.06587,262.65943 q 0,1.17085 -0.11709,1.99043 -0.11708,0.76105 -0.40979,1.34647 -0.23417,0.52688 -0.64397,0.81959 -0.35125,0.23417 -0.87813,0.23417 h -33.4861 q -1.34647,0 -2.57586,-0.87813 -1.17084,-0.93667 -1.17084,-3.21982 v -70.13348 q 0,-0.46834 0.23417,-0.81959 0.23417,-0.35125 0.81959,-0.52688 0.58542,-0.23417 1.58064,-0.35125 0.99521,-0.17563 2.40023,-0.17563 1.46355,0 2.40022,0.17563 0.99522,0.11708 1.58064,0.35125 0.58542,0.17563 0.81959,0.52688 0.23417,0.35125 0.23417,0.81959 v 65.50865 h 27.16355 q 0.52688,0 0.87813,0.29271 0.4098,0.23417 0.64397,0.76105 0.29271,0.46834 0.40979,1.28793 0.11709,0.81959 0.11709,1.99043 z"
           style="font-style:normal;font-variant:normal;font-weight:normal;font-stretch:normal;font-size:119.89430237px;font-family:Calibri;-inkscape-font-specification:Calibri;fill:#ff0000;stroke:#000000;stroke-opacity:1"
           id="path1438" />
      </g>
      <g
         aria-label="BOOKS"
         transform="matrix(0.52660784,0,0,0.52660784,-91.791044,70.827392)"
         style="font-style:normal;font-weight:normal;font-size:40px;line-height:1.25;font-family:sans-serif;letter-spacing:0px;word-spacing:0px;fill:#000000;fill-opacity:1;stroke:none"
         id="flowRoot4609">
        <path
           d="m 368.5918,374.96196 q 0,1.19141 -0.3125,2.20703 -0.29297,0.9961 -0.83985,1.79688 -0.54687,0.80078 -1.32812,1.40625 -0.76172,0.60547 -1.73828,1.01562 -0.95703,0.41016 -2.07032,0.625 -1.09375,0.19532 -2.51953,0.19532 h -6.60156 q -0.44922,0 -0.85937,-0.29297 -0.39063,-0.3125 -0.39063,-1.07422 v -22.53906 q 0,-0.76172 0.39063,-1.05469 0.41015,-0.3125 0.85937,-0.3125 h 5.74219 q 2.26562,0 3.71094,0.42969 1.44531,0.42968 2.40234,1.25 0.97656,0.82031 1.46484,2.01172 0.48828,1.1914 0.48828,2.69531 0,0.89844 -0.21484,1.71875 -0.21484,0.82031 -0.64453,1.52344 -0.41016,0.68359 -1.05469,1.23046 -0.625,0.54688 -1.44531,0.89844 1.03516,0.19531 1.93359,0.72266 0.89844,0.50781 1.5625,1.30859 0.6836,0.80078 1.07422,1.875 0.39063,1.07422 0.39063,2.36328 z m -5.0586,-11.30859 q 0,-0.91797 -0.2539,-1.66016 -0.25391,-0.74218 -0.80078,-1.25 -0.54688,-0.52734 -1.42579,-0.80078 -0.8789,-0.27344 -2.32421,-0.27344 h -3.47657 v 8.1836 h 3.82813 q 1.30859,0 2.10937,-0.33203 0.80078,-0.35157 1.32813,-0.91797 0.52734,-0.58594 0.76172,-1.34766 0.2539,-0.78125 0.2539,-1.60156 z m 1.52344,11.50391 q 0,-1.13282 -0.37109,-1.99219 -0.35157,-0.85938 -1.05469,-1.44531 -0.68359,-0.58594 -1.73828,-0.87891 -1.03516,-0.3125 -2.61719,-0.3125 h -4.02344 v 8.90625 h 4.88282 q 1.15234,0 2.01171,-0.27344 0.85938,-0.27344 1.50391,-0.80078 0.66406,-0.54687 1.03516,-1.34766 0.37109,-0.80078 0.37109,-1.85546 z"
           style="font-style:normal;font-variant:normal;font-weight:normal;font-stretch:normal;font-family:Calibri;-inkscape-font-specification:Calibri"
           id="path1441" />
        <path
           d="m 394.90039,369.27837 q 0,3.06641 -0.72266,5.52734 -0.72265,2.46094 -2.16796,4.19922 -1.42579,1.71875 -3.59375,2.65625 -2.16797,0.91797 -5.0586,0.91797 -2.85156,0 -4.9414,-0.83984 -2.07032,-0.85938 -3.4375,-2.48047 -1.34766,-1.6211 -2.01172,-4.02344 -0.66407,-2.40234 -0.66407,-5.52734 0,-2.98828 0.72266,-5.42969 0.72266,-2.44141 2.16797,-4.14063 1.44531,-1.71875 3.61328,-2.63671 2.16797,-0.9375 5.05859,-0.9375 2.79297,0 4.86329,0.83984 2.07031,0.83984 3.4375,2.46094 1.38671,1.60156 2.05078,3.98437 0.68359,2.36328 0.68359,5.42969 z m -3.53516,0.23437 q 0,-2.14843 -0.39062,-3.98437 -0.37109,-1.85547 -1.26953,-3.20313 -0.87891,-1.36718 -2.36328,-2.1289 -1.48438,-0.76172 -3.67188,-0.76172 -2.1875,0 -3.67187,0.82031 -1.48438,0.82031 -2.42188,2.1875 -0.91797,1.36719 -1.32812,3.20313 -0.39063,1.8164 -0.39063,3.82812 0,2.22656 0.3711,4.10156 0.37109,1.875 1.25,3.24219 0.8789,1.34766 2.34375,2.10938 1.48437,0.74218 3.71093,0.74218 2.20703,0 3.71094,-0.82031 1.50391,-0.82031 2.42188,-2.20703 0.91796,-1.40625 1.30859,-3.24219 0.39062,-1.83593 0.39062,-3.88672 z"
           style="font-style:normal;font-variant:normal;font-weight:normal;font-stretch:normal;font-family:Calibri;-inkscape-font-specification:Calibri"
           id="path1443" />
        <path
           d="m 421.38477,369.27837 q 0,3.06641 -0.72266,5.52734 -0.72266,2.46094 -2.16797,4.19922 -1.42578,1.71875 -3.59375,2.65625 -2.16797,0.91797 -5.05859,0.91797 -2.85157,0 -4.94141,-0.83984 -2.07031,-0.85938 -3.4375,-2.48047 -1.34766,-1.6211 -2.01172,-4.02344 -0.66406,-2.40234 -0.66406,-5.52734 0,-2.98828 0.72266,-5.42969 0.72265,-2.44141 2.16796,-4.14063 1.44532,-1.71875 3.61329,-2.63671 2.16796,-0.9375 5.05859,-0.9375 2.79297,0 4.86328,0.83984 2.07031,0.83984 3.4375,2.46094 1.38672,1.60156 2.05078,3.98437 0.6836,2.36328 0.6836,5.42969 z m -3.53516,0.23437 q 0,-2.14843 -0.39063,-3.98437 -0.37109,-1.85547 -1.26953,-3.20313 -0.8789,-1.36718 -2.36328,-2.1289 -1.48437,-0.76172 -3.67187,-0.76172 -2.1875,0 -3.67188,0.82031 -1.48437,0.82031 -2.42187,2.1875 -0.91797,1.36719 -1.32813,3.20313 -0.39062,1.8164 -0.39062,3.82812 0,2.22656 0.37109,4.10156 0.37109,1.875 1.25,3.24219 0.87891,1.34766 2.34375,2.10938 1.48438,0.74218 3.71094,0.74218 2.20703,0 3.71094,-0.82031 1.5039,-0.82031 2.42187,-2.20703 0.91797,-1.40625 1.30859,-3.24219 0.39063,-1.83593 0.39063,-3.88672 z"
           style="font-style:normal;font-variant:normal;font-weight:normal;font-stretch:normal;font-family:Calibri;-inkscape-font-specification:Calibri"
           id="path1445" />
        <path
           d="m 443.18164,381.66118 q 0,0.15625 -0.0781,0.29297 -0.0586,0.11719 -0.25391,0.19531 -0.19531,0.0781 -0.52734,0.11719 -0.33204,0.0586 -0.85938,0.0586 -0.68359,0 -1.11328,-0.0586 -0.42969,-0.0586 -0.64453,-0.21484 -0.21485,-0.15625 -0.35156,-0.35157 l -9.29688,-12.63671 v 12.63671 q 0,0.13672 -0.0781,0.27344 -0.0781,0.11719 -0.27344,0.19531 -0.19531,0.0586 -0.52735,0.0977 -0.3125,0.0586 -0.80078,0.0586 -0.46875,0 -0.80078,-0.0586 -0.33203,-0.0391 -0.52734,-0.0977 -0.19531,-0.0781 -0.27344,-0.19531 -0.0781,-0.13672 -0.0781,-0.27344 v -24.25781 q 0,-0.15625 0.0781,-0.27344 0.0781,-0.11718 0.27344,-0.17578 0.19531,-0.0781 0.52734,-0.11718 0.33203,-0.0586 0.80078,-0.0586 0.48828,0 0.80078,0.0586 0.33204,0.0391 0.52735,0.11718 0.19531,0.0586 0.27344,0.17578 0.0781,0.11719 0.0781,0.27344 v 11.23047 l 8.94531,-11.23047 q 0.11719,-0.17578 0.27344,-0.29297 0.15625,-0.11718 0.37109,-0.17578 0.23438,-0.0781 0.54688,-0.11719 0.33203,-0.0391 0.83984,-0.0391 0.50782,0 0.82032,0.0586 0.3125,0.0391 0.48828,0.11718 0.19531,0.0781 0.2539,0.19532 0.0781,0.11718 0.0781,0.2539 0,0.25391 -0.13672,0.50781 -0.11719,0.25391 -0.46875,0.70313 l -8.37891,10.01953 9.02344,11.99219 q 0.33203,0.50781 0.39063,0.70312 0.0781,0.17578 0.0781,0.29297 z"
           style="font-style:normal;font-variant:normal;font-weight:normal;font-stretch:normal;font-family:Calibri;-inkscape-font-specification:Calibri"
           id="path1447" />
        <path
           d="m 460.74023,375.11821 q 0,1.77735 -0.66406,3.16407 -0.64453,1.38671 -1.8164,2.36328 -1.15235,0.95703 -2.73438,1.44531 -1.5625,0.48828 -3.37891,0.48828 -1.26953,0 -2.36328,-0.21484 -1.07422,-0.21485 -1.93359,-0.52735 -0.83984,-0.3125 -1.42578,-0.64453 -0.56641,-0.33203 -0.80078,-0.5664 -0.21485,-0.23438 -0.33203,-0.58594 -0.0977,-0.3711 -0.0977,-0.97656 0,-0.42969 0.0391,-0.70313 0.0391,-0.29297 0.11719,-0.46875 0.0781,-0.17578 0.19531,-0.23437 0.11719,-0.0781 0.27344,-0.0781 0.27344,0 0.76172,0.33203 0.50781,0.33203 1.28906,0.72266 0.78125,0.39062 1.875,0.74219 1.11328,0.33203 2.55859,0.33203 1.09375,0 1.99219,-0.29297 0.91797,-0.29297 1.5625,-0.82031 0.66406,-0.54688 1.01563,-1.32813 0.35156,-0.78125 0.35156,-1.77734 0,-1.07422 -0.48828,-1.83594 -0.48828,-0.76172 -1.28906,-1.32813 -0.80079,-0.58593 -1.83594,-1.05468 -1.01563,-0.48828 -2.08985,-0.97657 -1.07421,-0.50781 -2.08984,-1.11328 -1.01562,-0.60547 -1.81641,-1.42578 -0.80078,-0.82031 -1.30859,-1.91406 -0.48828,-1.11328 -0.48828,-2.65625 0,-1.58203 0.56641,-2.8125 0.58593,-1.25 1.60156,-2.08984 1.03515,-0.83985 2.4414,-1.26954 1.42579,-0.44921 3.06641,-0.44921 0.83984,0 1.67969,0.15625 0.85937,0.13671 1.60156,0.39062 0.76172,0.23438 1.34766,0.54688 0.58593,0.29296 0.76172,0.48828 0.19531,0.17578 0.2539,0.29297 0.0586,0.0976 0.0977,0.27343 0.0391,0.15625 0.0586,0.39063 0.0195,0.23437 0.0195,0.60547 0,0.35156 -0.0391,0.625 -0.0195,0.27343 -0.0781,0.46875 -0.0586,0.17578 -0.17579,0.27343 -0.0976,0.0781 -0.23437,0.0781 -0.21484,0 -0.68359,-0.27344 -0.44922,-0.27344 -1.11329,-0.60547 -0.66406,-0.35156 -1.58203,-0.625 -0.89843,-0.29297 -2.03125,-0.29297 -1.05468,0 -1.83593,0.29297 -0.78125,0.27344 -1.28907,0.74219 -0.50781,0.46875 -0.76172,1.11328 -0.2539,0.64453 -0.2539,1.36719 0,1.05469 0.48828,1.81641 0.48828,0.76171 1.28906,1.34765 0.82031,0.58594 1.85547,1.07422 1.03516,0.48828 2.10938,0.99609 1.07421,0.48829 2.10937,1.09375 1.03516,0.58594 1.83594,1.40625 0.82031,0.80079 1.30859,1.91407 0.50781,1.09375 0.50781,2.59765 z"
           style="font-style:normal;font-variant:normal;font-weight:normal;font-stretch:normal;font-family:Calibri;-inkscape-font-specification:Calibri"
           id="path1449" />
      </g>
      <path
         inkscape:export-ydpi="96"
         inkscape:export-xdpi="96"
         inkscape:export-filename="C:\Users\Aravindh\Documents\asd.png"
         inkscape:connector-curvature="0"
         id="path4705"
         d="m 152.89136,262.41516 3.17646,8.69345 16.55099,-9.52936 -2.00618,-3.51082 -12.20427,7.52318 -0.83591,0.66873 -2.00618,-5.68418 z"
         style="opacity:1;fill:#ff0000;stroke:#000000;stroke-width:0.23405448px;stroke-linecap:butt;stroke-linejoin:miter;stroke-opacity:1" />
    </g>
  </g>
</svg>
