<?xml version="1.0" encoding="UTF-8" standalone="no"?>
<!-- Created with Inkscape (http://www.inkscape.org/) -->

<svg
   xmlns:dc="http://purl.org/dc/elements/1.1/"
   xmlns:cc="http://creativecommons.org/ns#"
   xmlns:rdf="http://www.w3.org/1999/02/22-rdf-syntax-ns#"
   xmlns:svg="http://www.w3.org/2000/svg"
   xmlns="http://www.w3.org/2000/svg"
   xmlns:sodipodi="http://sodipodi.sourceforge.net/DTD/sodipodi-0.dtd"
   xmlns:inkscape="http://www.inkscape.org/namespaces/inkscape"
   width="512"
   height="512"
   viewBox="0 0 135.46666 135.46667"
   version="1.1"
   id="svg1491"
   inkscape:version="0.92.4 (5da689c313, 2019-01-14)"
   sodipodi:docname="xxx1.svg">
  <defs
     id="defs1485" />
  <sodipodi:namedview
     id="base"
     pagecolor="#ffffff"
     bordercolor="#666666"
     borderopacity="1.0"
     inkscape:pageopacity="0.0"
     inkscape:pageshadow="2"
     inkscape:zoom="0.35"
     inkscape:cx="400"
     inkscape:cy="560"
     inkscape:document-units="mm"
     inkscape:current-layer="layer1"
     showgrid="false"
     units="px"
     inkscape:window-width="1920"
     inkscape:window-height="1017"
     inkscape:window-x="-8"
     inkscape:window-y="-8"
     inkscape:window-maximized="1" />
  <metadata
     id="metadata1488">
    <rdf:RDF>
      <cc:Work
         rdf:about="">
        <dc:format>image/svg+xml</dc:format>
        <dc:type
           rdf:resource="http://purl.org/dc/dcmitype/StillImage" />
        <dc:title></dc:title>
      </cc:Work>
    </rdf:RDF>
  </metadata>
  <g
     inkscape:label="Layer 1"
     inkscape:groupmode="layer"
     id="layer1"
     transform="translate(0,-161.53332)">
    <g
       aria-label="C"
       transform="matrix(0.74141723,0,0,0.64323077,-49.337236,86.189945)"
       style="font-style:normal;font-weight:normal;font-size:40px;line-height:1.25;font-family:sans-serif;letter-spacing:0px;word-spacing:0px;fill:#0000ff;fill-opacity:1;stroke:#000000;stroke-opacity:1"
       id="flowRoot3750">
      <path
         inkscape:connector-curvature="0"
         d="m 225.42196,279.83497 q 0,2.15764 -0.13486,3.77587 -0.13485,1.61823 -0.53941,2.8319 -0.2697,1.21367 -0.80911,2.15764 -0.53941,0.94397 -1.88794,2.29249 -1.34852,1.34853 -5.6638,4.18043 -4.31527,2.69704 -10.78819,5.39409 -6.33807,2.5622 -14.69892,4.31528 -8.22599,1.88793 -18.07022,1.88793 -16.99141,0 -30.74635,-5.6638 -13.6201,-5.6638 -23.32947,-16.7217 -9.57452,-11.0579 -14.83377,-27.24019 -5.124391,-16.31714 -5.124391,-37.48897 0,-21.71124 5.528951,-38.70265 5.6638,-16.9914 15.77773,-28.72356 10.11393,-11.86702 24.13859,-18.07023 14.1595,-6.20321 31.28576,-6.20321 7.55173,0 14.69891,1.48338 7.14718,1.34852 13.21554,3.50616 6.06836,2.15764 10.78819,4.98954 4.71984,2.8319 6.47292,4.71983 1.88793,1.75309 2.42734,2.69705 0.53941,0.94397 0.80912,2.29249 0.40456,1.21368 0.53941,2.96676 0.2697,1.75308 0.2697,4.18042 0,2.69705 -0.2697,4.58499 -0.26971,1.88793 -0.80912,3.23645 -0.53941,1.21368 -1.34852,1.88794 -0.67426,0.53941 -1.75308,0.53941 -1.88794,0 -5.25925,-2.5622 -3.37131,-2.69705 -8.7654,-5.79865 -5.25925,-3.23646 -12.94584,-5.79866 -7.55173,-2.69705 -18.20507,-2.69705 -11.59731,0 -21.17183,4.71984 -9.43967,4.58498 -16.1823,13.62009 -6.74262,9.03512 -10.51848,22.1158 -3.64102,12.94583 -3.64102,29.66753 0,16.58685 3.50616,29.39783 3.64102,12.67613 10.24879,21.30669 6.74262,8.4957 16.45199,12.94583 9.70938,4.31528 21.98095,4.31528 10.38363,0 18.07022,-2.5622 7.82144,-2.5622 13.21554,-5.6638 5.52895,-3.23646 9.03511,-5.79866 3.50617,-2.56219 5.52895,-2.56219 0.94397,0 1.61823,0.40456 0.67426,0.40455 1.07882,1.61822 0.40456,1.07882 0.53941,3.10161 0.26971,2.02279 0.26971,5.12439 z"
         style="font-style:normal;font-variant:normal;font-weight:normal;font-stretch:normal;font-size:276.17776489px;font-family:Calibri;-inkscape-font-specification:Calibri;fill:#0000ff;stroke:#000000;stroke-opacity:1"
         id="path1424" />
    </g>
    <path
       inkscape:connector-curvature="0"
       d="m 114.92816,250.35412 q 0,1.06486 -0.10652,1.81023 -0.10653,0.69216 -0.37269,1.22457 -0.21296,0.47918 -0.58566,0.74539 -0.31946,0.21295 -0.79864,0.21295 H 82.610251 q -1.224567,0 -2.342656,-0.79862 -1.064836,-0.85186 -1.064836,-2.9283 v -63.78396 q 0,-0.42594 0.212971,-0.7454 0.212966,-0.31943 0.745389,-0.47918 0.532418,-0.21296 1.437537,-0.31944 0.905105,-0.15973 2.182923,-0.15973 1.331047,0 2.182919,0.15973 0.905117,0.10652 1.437537,0.31944 0.532418,0.15975 0.745384,0.47918 0.212973,0.31946 0.212973,0.7454 v 59.57783 H 113.0647 q 0.47917,0 0.79862,0.26622 0.3727,0.21296 0.58568,0.69214 0.26621,0.42594 0.37268,1.17132 0.10653,0.7454 0.10653,1.81023 z"
       style="font-style:normal;font-variant:normal;font-weight:normal;font-stretch:normal;font-size:119.89430237px;line-height:1.25;font-family:Calibri;-inkscape-font-specification:Calibri;letter-spacing:0px;word-spacing:0px;fill:#ff0000;fill-opacity:1;stroke:#000000;stroke-width:0.90946513;stroke-opacity:1"
       id="path1438" />
  </g>
</svg>
